<svg viewBox="0 0 210 210" version="1.1" xmlns="http://www.w3.org/2000/svg" xmlns:svg="http://www.w3.org/2000/svg"><defs id="defs1" /><g id="layer1" style="display:inline"><path id="path9" style="display:inline;opacity:1;fill:currentColor;fill-opacity:1;stroke-width:0.264583" d="M 108.29781,6.4218302 C 52.695097,5.673423 6.3625908,45.864101 6.3626421,105.2086 9.7301823,164.92728 42.592305,205.20875 103.05933,204.83452 157.9137,201.84116 205.67874,158.56626 203.43361,102.96353 199.31771,55.59271 163.90054,9.7893706 108.29781,6.4218302 Z m -5.378,15.2094068 c 45.56339,7.2e-5 81.75144,40.678257 83.24822,86.241643 0.74829,37.3315 -36.18812,73.51955 -82.87404,79.50645 -43.6925,2.61918 -78.383849,-30.20128 -81.003162,-82.49987 6.8e-5,-45.563388 33.194708,-78.758028 80.628982,-83.248223 z" /><text style="font-size:56.4444px;text-align:start;writing-mode:lr-tb;direction:ltr;text-anchor:start;opacity:0.996885;fill:currentColor;fill-opacity:1;stroke-width:0.264583" x="33.477898" y="111.69743" id="text11"><tspan id="tspan11" style="font-style:normal;font-variant:normal;font-weight:800;font-stretch:normal;font-size:56.4444px;font-family:Geom;-inkscape-font-specification:'Geom Ultra-Bold';fill:currentColor;stroke-width:0.264583;fill-opacity:1" x="33.477898" y="111.69743">Dads</tspan></text><text style="font-style:normal;font-variant:normal;font-weight:800;font-stretch:normal;font-size:25.2236px;font-family:Geom;-inkscape-font-specification:'Geom Ultra-Bold';text-align:start;writing-mode:lr-tb;direction:ltr;text-anchor:start;opacity:0.996885;fill:currentColor;fill-opacity:1;stroke-width:0.264583" x="36.118958" y="136.92235" id="text12"><tspan id="tspan12" style="font-style:normal;font-variant:normal;font-weight:normal;font-stretch:normal;font-size:25.2236px;font-family:Geom;-inkscape-font-specification:Geom;fill:currentColor;fill-opacity:1;stroke-width:0.264583" x="36.118958" y="136.92235">on a Mission</tspan></text></g></svg>