<?xml version="1.0" encoding="UTF-8" standalone="no"?>
<!-- Created with Inkscape (http://www.inkscape.org/) -->

<svg
   width="190.5mm"
   height="338.67001mm"
   viewBox="0 0 190.5 338.67001"
   version="1.1"
   id="svg1"
   xml:space="preserve"
   inkscape:version="1.4.2 (f4327f4, 2025-05-13)"
   sodipodi:docname="Logo_DoaM_ausgeschnitten_blue.svg"
   inkscape:export-filename="Logo_DoaM_blue.png"
   inkscape:export-xdpi="300"
   inkscape:export-ydpi="300"
   xmlns:inkscape="http://www.inkscape.org/namespaces/inkscape"
   xmlns:sodipodi="http://sodipodi.sourceforge.net/DTD/sodipodi-0.dtd"
   xmlns="http://www.w3.org/2000/svg"
   xmlns:svg="http://www.w3.org/2000/svg"><sodipodi:namedview
     id="namedview1"
     pagecolor="#ffffff"
     bordercolor="#ffffff"
     borderopacity="0"
     inkscape:showpageshadow="2"
     inkscape:pageopacity="0.0"
     inkscape:pagecheckerboard="0"
     inkscape:deskcolor="#d1d1d1"
     inkscape:document-units="mm"
     inkscape:clip-to-page="true"
     inkscape:zoom="0.35355339"
     inkscape:cx="899.43983"
     inkscape:cy="780.64589"
     inkscape:window-width="1440"
     inkscape:window-height="830"
     inkscape:window-x="-6"
     inkscape:window-y="-6"
     inkscape:window-maximized="1"
     inkscape:current-layer="layer2" /><defs
     id="defs1" /><g
     inkscape:groupmode="layer"
     id="layer2"
     inkscape:label="Hintergrund"
     style="display:inline"><path
       id="rect1"
       style="opacity:0.996885;fill:#90a1b1;fill-opacity:1;stroke:none;stroke-width:0.264583;stroke-opacity:1"
       d="M -1.4965495 -2.2448242 L -1.4965495 157.72164 C 14.543103 116.98535 54.568299 91.606895 100.48017 92.224862 C 143.07363 94.804503 174.63486 120.57626 190.83021 153.60509 L 190.83021 -2.2448242 L -1.4965495 -2.2448242 z M 94.705847 108.55513 C 43.775707 113.37625 8.1344603 149.01743 8.1343872 197.93882 C 10.946743 254.09176 48.194776 289.33114 95.107373 286.51895 C 145.23401 280.0908 184.893 241.2359 184.08954 201.1531 C 182.48247 152.23172 143.62723 108.55522 94.705847 108.55513 z M 128.87017 161.01808 L 139.29382 161.01808 L 139.29382 205.86547 L 128.74873 200.83529 C 127.57705 202.24939 126.22382 203.46117 124.68851 204.47124 C 123.1532 205.48131 121.17351 205.98639 118.74934 205.98639 C 116.16356 205.98639 113.75953 205.31981 111.53738 203.98652 C 109.35562 202.61282 107.57807 200.67376 106.20437 198.16878 C 104.87108 195.6234 104.20398 192.63355 104.20398 189.1993 C 104.20398 185.72466 104.87108 182.7348 106.20437 180.22983 C 107.53766 177.68445 109.29516 175.74487 111.47692 174.41158 C 113.69907 173.03788 116.10258 172.35124 118.68836 172.35124 C 121.15294 172.35124 123.17326 172.83626 124.74897 173.80593 C 126.36509 174.7756 127.73889 175.92669 128.87017 177.25998 L 128.87017 161.01808 z M 23.903451 162.77559 L 39.782068 162.77559 C 44.711216 162.77559 48.932913 163.66437 52.447961 165.4421 C 56.003412 167.21982 58.730957 169.68454 60.629891 172.83596 C 62.528825 175.98738 63.478296 179.64382 63.478296 183.80532 C 63.478296 187.92641 62.528825 191.60291 60.629891 194.83514 C 58.730957 198.02696 55.983354 200.57243 52.3875 202.47136 C 48.832049 204.32989 44.549142 205.25931 39.539189 205.25931 L 23.903451 205.25931 L 23.903451 162.77559 z M 34.569983 172.2298 L 34.569983 195.8051 L 39.842529 195.8051 C 42.428312 195.8051 44.670317 195.34065 46.56925 194.41139 C 48.468184 193.44172 49.943313 192.06792 50.993787 190.29019 C 52.044261 188.51247 52.569401 186.41139 52.569401 183.98722 C 52.569401 182.2499 52.266455 180.6539 51.660413 179.1994 C 51.094773 177.7449 50.26617 176.51254 49.175293 175.50247 C 48.124819 174.49239 46.852344 173.70443 45.357438 173.13879 C 43.862533 172.53274 42.185785 172.2298 40.327254 172.2298 L 34.569983 172.2298 z M 156.38425 172.4117 C 157.83876 172.4117 159.13181 172.49245 160.26309 172.65406 C 161.39437 172.81567 162.50534 173.0785 163.59622 173.44213 C 164.7275 173.76535 165.91974 174.20974 167.17222 174.77538 L 167.17222 183.38105 C 166.12175 182.73461 164.90945 182.14878 163.53575 181.62354 C 162.20246 181.0983 160.88935 180.67397 159.59646 180.35075 C 158.34397 179.98712 157.25306 179.80556 156.32379 179.80556 C 155.31372 179.80556 154.56639 179.98712 154.08155 180.35075 C 153.59672 180.71437 153.35446 181.17934 153.35446 181.74498 C 153.35446 182.47223 153.73816 183.07812 154.50581 183.56296 C 155.31387 184.00739 156.34409 184.45178 157.59658 184.89621 C 158.84907 185.30024 160.18224 185.74463 161.59634 186.22946 C 163.01044 186.71429 164.34361 187.34076 165.59609 188.10841 C 166.84858 188.87607 167.85875 189.86566 168.6264 191.07774 C 169.43446 192.28983 169.83873 193.80507 169.83873 195.6232 C 169.83873 197.72415 169.31359 199.5624 168.26311 201.13811 C 167.21264 202.67342 165.71745 203.86566 163.77812 204.71412 C 161.83878 205.56258 159.5762 205.98639 156.99042 205.98639 C 154.68745 205.98639 152.54626 205.70351 150.56652 205.13787 C 148.62718 204.53182 146.60686 203.78449 144.50591 202.89563 L 144.50591 194.16851 C 145.67759 194.97657 146.95058 195.72442 148.32428 196.41127 C 149.73838 197.05771 151.13224 197.58285 152.50594 197.98688 C 153.92004 198.35051 155.21257 198.53207 156.38425 198.53207 C 156.86909 198.53207 157.4148 198.47138 158.02085 198.35017 C 158.62689 198.22896 159.17209 198.00676 159.65692 197.68354 C 160.14176 197.31992 160.38453 196.83541 160.38453 196.22937 C 160.38453 195.54252 159.98025 194.97674 159.1722 194.53231 C 158.40454 194.08788 157.37432 193.68413 156.08143 193.3205 C 154.82894 192.95687 153.49577 192.5526 152.08167 192.10817 C 150.70798 191.62334 149.37429 190.99687 148.0814 190.22922 C 146.82891 189.46156 145.79869 188.47197 144.99063 187.25989 C 144.22298 186.0478 143.83928 184.49244 143.83928 182.59351 C 143.83928 180.45215 144.385 178.63396 145.47587 177.13906 C 146.56675 175.60375 148.04136 174.43208 149.89989 173.62403 C 151.79883 172.81597 153.96008 172.4117 156.38425 172.4117 z M 83.235229 172.53314 C 86.79068 172.53314 89.719844 173.05828 92.022807 174.10875 C 94.366172 175.15923 96.103612 176.71459 97.234892 178.77513 C 98.406574 180.83568 98.992407 183.38115 98.992407 186.41136 L 98.992407 205.86547 L 88.750138 201.92618 C 87.578456 203.17866 86.224713 204.16825 84.689404 204.8955 C 83.154096 205.62276 81.315847 205.98639 79.174495 205.98639 C 77.073547 205.98639 75.154547 205.58264 73.417224 204.77458 C 71.720304 203.96652 70.346503 202.79486 69.296029 201.25955 C 68.285957 199.68384 67.780876 197.80496 67.780876 195.6232 C 67.780876 193.88588 68.104397 192.37063 68.750842 191.07774 C 69.397288 189.78485 70.286066 188.73457 71.417346 187.92651 C 72.589029 187.07805 73.942255 186.45159 75.477563 186.04756 C 77.053275 185.60313 78.770656 185.38093 80.629187 185.38093 C 82.204898 185.38093 83.720143 185.52238 85.174646 185.8052 C 86.629149 186.04761 87.840931 186.37113 88.8106 186.77516 L 88.8106 186.10854 C 88.8106 184.1692 88.123957 182.77534 86.75026 181.92688 C 85.376563 181.03802 83.336178 180.59311 80.629187 180.59311 C 78.97267 180.59311 77.315981 180.75513 75.659465 181.07835 C 74.04335 181.36117 72.326486 181.88631 70.508358 182.65397 L 70.508358 175.0782 C 72.326486 174.35095 74.245487 173.74506 76.265629 173.26023 C 78.285772 172.77539 80.609044 172.53314 83.235229 172.53314 z M 121.71867 181.07835 C 120.42578 181.07835 119.21399 181.42142 118.08271 182.10826 C 116.99184 182.75471 116.12312 183.70418 115.47667 184.95667 C 114.83023 186.16875 114.50671 187.58319 114.50671 189.1993 C 114.50671 190.5326 114.78959 191.82513 115.35523 193.07762 C 115.96128 194.28971 116.80994 195.27981 117.90081 196.04747 C 118.99169 196.81512 120.26417 197.19882 121.71867 197.19882 C 123.09237 197.19882 124.32472 196.87581 125.4156 196.22937 C 126.50648 195.54252 127.3752 194.59305 128.02164 193.38096 C 128.70849 192.12847 129.05207 190.69398 129.05207 189.07786 C 129.05207 187.50215 128.70849 186.12835 128.02164 184.95667 C 127.3752 183.74458 126.50648 182.79511 125.4156 182.10826 C 124.32472 181.42142 123.09237 181.07835 121.71867 181.07835 z M 83.841394 190.71446 C 82.669711 190.71446 81.638973 190.89602 80.75011 191.25964 C 79.90165 191.58287 79.215008 192.08795 78.689771 192.7748 C 78.204936 193.42124 77.962683 194.16858 77.962683 195.01704 C 77.962683 195.8655 78.184878 196.61335 78.629309 197.25979 C 79.114143 197.90624 79.740093 198.4108 80.507747 198.77443 C 81.275402 199.09765 82.104004 199.25967 82.992867 199.25967 C 84.083744 199.25967 85.113966 199.07759 86.083634 198.71397 C 87.053303 198.35034 87.96214 197.78457 88.8106 197.01691 L 88.8106 191.80535 C 88.204557 191.48212 87.457222 191.2193 86.568359 191.01728 C 85.7199 190.81527 84.811062 190.71446 83.841394 190.71446 z M 108.72515 213.06038 C 109.2668 213.06038 109.70915 213.22321 110.0522 213.54821 C 110.4133 213.8732 110.59377 214.31555 110.59377 214.87526 C 110.59377 215.3808 110.4133 215.805 110.0522 216.14805 C 109.70915 216.47304 109.2668 216.63536 108.72515 216.63536 C 108.23766 216.63536 107.81346 216.47304 107.45236 216.14805 C 107.09125 215.805 106.91079 215.3808 106.91079 214.87526 C 106.91079 214.35166 107.08244 213.91812 107.42548 213.57508 C 107.76853 213.23203 108.20155 213.06038 108.72515 213.06038 z M 136.864 213.06038 C 137.40565 213.06038 137.848 213.22321 138.19105 213.54821 C 138.55215 213.8732 138.73262 214.31555 138.73262 214.87526 C 138.73262 215.3808 138.55215 215.805 138.19105 216.14805 C 137.848 216.47304 137.40565 216.63536 136.864 216.63536 C 136.37651 216.63536 135.95231 216.47304 135.59121 216.14805 C 135.23011 215.805 135.04964 215.3808 135.04964 214.87526 C 135.04964 214.35166 135.22129 213.91812 135.56434 213.57508 C 135.90738 213.23203 136.3404 213.06038 136.864 213.06038 z M 85.298669 213.38542 L 88.088163 213.38542 L 95.048462 224.11035 L 102.00876 213.38542 L 104.77138 213.38542 L 104.77138 232.34344 L 102.00876 232.34344 L 102.00876 217.77275 L 95.048462 228.30803 L 88.061292 217.77275 L 88.061292 232.34344 L 85.298669 232.34344 L 85.298669 213.38542 z M 31.052368 218.69363 C 32.442608 218.69363 33.679432 219.00945 34.762736 219.64137 C 35.84604 220.25525 36.694445 221.08602 37.308317 222.13321 C 37.940244 223.1804 38.256063 224.35396 38.256063 225.65393 C 38.256063 226.64696 38.066778 227.56796 37.687622 228.41655 C 37.326521 229.26514 36.812084 230.00516 36.144047 230.63708 C 35.47601 231.26901 34.708505 231.7653 33.841862 232.1264 C 32.975219 232.46945 32.03658 232.6411 31.025496 232.6411 C 29.653312 232.6411 28.425304 232.3341 27.342 231.72022 C 26.276752 231.10635 25.437163 230.2761 24.823291 229.2289 C 24.209419 228.16365 23.902417 226.9901 23.902417 225.70819 C 23.902417 224.73321 24.074068 223.82154 24.417114 222.97295 C 24.778216 222.12437 25.274502 221.38383 25.906429 220.7519 C 26.556411 220.10192 27.315099 219.5963 28.181742 219.2352 C 29.066441 218.8741 30.023229 218.69363 31.052368 218.69363 z M 148.21163 218.69363 C 149.60187 218.69363 150.83869 219.00945 151.92199 219.64137 C 153.0053 220.25525 153.8537 221.08602 154.46757 222.13321 C 155.0995 223.1804 155.41584 224.35396 155.41584 225.65393 C 155.41584 226.64696 155.22604 227.56796 154.84688 228.41655 C 154.48578 229.26514 153.97134 230.00516 153.3033 230.63708 C 152.63527 231.26901 151.86776 231.7653 151.00112 232.1264 C 150.13448 232.46945 149.19584 232.6411 148.18475 232.6411 C 146.81257 232.6411 145.58456 232.3341 144.50126 231.72022 C 143.43601 231.10635 142.59642 230.2761 141.98255 229.2289 C 141.36868 228.16365 141.06167 226.9901 141.06167 225.70819 C 141.06167 224.73321 141.23333 223.82154 141.57637 222.97295 C 141.93747 222.12437 142.43428 221.38383 143.0662 220.7519 C 143.71619 220.10192 144.47436 219.5963 145.341 219.2352 C 146.2257 218.8741 147.18249 218.69363 148.21163 218.69363 z M 47.924723 218.7205 C 48.971917 218.7205 49.847806 218.93727 50.551953 219.37059 C 51.256101 219.78586 51.788687 220.38171 52.149788 221.15808 C 52.51089 221.93444 52.691357 222.84612 52.691357 223.89331 L 52.691357 232.34344 L 49.982996 232.34344 L 49.982996 224.70618 C 49.982996 223.80343 49.829495 223.08986 49.522559 222.56626 C 49.233678 222.04266 48.854592 221.67291 48.38516 221.45625 C 47.933784 221.22153 47.464464 221.10382 46.976978 221.10382 C 46.507546 221.10382 46.010743 221.2122 45.487146 221.42886 C 44.963549 221.64552 44.521197 222.01579 44.160095 222.53939 C 43.798994 223.06298 43.618526 223.78537 43.618526 224.70618 L 43.618526 232.34344 L 40.910164 232.34344 L 40.910164 219.01867 L 43.672786 220.7519 C 44.160273 220.15608 44.756127 219.66861 45.460274 219.28946 C 46.164422 218.9103 46.98586 218.7205 47.924723 218.7205 z M 117.17528 218.7205 C 117.64471 218.7205 118.09588 218.7568 118.5292 218.82902 C 118.98058 218.90124 119.41411 219.01844 119.82938 219.18094 C 120.24464 219.34343 120.63255 219.55138 120.99365 219.80415 L 120.99365 222.51252 C 120.61449 222.22364 120.21726 221.95242 119.80199 221.69965 C 119.38672 221.44688 118.96252 221.24826 118.5292 221.10382 C 118.11393 220.94132 117.67158 220.86042 117.20215 220.86042 C 116.60633 220.86042 116.14583 220.99577 115.82084 221.2666 C 115.5139 221.51937 115.3604 221.81704 115.3604 222.16008 C 115.3604 222.53924 115.5139 222.86439 115.82084 223.13522 C 116.14583 223.40604 116.56121 223.65859 117.06676 223.89331 C 117.5723 224.10997 118.10488 224.35371 118.66459 224.62453 C 119.24235 224.8773 119.78427 225.17549 120.28982 225.51853 C 120.79536 225.86158 121.20141 226.28578 121.50835 226.79132 C 121.83334 227.27881 121.99565 227.88348 121.99565 228.60568 C 121.99565 229.34594 121.80637 230.02321 121.42721 230.63708 C 121.04806 231.25096 120.49732 231.73843 119.77512 232.09953 C 119.07097 232.44257 118.23138 232.61423 117.25641 232.61423 C 116.22727 232.61423 115.34256 232.46072 114.60231 232.15379 C 113.86205 231.84685 113.18478 231.50355 112.57091 231.12439 L 112.57091 228.44342 C 112.98617 228.80452 113.43786 229.13849 113.92535 229.44543 C 114.43089 229.75236 114.95414 230.00491 115.49579 230.20352 C 116.0555 230.38407 116.60624 230.47482 117.14789 230.47482 C 117.5451 230.47482 117.91537 230.42037 118.25841 230.31204 C 118.60146 230.18565 118.8815 229.99637 119.09816 229.7436 C 119.33287 229.47277 119.45007 229.12065 119.45007 228.68733 C 119.45007 228.19985 119.28776 227.80261 118.96276 227.49567 C 118.65583 227.17068 118.24926 226.89065 117.74372 226.65593 C 117.23818 226.40316 116.69677 226.15943 116.11901 225.92471 C 115.5593 225.69 115.02672 225.41929 114.52118 225.11236 C 114.01563 224.78737 113.60025 224.39013 113.27526 223.9207 C 112.96832 223.45127 112.81482 222.86423 112.81482 222.16008 C 112.81482 221.45594 112.98647 220.85127 113.32952 220.34572 C 113.69062 219.82213 114.19624 219.42489 114.84622 219.15406 C 115.4962 218.86518 116.27252 218.7205 117.17528 218.7205 z M 128.00821 218.7205 C 128.47764 218.7205 128.92881 218.7568 129.36213 218.82902 C 129.81351 218.90124 130.24704 219.01844 130.66231 219.18094 C 131.07758 219.34343 131.46548 219.55138 131.82658 219.80415 L 131.82658 222.51252 C 131.44742 222.22364 131.05019 221.95242 130.63492 221.69965 C 130.21965 221.44688 129.79545 221.24826 129.36213 221.10382 C 128.94686 220.94132 128.50451 220.86042 128.03508 220.86042 C 127.43926 220.86042 126.97876 220.99577 126.65377 221.2666 C 126.34683 221.51937 126.19333 221.81704 126.19333 222.16008 C 126.19333 222.53924 126.34683 222.86439 126.65377 223.13522 C 126.97876 223.40604 127.39414 223.65859 127.89969 223.89331 C 128.40523 224.10997 128.93781 224.35371 129.49752 224.62453 C 130.07528 224.8773 130.6172 225.17549 131.12275 225.51853 C 131.62829 225.86158 132.03434 226.28578 132.34128 226.79132 C 132.66627 227.27881 132.82858 227.88348 132.82858 228.60568 C 132.82858 229.34594 132.6393 230.02321 132.26014 230.63708 C 131.88099 231.25096 131.33025 231.73843 130.60805 232.09953 C 129.9039 232.44257 129.06431 232.61423 128.08934 232.61423 C 127.0602 232.61423 126.1755 232.46072 125.43524 232.15379 C 124.69498 231.84685 124.01771 231.50355 123.40384 231.12439 L 123.40384 228.44342 C 123.8191 228.80452 124.27079 229.13849 124.75828 229.44543 C 125.26382 229.75236 125.78707 230.00491 126.32872 230.20352 C 126.88843 230.38407 127.43917 230.47482 127.98082 230.47482 C 128.37803 230.47482 128.7483 230.42037 129.09135 230.31204 C 129.43439 230.18565 129.71443 229.99637 129.93109 229.7436 C 130.1658 229.47277 130.283 229.12065 130.283 228.68733 C 130.283 228.19985 130.12069 227.80261 129.79569 227.49567 C 129.48876 227.17068 129.08219 226.89065 128.57665 226.65593 C 128.07111 226.40316 127.5297 226.15943 126.95194 225.92471 C 126.39223 225.69 125.85965 225.41929 125.35411 225.11236 C 124.84856 224.78737 124.43318 224.39013 124.10819 223.9207 C 123.80125 223.45127 123.64775 222.86423 123.64775 222.16008 C 123.64775 221.45594 123.8194 220.85127 124.16245 220.34572 C 124.52355 219.82213 125.02917 219.42489 125.67915 219.15406 C 126.32913 218.86518 127.10545 218.7205 128.00821 218.7205 z M 165.08398 218.7205 C 166.13117 218.7205 167.00706 218.93727 167.71121 219.37059 C 168.41536 219.78586 168.94794 220.38171 169.30905 221.15808 C 169.67015 221.93444 169.85061 222.84612 169.85061 223.89331 L 169.85061 232.34344 L 167.14225 232.34344 L 167.14225 224.70618 C 167.14225 223.80343 166.98875 223.08986 166.68182 222.56626 C 166.39293 222.04266 166.01385 221.67291 165.54442 221.45625 C 165.09304 221.22153 164.62372 221.10382 164.13623 221.10382 C 163.6668 221.10382 163.17052 221.2122 162.64692 221.42886 C 162.12332 221.64552 161.68097 222.01579 161.31987 222.53939 C 160.95877 223.06298 160.77778 223.78537 160.77778 224.70618 L 160.77778 232.34344 L 158.06994 232.34344 L 158.06994 219.01867 L 160.83204 220.7519 C 161.31953 220.15608 161.91538 219.66861 162.61953 219.28946 C 163.32368 218.9103 164.14512 218.7205 165.08398 218.7205 z M 68.995272 218.74789 C 70.150796 218.74789 71.197819 218.94651 72.136682 219.34372 C 73.075545 219.72287 73.8249 220.30058 74.384607 221.07694 C 74.944314 221.85331 75.223832 222.81944 75.223832 223.97496 L 75.223832 232.3977 L 72.488599 230.989 C 71.892782 231.53065 71.251811 231.94604 70.565719 232.23492 C 69.879626 232.50575 69.076338 232.6411 68.15553 232.6411 C 67.288887 232.6411 66.440482 232.45181 65.609949 232.07266 C 64.797471 231.6935 64.1202 231.14276 63.578548 230.42056 C 63.054951 229.69836 62.793066 228.81365 62.793066 227.76646 C 62.793066 226.91787 62.955901 226.21363 63.280892 225.65393 C 63.605883 225.09422 64.038902 224.64305 64.580554 224.3 C 65.140261 223.95696 65.754265 223.71271 66.422302 223.56827 C 67.108395 223.42383 67.803299 223.35174 68.507446 223.35174 C 69.265759 223.35174 69.988147 223.42383 70.674239 223.56827 C 71.360332 223.69465 71.983152 223.91142 72.542859 224.21836 L 72.542859 223.73105 C 72.542859 222.73802 72.19074 222.03378 71.486593 221.61851 C 70.782445 221.20325 69.852623 220.99581 68.697099 220.99581 C 67.848511 220.99581 67.008922 221.09486 66.178389 221.29347 C 65.365912 221.47402 64.55329 221.79917 63.740812 222.2686 L 63.740812 219.88529 C 64.390794 219.61446 65.158299 219.36191 66.042997 219.12719 C 66.94575 218.87442 67.930023 218.74789 68.995272 218.74789 z M 107.42548 219.01867 L 110.10646 219.01867 L 110.10646 232.34344 L 107.42548 232.34344 L 107.42548 219.01867 z M 135.56434 219.01867 L 138.24531 219.01867 L 138.24531 232.34344 L 135.56434 232.34344 L 135.56434 219.01867 z M 31.025496 220.96842 C 30.140798 220.96842 29.36396 221.18519 28.695923 221.61851 C 28.027885 222.03378 27.513449 222.59333 27.152348 223.29748 C 26.791247 224.00163 26.610779 224.78728 26.610779 225.65393 C 26.610779 226.53862 26.80058 227.3331 27.179736 228.03724 C 27.576948 228.74139 28.109534 229.30094 28.777572 229.71621 C 29.463664 230.13148 30.221835 230.33891 31.052368 230.33891 C 31.919011 230.33891 32.686516 230.12266 33.354553 229.68934 C 34.040646 229.25602 34.573232 228.68713 34.952389 227.98298 C 35.3496 227.27884 35.548218 226.51133 35.548218 225.6808 C 35.548218 224.83221 35.358417 224.05589 34.97926 223.35174 C 34.600104 222.62954 34.067517 222.05184 33.381425 221.61851 C 32.713388 221.18519 31.92825 220.96842 31.025496 220.96842 z M 148.18475 220.96842 C 147.30006 220.96842 146.52373 221.18519 145.8557 221.61851 C 145.18766 222.03378 144.67271 222.59333 144.3116 223.29748 C 143.9505 224.00163 143.77004 224.78728 143.77004 225.65393 C 143.77004 226.53862 143.95984 227.3331 144.33899 228.03724 C 144.7362 228.74139 145.26879 229.30094 145.93683 229.71621 C 146.62292 230.13148 147.38109 230.33891 148.21163 230.33891 C 149.07827 230.33891 149.84577 230.12266 150.51381 229.68934 C 151.1999 229.25602 151.73249 228.68713 152.11165 227.98298 C 152.50886 227.27884 152.70747 226.51133 152.70747 225.6808 C 152.70747 224.83221 152.51767 224.05589 152.13852 223.35174 C 151.75936 222.62954 151.22677 222.05184 150.54068 221.61851 C 149.87264 221.18519 149.08751 220.96842 148.18475 220.96842 z M 69.049015 225.27462 C 68.489308 225.27462 67.929755 225.36486 67.370048 225.54541 C 66.828396 225.72596 66.377227 226.01481 66.016125 226.41202 C 65.655024 226.79118 65.474556 227.2968 65.474556 227.92872 C 65.474556 228.52454 65.628057 229.02134 65.934993 229.41855 C 66.259985 229.81577 66.684187 230.11343 67.207784 230.31204 C 67.731381 230.49259 68.290934 230.58282 68.886751 230.58282 C 69.699229 230.58282 70.403467 230.43866 70.999284 230.14978 C 71.595101 229.8609 72.109537 229.46366 72.542859 228.95812 L 72.542859 226.1955 C 72.127592 225.96078 71.640123 225.75335 71.080416 225.57279 C 70.520709 225.37419 69.843438 225.27462 69.049015 225.27462 z M -1.4965495 238.87172 L -1.4965495 341.99825 L 190.83021 341.99825 L 190.83021 246.56635 C 172.60257 280.17635 135.54589 303.04001 94.855709 305.26044 C 44.834712 305.57003 12.407976 279.9672 -1.4965495 238.87172 z " /></g><g
     inkscape:groupmode="layer"
     id="layer1"
     inkscape:label="Layer 1"
     style="display:inline;fill:#ffffff;fill-opacity:1;stroke:none;stroke-opacity:1"
     transform="matrix(1.7148481,0,0,1.7148481,-4.5483224,-87.160739)" /></svg>
