<?xml version="1.0" encoding="UTF-8" standalone="no"?>
<!-- Created with Inkscape (http://www.inkscape.org/) -->

<svg
   width="210mm"
   height="297mm"
   viewBox="0 0 210 297"
   version="1.1"
   id="svg1"
   xml:space="preserve"
   inkscape:version="1.4.2 (f4327f4, 2025-05-13)"
   sodipodi:docname="Gemeinschaft.svg"
   xmlns:inkscape="http://www.inkscape.org/namespaces/inkscape"
   xmlns:sodipodi="http://sodipodi.sourceforge.net/DTD/sodipodi-0.dtd"
   xmlns="http://www.w3.org/2000/svg"
   xmlns:svg="http://www.w3.org/2000/svg"><sodipodi:namedview
     id="namedview1"
     pagecolor="#ffffff"
     bordercolor="#000000"
     borderopacity="0.25"
     inkscape:showpageshadow="2"
     inkscape:pageopacity="0.0"
     inkscape:pagecheckerboard="0"
     inkscape:deskcolor="#d1d1d1"
     inkscape:document-units="mm"
     inkscape:zoom="0.36756309"
     inkscape:cx="224.45126"
     inkscape:cy="605.33825"
     inkscape:window-width="2560"
     inkscape:window-height="1369"
     inkscape:window-x="2552"
     inkscape:window-y="-8"
     inkscape:window-maximized="1"
     inkscape:current-layer="layer1" /><defs
     id="defs1"><clipPath
       clipPathUnits="userSpaceOnUse"
       id="clipPath25"><path
         id="path26"
         style="fill:#ff0000;fill-opacity:1;fill-rule:nonzero;stroke:none;stroke-width:0.264583"
         d="M -30.760395,50.843926 V 262.77517 H 213.97919 V 50.843926 Z M 144.27698,140.64878 c 0.0657,-7.9e-4 0.13172,0.002 0.19741,0.007 0.13696,0.007 0.27347,0.0163 0.41031,0.0253 0.13938,0.004 0.27893,0.0106 0.41806,0.0196 0.0893,0.006 0.1786,0.006 0.2682,0.005 0.10215,1e-4 0.20429,5.3e-4 0.30644,0.001 0.11396,0.001 0.22765,0.002 0.34158,0.005 0.14912,0.005 0.29835,0.0102 0.447,0.0232 0.12583,0.0119 0.25077,0.0303 0.37672,0.0408 0.18065,0.0162 0.36198,0.0209 0.54261,0.0377 0.13897,0.0122 0.27814,0.026 0.41754,0.032 0.13366,0.008 0.26692,0.0182 0.39998,0.0331 0.142,0.0158 0.28493,0.0212 0.42633,0.0429 0.1368,0.018 0.27443,0.0214 0.41186,0.0331 0.13742,0.0167 0.274,0.0398 0.40979,0.0667 0.15838,0.0291 0.31441,0.067 0.47129,0.10284 0.13697,0.03 0.27675,0.0463 0.41186,0.0848 0.19417,0.0664 0.3909,0.15775 0.52297,0.32246 0.044,0.0549 0.0806,0.11541 0.12092,0.17311 0.0273,0.0707 0.0642,0.13828 0.0822,0.21188 0.0567,0.23233 0.0164,0.46694 -0.078,0.68212 -0.0516,0.11343 -0.10755,0.22454 -0.17725,0.32815 -0.0425,0.0693 -0.0883,0.14636 -0.13488,0.21756 -0.0507,0.0784 -0.10164,0.15633 -0.15244,0.23513 -0.0597,0.0955 -0.11764,0.1918 -0.18294,0.2837 -0.0621,0.092 -0.12489,0.18397 -0.19069,0.27337 -0.0587,0.082 -0.11853,0.16274 -0.17673,0.24494 -0.0704,0.0926 -0.14436,0.18246 -0.21756,0.27286 -0.0785,0.0895 -0.16046,0.17631 -0.23926,0.26561 -0.062,0.068 -0.1274,0.13239 -0.1788,0.20929 -0.0403,0.0507 -0.0827,0.10093 -0.1142,0.15503 -0.0448,0.0779 -0.0784,0.16165 -0.11162,0.24495 -0.0678,0.17719 -0.13506,0.35469 -0.21446,0.5271 -0.0812,0.16402 -0.16077,0.32979 -0.26614,0.48007 -0.0899,0.12345 -0.18716,0.24123 -0.293,0.3514 -0.099,0.10642 -0.20222,0.20857 -0.31161,0.30437 -0.0869,0.0748 -0.16653,0.15723 -0.25063,0.23513 -0.0144,0.0156 -0.027,0.033 -0.0434,0.0465 v 5.3e-4 h -5.3e-4 -5.3e-4 -5.3e-4 l -5.3e-4,-5.3e-4 h -5.3e-4 -5.3e-4 -5.2e-4 -5.3e-4 c -0.03,0.0392 -0.0476,0.0873 -0.0698,0.13074 -0.0693,0.15452 -0.13059,0.31244 -0.20619,0.46406 -0.078,0.15024 -0.16986,0.29061 -0.27646,0.42219 -0.13249,0.16751 -0.26692,0.33395 -0.4191,0.48421 -0.15245,0.14292 -0.31437,0.2744 -0.49041,0.38757 -0.15355,0.10203 -0.30883,0.20143 -0.47387,0.28423 -0.17242,0.0928 -0.3455,0.18433 -0.52348,0.26613 -0.12286,0.0514 -0.24713,0.0999 -0.36846,0.15503 -0.11648,0.0498 -0.23017,0.10551 -0.34416,0.16071 -0.13838,0.0645 -0.27755,0.12642 -0.41961,0.18242 -0.13805,0.0583 -0.27743,0.11448 -0.41703,0.16898 -0.13339,0.0512 -0.26442,0.10708 -0.39326,0.16898 -0.088,0.0417 -0.17633,0.0829 -0.26303,0.12713 -0.15109,0.0791 -0.30578,0.15094 -0.46303,0.21704 -0.20865,0.082 -0.41956,0.15992 -0.63923,0.20722 -0.16876,0.0354 -0.33962,0.0607 -0.51212,0.0687 -0.15021,0.006 -0.30031,0.004 -0.45061,0.004 -0.12589,0 -0.25187,2.1e-4 -0.37776,0.001 -0.11235,0.001 -0.22464,0.002 -0.33693,0.006 -0.0879,0.004 -0.17583,0.009 -0.26303,0.0207 -0.17517,0.0255 -0.35098,0.0505 -0.52865,0.0367 -0.15614,-0.0233 -0.30567,-0.0469 -0.44442,-0.1297 -0.23229,-0.13867 -0.356,-0.30293 -0.4377,-0.55966 -0.0248,-0.12019 -0.0454,-0.24144 -0.0424,-0.36484 -0.001,-0.0416 -0.002,-0.0826 -0.006,-0.12402 -0.003,-0.0267 -0.006,-0.0534 -0.0145,-0.0791 -0.0375,-0.1048 -0.0675,-0.21146 -0.0982,-0.31833 -0.059,-0.21672 -0.0802,-0.43928 -0.0352,-0.66146 0.0239,-0.11552 0.0486,-0.23115 0.0744,-0.34623 0.0153,-0.0577 0.0302,-0.11593 0.0382,-0.16433 0.0182,-0.0761 0.0116,-0.15928 0.0186,-0.23668 0.005,-0.16712 0.01,-0.33496 0.0408,-0.49971 0.041,-0.1899 0.10329,-0.3734 0.21084,-0.53692 0.0297,-0.0464 0.0597,-0.0921 0.0909,-0.13746 0.0192,-0.028 0.0352,-0.0589 0.0584,-0.0837 h 5.3e-4 v -5.3e-4 h 5.3e-4 v -5.3e-4 c 0.0193,-0.0323 0.0395,-0.0665 0.0584,-0.0982 0.0298,-0.0691 0.0614,-0.13763 0.0899,-0.20723 0.0398,-0.10869 0.0747,-0.21916 0.11937,-0.32607 0.0404,-0.10654 0.0831,-0.21256 0.11524,-0.32194 0.0267,-0.081 0.0471,-0.16356 0.0708,-0.24547 0.0306,-0.10768 0.0599,-0.21579 0.10025,-0.3204 0.0397,-0.10686 0.0832,-0.21237 0.13126,-0.31574 0.0523,-0.11649 0.10357,-0.23381 0.16537,-0.34571 0.0687,-0.11588 0.1436,-0.22801 0.2222,-0.33745 0.0682,-0.10068 0.13289,-0.20356 0.20619,-0.30076 0.0629,-0.0892 0.12512,-0.17955 0.19482,-0.26355 0.0553,-0.0677 0.11425,-0.1316 0.16795,-0.2005 0.0672,-0.076 0.13344,-0.15281 0.20464,-0.22531 0.0795,-0.0767 0.16045,-0.15266 0.24495,-0.22376 0.0597,-0.0491 0.11865,-0.0994 0.18035,-0.14573 0.0668,-0.0635 0.13215,-0.12822 0.19585,-0.19482 0.0377,-0.036 0.0716,-0.079 0.1111,-0.11575 0.0323,-0.0378 0.0541,-0.0649 0.0879,-0.10646 0.0237,-0.0936 0.0473,-0.18698 0.0858,-0.27595 0.0221,-0.0449 0.0412,-0.0915 0.0661,-0.13487 0.10013,-0.1743 0.25474,-0.30966 0.42943,-0.40566 0.0665,-0.0332 0.13412,-0.0633 0.20309,-0.0909 0.0448,-0.0676 0.0885,-0.13593 0.12609,-0.20774 0.0771,-0.15531 0.15512,-0.31148 0.26045,-0.45011 0.0352,-0.0401 0.0681,-0.0827 0.10594,-0.1204 0.16994,-0.16943 0.38955,-0.27356 0.62477,-0.31316 0.12319,-0.0183 0.24676,-0.0339 0.37103,-0.0429 0.0657,-0.004 0.13122,-0.008 0.19689,-0.008 z m -2.47582,2.07481 c -5.3e-4,0.001 -0.001,0.003 -0.002,0.004 v 5.3e-4 5.3e-4 c 5.3e-4,-0.002 0.002,-0.003 0.002,-0.005 z m -0.005,0.0103 v 5.3e-4 c -7.9e-4,0.004 -0.004,0.0117 -0.004,0.0139 l 5.3e-4,-5.3e-4 c 0.002,-0.003 0.003,-0.009 0.004,-0.014 z m 5.67665,1.28571 5.3e-4,5.3e-4 c -0.0264,0.001 -0.0527,0.003 -0.0791,0.005 0.0134,0.001 0.0269,0.002 0.0408,0.002 0.0103,-0.002 0.0379,-0.006 0.0408,-0.007 v -5.3e-4 c -5.3e-4,-1e-5 -0.002,-4e-5 -0.003,0 z m -5.11855,3.89176 c -0.006,0.0239 -0.0113,0.048 -0.017,0.0718 0.0282,-0.0108 0.0564,-0.0215 0.0847,-0.032 -0.0229,-0.0129 -0.0455,-0.0263 -0.0677,-0.0398 z m -0.11317,0.65629 c 2.6e-4,7.9e-4 7.9e-4,0.002 10e-4,0.003 -1.9e-4,-7.9e-4 -2.7e-4,-0.002 -5.3e-4,-0.003 z m 10e-4,0.003 c 0.003,0.0114 0.004,0.0226 0.007,0.0341 0.003,0.009 0.0133,0.0364 0.0103,0.0274 -0.006,-0.0205 -0.0105,-0.0413 -0.0176,-0.0615 z m -1.58078,0.99994 c 7.9e-4,0.006 0.001,0.009 0.002,0.0124 8e-4,-1e-5 0.002,1e-5 0.003,0 -0.002,-0.004 -0.003,-0.008 -0.004,-0.0124 z m 15.91273,87.52231 v 5.3e-4 h 0.002 c 0.42011,-0.0173 0.85237,0.4119 0.82528,1.24799 -0.0216,0.66844 -0.048,1.33665 -0.0718,2.00504 -0.0162,0.46954 -0.0284,0.93952 -0.0382,1.40922 0.20324,0.0322 0.40494,0.0741 0.6041,0.12609 0.19853,0.0506 0.39821,0.0965 0.601,0.12712 0.51574,0.0767 1.02968,0.16502 1.53117,0.3111 0.16181,0.045 0.32347,0.0903 0.48473,0.13694 0.001,-0.003 0.003,-0.006 0.004,-0.009 0.0373,-0.0815 0.0779,-0.1586 0.12196,-0.23202 -0.0771,-0.18911 -0.0577,-0.40131 0.0615,-0.58653 -0.36513,-0.82572 -0.0129,-1.40402 0.48163,-1.41128 0.30875,-0.005 0.673,0.21335 0.95291,0.73328 0.0142,0.0264 0.0283,0.0528 0.0419,0.0796 0.11017,-0.0484 0.22701,-0.0958 0.31832,-0.12454 0.11095,-0.0349 0.22496,-0.0589 0.33745,-0.0884 0.15786,0.01 0.34563,-0.0626 0.47387,0.03 0.49343,0.35624 0.57847,0.49803 0.58912,0.78083 0.0344,0.0365 0.0701,0.0718 0.10128,0.11111 0.15468,0.19467 0.24392,0.43063 0.27182,0.67644 0.009,0.15075 0.008,0.30087 -0.002,0.45165 -0.009,0.15197 -0.0224,0.30378 -0.046,0.45424 -0.0143,0.0985 -0.0301,0.1966 -0.0351,0.2961 -0.011,0.14351 0.002,0.28833 -0.006,0.43202 -0.004,0.2173 -0.008,0.43465 -0.0212,0.65164 -0.0111,0.19024 -0.0261,0.38018 -0.0341,0.57051 -0.0112,0.19593 -0.0116,0.39198 -0.0186,0.58808 -0.0151,0.43354 -0.0352,0.86746 -0.0739,1.29966 -0.0595,0.5935 -0.12363,1.2008 -0.40876,1.73581 -0.13913,0.22286 -0.15058,0.26591 -0.33073,0.45578 -0.22984,0.24233 -0.52113,0.41886 -0.81803,0.56535 -0.16396,0.0746 -0.32876,0.14671 -0.49506,0.21445 -0.0114,0.0714 -0.0348,0.15116 -0.0615,0.262 -0.11019,0.254 -0.24828,0.48115 -0.48007,0.64544 -0.0676,0.0479 -0.14306,0.0841 -0.21446,0.12609 -0.20995,0.0675 -0.2793,0.11034 -0.50074,0.10335 -0.32501,-0.0103 -0.61273,-0.14613 -0.8537,-0.35811 -0.13018,-0.12469 -0.25343,-0.25604 -0.37052,-0.39274 -0.26807,0.19152 -0.56677,0.3358 -0.87075,0.46095 -0.12623,0.0535 -0.25341,0.10463 -0.3793,0.15916 0.0138,0.0363 0.0226,0.0612 0.0217,0.0687 l -5.3e-4,5.3e-4 v 5.3e-4 0.001 h -5.3e-4 v 5.3e-4 h -0.001 -5.3e-4 -5.3e-4 -5.3e-4 l -5.3e-4,-5.3e-4 c -0.006,-0.004 -0.0207,-0.0229 -0.0429,-0.0594 -0.0534,0.0234 -0.10655,0.047 -0.15917,0.0724 -0.0625,0.18928 -0.11953,0.38221 -0.24546,0.53227 -0.10574,0.12606 -0.2983,0.143 -0.45734,0.185 -0.0483,0.013 -0.0984,0.0147 -0.14882,0.0129 -0.002,0.0323 -0.003,0.065 -0.005,0.0971 -0.02,0.4808 -0.032,0.97999 -0.52244,1.26039 0.15573,0.0161 0.31547,0.0162 0.4625,0.0677 0.31323,0.1098 0.57069,0.27201 0.75706,0.53072 0.03,0.003 0.0614,0.006 0.0946,0.0124 0.0336,-0.052 0.0712,-0.0985 0.12712,-0.11575 0.29559,-0.0915 0.6139,-0.0771 0.92088,-0.11576 0.004,0.004 0.008,0.007 0.0119,0.0114 0.13559,-0.13202 0.30414,-0.19644 0.47491,-0.19017 0.37569,0.0138 0.76185,0.37002 0.82837,1.10019 0.0118,0.13096 0.0201,0.2592 0.0176,0.38913 0.19054,0.0757 0.3831,0.14692 0.56947,0.23254 0.31186,0.14327 0.64515,0.31533 0.93897,0.51935 0.0507,-0.0205 0.10895,-0.0396 0.17621,-0.0584 0.31938,-0.0894 0.63146,-0.021 0.91518,0.13746 0.11808,0.066 0.21698,0.16458 0.30748,0.2651 0.0808,0.0897 0.13466,0.20064 0.20206,0.30076 0.0399,0.0921 0.0847,0.18175 0.11937,0.27595 0.13125,0.35583 0.18978,0.73717 0.19378,1.11518 h -5.3e-4 c 0.0185,1.57453 -1.5611,1.57436 -1.5906,0 -2.6e-4,-0.0176 -7.9e-4,-0.0351 -0.002,-0.0527 -0.21726,0.0896 -0.43653,0.16752 -0.66818,0.17828 -0.14818,0.007 -0.22914,-0.19468 -0.30954,-0.31936 -0.0851,-0.13197 -0.13239,-0.29203 -0.1478,-0.45682 -0.0198,-0.0235 -0.0398,-0.0475 -0.0636,-0.0636 -0.10251,-0.0693 -0.20917,-0.13198 -0.31832,-0.19017 -0.43697,-0.23321 -0.53348,-0.25531 -1.00563,-0.44338 -0.069,-0.0248 -0.13837,-0.0485 -0.20825,-0.0703 0.005,0.0358 0.007,0.0714 0.008,0.10748 0.37028,0.18931 0.74744,0.45626 1.0082,0.78239 0.0714,0.0893 0.12709,0.18974 0.19069,0.28473 0.0372,0.2062 0.14742,0.41264 0.11162,0.61909 -0.0301,0.17363 -0.087,0.30353 -0.16588,0.40566 -0.1336,0.28126 -0.48208,0.52126 -1.0573,0.5643 -0.43562,0.0326 -0.87147,0.0621 -1.30535,0.11421 -0.95788,0.11507 -1.91269,0.25407 -2.86907,0.38085 -0.6504,0.26822 -1.31211,0.50782 -1.97921,0.73122 -0.73268,0.23418 -1.47357,0.44159 -2.20762,0.67128 -0.49031,0.15831 -0.99494,0.35982 -1.46244,-0.046 -0.0346,-0.03 -0.0632,-0.0646 -0.0884,-0.10232 -0.0265,0.009 -0.0533,0.0164 -0.0801,0.0243 -0.0775,0.0173 -0.15156,0.0359 -0.22428,0.0527 -0.03,0.0206 -0.0607,0.0392 -0.092,0.0584 -0.0629,0.0354 -0.12432,0.0737 -0.18862,0.10646 -0.24385,0.12396 -0.50856,0.19832 -0.76895,0.27803 -0.34211,0.0865 -0.68959,0.14914 -1.04025,0.18964 -0.44275,0.0448 -0.88756,0.0622 -1.33221,0.0336 -0.48058,-0.0225 -0.96263,-0.0516 -1.43609,-0.14211 -0.1695,-0.0383 -0.34893,-0.0712 -0.50901,-0.14211 -0.29184,-0.12922 -0.48936,-0.30508 -0.62012,-0.59377 -0.0785,-0.18006 -0.13276,-0.36654 -0.14676,-0.56326 -0.009,-0.12192 -0.0159,-0.24402 -0.0129,-0.36639 5e-5,-0.10408 -1.7e-4,-0.20754 0,-0.31161 0,-0.12177 0.001,-0.2441 0.002,-0.36587 0.002,-0.14774 0.004,-0.29575 0.0103,-0.44339 0.007,-0.15319 0.0166,-0.30593 0.0424,-0.45733 0.0192,-0.12074 0.0405,-0.24119 0.0791,-0.3576 0.0295,-0.0955 0.0568,-0.19147 0.0899,-0.28577 0.0614,-0.1773 0.13957,-0.3489 0.26045,-0.49455 0.13842,-0.16804 0.29419,-0.32144 0.48265,-0.43356 0.0423,-0.0238 0.0832,-0.049 0.1266,-0.0708 0.2389,-0.12012 0.50032,-0.18412 0.76689,-0.19791 0.1247,0 0.24899,0.002 0.37103,0.0191 0.0432,-0.0215 0.0873,-0.0422 0.13178,-0.0615 0.25155,-0.0807 0.42799,-0.16346 0.709,-0.12454 0.29264,0.0405 0.49094,0.13846 0.67128,0.33486 0.0317,-0.0381 0.0648,-0.0752 0.0997,-0.1106 0.0194,-0.0196 0.0394,-0.038 0.0599,-0.0563 0.0117,-0.7448 0.0335,-1.48946 0.0574,-2.23397 0.0243,-0.53771 0.0351,-1.08803 0.23668,-1.59525 0.11162,-0.26322 0.23373,-0.53099 0.43666,-0.73897 0.0658,-0.0674 0.13223,-0.1377 0.21394,-0.1845 0.12308,-0.0705 0.26228,-0.10878 0.39325,-0.16329 0.2073,0.0386 0.42012,0.0539 0.62168,0.11576 0.0997,0.0306 0.2573,0.22701 0.3545,0.3023 -0.002,-5.3e-4 -0.007,-0.003 -0.01,-0.004 h -5.3e-4 -5.3e-4 -5.3e-4 -5.3e-4 v 5.3e-4 l 5.3e-4,5.2e-4 c 0.0226,0.03 0.11318,0.0611 0.14418,0.0734 0.025,0.01 0.0508,0.0194 0.076,0.0284 0.25597,0.0884 0.51691,0.17122 0.79014,0.17622 0.65937,0.046 1.33026,0.10216 1.94406,0.36948 0.11839,0.0516 0.22842,0.12055 0.34262,0.18088 0.28948,-0.12342 0.60452,-0.18406 0.92035,-0.10904 0.14274,0.0339 0.28724,0.0862 0.40308,0.17621 0.0609,0.0473 0.11303,0.10417 0.16175,0.16433 0.0165,0.002 0.0327,0.004 0.0491,0.006 0.14857,0.0212 0.29537,0.0565 0.43977,0.0971 0.35532,0.10045 0.70655,0.23918 1.02939,0.42478 0.0872,-0.0384 0.17606,-0.0709 0.26458,-0.0971 -0.0781,-0.0192 -0.15583,-0.0388 -0.23202,-0.0646 -0.0952,-0.0323 -0.36976,-0.16885 -0.46147,-0.21394 -0.21105,-0.10377 -0.42059,-0.2097 -0.63304,-0.31058 -0.0656,-0.0288 -0.24952,-0.11268 -0.32453,-0.13539 -0.0432,-0.0131 -0.0883,-0.0194 -0.13281,-0.0274 -0.22252,-0.0409 -0.44601,-0.0675 -0.67075,-0.0925 -0.27803,-0.0359 -0.55938,-0.0267 -0.8382,-0.0491 -0.0601,-0.005 -0.11993,-0.0131 -0.17983,-0.0191 -0.24299,-0.0317 -0.47447,-0.10983 -0.69092,-0.22376 -0.11518,-0.0606 -0.16908,-0.0995 -0.2806,-0.17157 -0.29074,-0.19801 -0.59023,-0.38195 -0.87901,-0.58291 -0.39403,-0.2752 -0.75148,-0.59815 -1.10175,-0.92604 -0.26936,-0.25425 -0.52157,-0.52851 -0.73794,-0.82889 -0.21053,-0.055 -0.41044,-0.11182 -0.50642,-0.15245 -0.18689,-0.0791 -0.38593,-0.15503 -0.53331,-0.29455 -0.25057,-0.23722 -0.31613,-0.46071 -0.34003,-0.75758 -0.0295,-0.28681 -0.067,-0.57257 -0.11575,-0.85679 -0.0241,-0.14863 -0.0495,-0.2946 -0.0661,-0.44442 -0.009,-0.0818 -0.0163,-0.16395 -0.0212,-0.24598 -0.16058,-0.27403 -0.29881,-0.56067 -0.44235,-0.84388 -0.0847,-0.17767 -0.17487,-0.35388 -0.23875,-0.54053 -0.0507,-0.14809 -0.054,-0.17673 -0.0899,-0.32711 -0.0588,-0.30962 -0.0947,-0.62489 -0.0558,-0.93948 0.0103,-0.0835 0.0311,-0.16535 0.0465,-0.24805 0.0945,-0.36167 0.25921,-0.69615 0.5085,-0.97668 0.15651,-0.17611 0.26156,-0.24984 0.44183,-0.39688 0.46083,-0.32401 0.97716,-0.54603 1.49603,-0.75757 0.0232,-0.0452 0.0476,-0.0896 0.0729,-0.13385 0.12006,-0.17904 0.20003,-0.31903 0.36018,-0.47025 0.0792,-0.0748 0.15688,-0.1618 0.2589,-0.19999 0.19193,-0.0718 0.39962,-0.15036 0.60255,-0.12196 0.46196,0.0647 0.51494,0.28016 0.69815,0.59377 0.0136,0.0506 0.0306,0.10051 0.0408,0.15192 0.0623,0.31267 0.013,0.58658 -0.15296,0.86093 -0.0339,0.0561 -0.0806,0.10343 -0.12092,0.15503 -0.11638,0.11328 -0.14419,0.15023 -0.28474,0.24443 -0.0786,0.0527 -0.16193,0.097 -0.24701,0.13695 -0.0455,0.17786 -0.0753,0.36036 -0.0997,0.54518 -0.0615,0.57816 -0.0741,1.15943 -0.0796,1.74046 0.17011,0.3129 0.34265,0.62433 0.5271,0.92915 0.088,0.14553 0.18226,0.30277 0.27337,0.447 0.0117,0.0185 0.12207,0.19226 0.15658,0.23306 0.0417,0.0493 0.0931,0.0901 0.13125,0.14211 0.0594,0.081 0.10679,0.17018 0.1602,0.25528 0.0254,0.1524 0.0725,0.30289 0.0765,0.45734 0.002,0.0875 -0.0312,0.17273 -0.0558,0.25683 -0.0159,0.0541 -0.0411,0.10497 -0.0651,0.15606 -0.0446,0.0951 -0.0982,0.18609 -0.15658,0.27337 0.5355,0.11652 1.07104,0.23294 1.60352,0.36277 0.5955,0.14522 0.73929,0.18914 1.31982,0.3483 0.5827,0.16218 1.15579,0.35604 1.72806,0.55087 5e-5,-0.17514 -6e-5,-0.3504 0,-0.52555 0.001,-1.07024 0.001,-2.14043 0.003,-3.21066 0.002,-0.96976 0.004,-1.93967 0.0155,-2.90938 0.0129,-0.98076 0.0302,-1.96165 0.0641,-2.94194 0.0247,-0.69361 0.0497,-1.38699 0.076,-2.08049 l -0.002,-5.3e-4 c 0.0279,-0.73753 0.38948,-1.10035 0.76016,-1.1157 z m -7.04402,4.59714 -5.3e-4,5.3e-4 h -5.3e-4 v 5.3e-4 h -5.3e-4 -5.3e-4 -5.3e-4 -5.3e-4 -5.3e-4 c -0.012,0.011 -0.0234,0.0224 -0.0341,0.0346 0.022,-0.0106 0.0436,-0.0223 0.0481,-0.0289 v -5.3e-4 l 5.3e-4,-5.2e-4 v -5.3e-4 -5.3e-4 -5.3e-4 -5.3e-4 -5.3e-4 h -5.3e-4 v -5.3e-4 h -5.3e-4 v -5.3e-4 c -0.002,-7.9e-4 -0.004,-0.002 -0.008,-0.002 -2.5e-4,-1e-5 2.7e-4,0 -0.002,0 z m 8.56692,1.86552 c 0.002,0.006 0.003,0.0119 0.005,0.0181 0.22073,0.83394 0.41859,1.67373 0.65422,2.50372 0.2167,0.73879 0.57996,1.42086 0.97616,2.07688 0.003,0.005 0.007,0.0111 0.01,0.0165 0.16957,-0.0973 0.34996,-0.17429 0.53847,-0.22892 0.12232,-0.0355 0.18392,-0.0436 0.30695,-0.0661 0.32763,-0.0407 0.65856,-0.0223 0.98754,-0.0119 0.19105,0.007 0.38246,0.0115 0.57361,0.0145 0.0141,1e-5 0.0278,-1.7e-4 0.0419,0 -0.004,-0.0907 -0.0108,-0.18145 -0.016,-0.2713 -0.009,-0.16208 -0.0116,-0.19945 -0.014,-0.24081 -0.003,-0.0523 -0.008,-0.12638 -0.0134,-0.22893 -0.025,-0.43443 -0.0396,-0.8693 -0.0496,-1.30431 0.001,-0.27225 0.009,-0.54439 0.0181,-0.81649 -0.0396,0.0623 -0.0834,0.12212 -0.13333,0.17932 -0.0425,0.0486 -0.0878,0.0958 -0.14004,0.13384 -0.0841,0.0612 -0.17775,0.10827 -0.26665,0.16227 -0.10103,0.0237 -0.19958,0.0705 -0.30333,0.0713 -0.13961,0.001 -0.28162,-0.0195 -0.41342,-0.0656 -0.28521,-0.0997 -0.4866,-0.37159 -0.58807,-0.64234 -0.0296,-0.079 -0.0427,-0.16334 -0.0641,-0.24494 -0.009,-0.0896 -0.0229,-0.17924 -0.0269,-0.26924 -0.004,-0.084 0.003,-0.20875 0.0114,-0.31988 -0.19652,-0.058 -0.39424,-0.11358 -0.5917,-0.16846 -0.43818,-0.12868 -0.88764,-0.20347 -1.33842,-0.27027 -0.0549,-0.008 -0.10975,-0.017 -0.16433,-0.0269 z m 3.67161,0.75189 c -2.2e-4,0.0231 2.6e-4,0.0442 0.002,0.0625 8e-4,0.0108 0.009,0.02 0.0129,0.03 0.0145,-0.0391 0.0164,-0.0345 -0.0145,-0.0925 z m -4.5191,2.28048 c 1.4e-4,5.3e-4 1.8e-4,0.001 5.3e-4,0.002 v -0.002 z m 5.3e-4,0.002 -0.003,2.76314 c -6e-5,0.16651 5e-5,0.33268 0,0.49919 0.24413,-0.12976 0.50416,-0.23013 0.75861,-0.33796 0.18427,-0.0763 0.36877,-0.15676 0.53485,-0.26769 -0.0587,-0.089 -0.11531,-0.17947 -0.17001,-0.2713 -0.0646,-0.10758 -0.13113,-0.21428 -0.19379,-0.32297 -0.37748,-0.65369 -0.70429,-1.33993 -0.92656,-2.06241 z m -7.27552,1.16427 c 7.9e-4,0.007 0.002,0.0149 0.002,0.0222 0.009,0.0253 0.009,0.055 0.0258,0.076 l 5.2e-4,5.3e-4 h 5.3e-4 l 5.3e-4,5.3e-4 h 5.3e-4 v 5.3e-4 h 5.3e-4 l 5.3e-4,-5.3e-4 h 5.3e-4 l 5.3e-4,-5.3e-4 5.3e-4,-5.3e-4 c 0.003,-0.006 0.006,-0.0225 0.006,-0.03 0.002,-0.016 -0.006,-0.0555 -0.005,-0.0563 -0.012,-0.004 -0.0231,-0.009 -0.0336,-0.0119 z m 10.94145,1.95854 c 0.0142,0.0137 0.0288,0.0275 0.0434,0.0408 0.005,0.002 0.0134,0.009 0.0181,0.0119 h 5.3e-4 v 5.3e-4 h 5.2e-4 5.3e-4 5.3e-4 5.3e-4 5.3e-4 5.3e-4 v -5.3e-4 -5.3e-4 -5.2e-4 l -5.3e-4,-5.3e-4 c -0.005,-0.0151 -0.0467,-0.0417 -0.0646,-0.0512 z m -3.668,0.63872 v 5.3e-4 l -5.2e-4,5.3e-4 v 0.0134 c 0.01,1.5e-4 0.0198,-2.6e-4 0.0294,-0.002 l 5.3e-4,-5.3e-4 h 5.2e-4 5.3e-4 5.3e-4 5.3e-4 v -5.3e-4 h 5.3e-4 v -5.3e-4 h -5.3e-4 v -5.3e-4 c -0.004,-0.003 -0.021,-0.009 -0.0315,-0.0103 z m -5.26687,0.11265 c 0.14688,0.0951 0.2934,0.19075 0.43771,0.28991 0.0898,0.06 0.17599,0.12834 0.28473,0.14624 0.12101,0.0168 0.2423,0.0177 0.36433,0.0228 0.21625,0.01 0.43257,0.0236 0.64802,0.045 0.0848,0.01 0.16957,0.0195 0.25424,0.03 -0.15257,-0.047 -0.30562,-0.0927 -0.45939,-0.13591 -0.55149,-0.15146 -0.696,-0.19517 -1.26195,-0.33331 -0.0895,-0.0219 -0.17812,-0.0434 -0.26769,-0.0646 z m 8.66873,0.25322 c 0.0189,0.017 0.0315,0.0136 0.0439,0.004 -0.0133,-0.001 -0.0279,-0.003 -0.0439,-0.004 z m -5.04775,1.57561 -0.006,0.009 c -0.012,0.0188 -0.0263,0.0687 -0.0191,0.0816 l 5.2e-4,5.3e-4 0.001,5.3e-4 5.3e-4,5.3e-4 v 5.3e-4 h 5.3e-4 v 5.3e-4 h 5.3e-4 0.001 5.3e-4 5.3e-4 c 7.9e-4,-3e-5 0.003,-5e-5 0.005,-5.3e-4 l 5.3e-4,-5.3e-4 c 0.0257,-0.0136 0.0111,-0.0574 0.0139,-0.0863 2e-4,-0.002 2.3e-4,-0.004 5.3e-4,-0.006 z m -2.67943,0.55759 v 5.3e-4 5.3e-4 0.001 c -0.006,-5e-5 -0.0155,7.9e-4 -0.0284,0.002 0.007,0.005 0.0134,0.0104 0.0202,0.0155 0.007,-0.004 0.0137,-0.009 0.0165,-0.0114 l 5.3e-4,-5.2e-4 v -5.3e-4 l 5.3e-4,-5.3e-4 v -0.001 h 5.3e-4 v -5.3e-4 l 5.3e-4,-5.3e-4 v -5.3e-4 -5.3e-4 h -5.3e-4 v -5.3e-4 l -5.3e-4,-0.001 h -5.3e-4 c -0.002,-5.2e-4 -0.005,-0.002 -0.009,-0.002 z m -4.09121,0.53743 c -0.0158,0.0902 -0.0238,0.18235 -0.031,0.27389 -0.0189,0.23959 -0.0199,0.32505 -0.031,0.57723 -0.0217,0.69138 -0.0425,1.38268 -0.0543,2.07429 0.0512,0.0447 0.0973,0.0931 0.13954,0.14469 0.0504,-0.0557 0.10269,-0.10998 0.15605,-0.16278 0.0925,-0.0772 0.18042,-0.16021 0.27752,-0.23151 0.19187,-0.14075 0.45564,-0.30067 0.68728,-0.36277 0.14522,-0.0389 0.29789,-0.0796 0.44701,-0.0605 0.19655,0.0252 0.4076,0.0682 0.56379,0.19017 0.0317,0.0247 0.0597,0.0522 0.0858,0.0822 0.12141,-0.0678 0.24639,-0.1298 0.37361,-0.18655 0.1201,-0.0441 0.23693,-0.0981 0.36018,-0.13229 0.3077,-0.0854 0.70221,-0.14689 0.99943,0.0284 0.39061,0.23052 0.51171,0.51983 0.51108,0.91829 -2.1e-4,0.10763 -0.038,0.21184 -0.0568,0.31781 -0.0134,0.036 -0.0241,0.0668 -0.0341,0.094 0.0455,-0.0106 0.0914,-0.0211 0.13798,-0.031 0.31806,-0.0679 0.52117,-0.0913 0.8413,-0.13694 0.40026,-0.0499 0.80225,-0.0876 1.20457,-0.11628 -0.10964,-0.19166 -0.23133,-0.38303 -0.17569,-0.58032 0.0477,-0.16932 0.12217,-0.29843 0.21549,-0.39739 -0.1931,-0.0843 -0.36328,-0.21384 -0.46767,-0.36381 -0.10256,-0.14726 -0.13466,-0.33291 -0.20206,-0.49919 0.002,-0.0137 0.004,-0.0271 0.006,-0.0408 -0.20714,-0.10192 -0.45969,-0.19241 -0.69608,-0.23875 -0.11675,0.10207 -0.25131,0.18038 -0.39429,0.22221 -0.13219,0.0382 -0.27382,0.0278 -0.41083,0.0419 -0.19023,-0.12235 -0.43617,-0.18764 -0.59014,-0.34727 -0.10701,0.005 -0.22032,-0.01 -0.3421,-0.0439 -0.37659,-0.10558 -0.28126,-0.20479 -0.46974,-0.34985 -0.022,-0.0169 -0.0489,-0.0263 -0.0734,-0.0393 -0.46359,-0.20879 -0.98306,-0.23141 -1.48311,-0.26561 -0.41086,-0.0138 -0.80752,-0.12698 -1.19424,-0.25787 -0.10056,-0.0372 -0.20228,-0.0754 -0.30024,-0.12041 z m 4.99038,1.13792 c -0.019,0.002 -0.0378,0.003 -0.0568,0.004 -0.0293,0.009 -0.0635,0.007 -0.0879,0.0259 h -5.3e-4 v 5.3e-4 h -5.2e-4 l -5.3e-4,5.3e-4 v 5.3e-4 l -5.3e-4,5.3e-4 v 5.3e-4 5.3e-4 5.2e-4 5.3e-4 l 5.3e-4,5.3e-4 v 5.3e-4 c 0.007,0.005 0.0331,0.008 0.0434,0.005 0.0343,-0.0115 0.0708,-0.0222 0.10283,-0.0393 z m 6.05441,0.28319 c 0.005,0.006 0.01,0.0122 0.0135,0.0181 0.002,0.002 0.004,0.005 0.007,0.008 l 0.009,0.003 c -0.009,-0.01 -0.0188,-0.0195 -0.0295,-0.0289 z m -3.59874,0.17363 c -0.0239,0.0164 -0.046,0.0351 -0.0667,0.0558 -0.01,0.01 -0.0302,0.0293 -0.0305,0.0398 v 5.3e-4 5.3e-4 l 5.3e-4,5.3e-4 v 5.3e-4 5.3e-4 5.3e-4 l 5.2e-4,5.3e-4 5.3e-4,5.3e-4 5.3e-4,5.3e-4 5.3e-4,5.3e-4 5.3e-4,5.2e-4 h 5.3e-4 l 5.3e-4,5.3e-4 h 5.3e-4 5.3e-4 5.3e-4 c 0.0232,0.006 0.0517,-0.0148 0.0625,-0.0362 0.0109,-0.0215 0.0204,-0.0434 0.0295,-0.0656 z m 0.46043,0.3452 c -0.002,0.003 -0.003,0.006 -0.005,0.009 0.005,-2.6e-4 0.009,-8e-4 0.014,-0.001 -0.003,-0.003 -0.006,-0.006 -0.009,-0.008 z m -0.30023,0.28732 v 5.3e-4 c 0.0192,0.009 0.0386,0.0187 0.0579,0.0279 v -5.3e-4 l -5.3e-4,-5.3e-4 -5.3e-4,-5.3e-4 v -5.2e-4 h -5.3e-4 -5.3e-4 v -5.3e-4 l -5.3e-4,-5.3e-4 c -0.0123,-0.006 -0.0363,-0.0168 -0.0548,-0.0253 z m -4.67465,0.70176 c -0.011,0.0224 -0.0277,0.0437 -0.0305,0.0682 -0.001,0.008 -0.002,0.0144 -0.003,0.0217 0.0115,-0.0297 0.0229,-0.0598 0.0336,-0.0899 z m -1.94872,0.28371 v 5.3e-4 h -5.3e-4 c -0.004,0.008 -0.0113,0.0574 -0.016,0.076 0.005,0.01 0.009,0.0188 0.0129,0.0279 0.005,-0.0414 0.007,-0.0777 0.006,-0.0997 -1.4e-4,-0.002 -2.2e-4,-0.002 -5.3e-4,-0.003 l -5.3e-4,-5.3e-4 v -5.3e-4 -5.3e-4 h -5.3e-4 z m 12.2039,0.44855 -5.2e-4,5.3e-4 h -5.3e-4 -0.001 v 5.3e-4 h -5.3e-4 v 5.3e-4 h -5.3e-4 v 5.3e-4 5.3e-4 5.3e-4 5.3e-4 c 0.007,0.0461 0.0391,0.0856 0.0827,0.1173 -0.001,-0.003 -0.003,-0.006 -0.005,-0.0103 -0.0154,-0.0366 -0.0353,-0.0711 -0.0532,-0.10646 -0.006,-1.9e-4 -0.0153,-0.004 -0.0207,-0.004 z m -2.20296,0.29662 v 5.3e-4 h -5.3e-4 -5.3e-4 l -5.3e-4,5.3e-4 c -0.0119,0.004 -0.0239,0.007 -0.0362,0.01 0.0238,5.3e-4 0.0447,-2.7e-4 0.0594,-0.002 h 5.3e-4 5.3e-4 5.3e-4 v -5.3e-4 h 5.2e-4 v -5.3e-4 h -5.2e-4 v -5.3e-4 c -0.004,-0.003 -0.0162,-0.007 -0.0228,-0.007 v -5.3e-4 z" /></clipPath><clipPath
       clipPathUnits="userSpaceOnUse"
       id="clipPath35"><path
         id="path36"
         style="fill:#ff0000;fill-opacity:1;fill-rule:nonzero;stroke:none;stroke-width:0.264583"
         d="M -30.704068,50.995337 V 262.77311 H 145.00045 c -0.15629,-0.0638 -0.31271,-0.12795 -0.47129,-0.17519 -0.20912,-0.21591 -0.44791,-0.40687 -0.62735,-0.64802 -0.3176,-0.42681 -0.4007,-0.98774 -0.4439,-1.5012 -0.02,-0.27872 -0.0239,-0.55834 -0.0269,-0.83767 -0.003,-0.23712 -0.004,-0.47446 -0.004,-0.71159 -0.009,-0.3002 0.0128,-0.5993 0.0388,-0.89813 0.0266,-0.39754 0.10237,-0.78952 0.17157,-1.18133 0.1076,-0.54791 0.21317,-1.09604 0.30747,-1.64641 0.0996,-0.65137 0.24223,-1.29424 0.38189,-1.93786 0.16131,-0.74859 0.30919,-1.5006 0.45114,-2.2531 0.19563,-1.11223 0.42618,-2.21734 0.65629,-3.32279 0.2237,-1.08943 0.35526,-2.19466 0.47387,-3.29954 0.1089,-0.9024 0.16003,-1.81046 0.27544,-2.71198 0.19747,-1.11428 0.69392,-1.90089 1.64641,-2.53938 0.53422,-0.35812 0.94683,-0.4734 1.54099,-0.69557 0.28533,-0.0762 0.56836,-0.16092 0.85576,-0.22892 0.44496,-0.1053 1.12739,-0.22776 1.58543,-0.29766 0.49666,-0.0758 0.94992,-0.13376 1.45314,-0.14986 0.24343,-0.007 0.48716,0.005 0.73071,0.007 0.65064,0.0217 1.28552,0.12853 1.89549,0.33487 0.28113,-0.16065 0.60464,-0.23857 0.94413,-0.22583 h 5.3e-4 c 0.83304,0.0317 1.76503,0.61129 2.42001,1.86345 0.50984,0.15458 0.99575,0.37578 1.49654,0.55501 0.19857,0.0763 0.40828,0.10421 0.61548,0.14521 0.31674,0.0539 0.62481,0.14348 0.92965,0.24288 0.64557,0.23832 1.15225,0.70078 1.47899,1.30328 0.16185,0.29846 0.21727,0.51109 0.32091,0.8263 0.24189,0.75111 0.38004,1.52634 0.47903,2.30736 0.0845,0.76284 0.11997,1.52973 0.14367,2.2965 0.0171,0.64744 0.0223,1.2954 0.0264,1.94303 0.003,0.73323 0.004,1.46612 0.004,2.19935 5.3e-4,0.65189 5.3e-4,1.30406 5.3e-4,1.95595 0.0115,0.68934 -0.0113,1.37755 -0.0801,2.06344 -0.0641,0.64091 -0.21415,1.2685 -0.3514,1.89653 -0.0866,0.39288 -0.13319,0.79505 -0.24495,1.18236 -0.0355,0.12321 -0.0803,0.24354 -0.12041,0.36535 -0.36118,0.9629 -0.98685,1.67661 -1.98541,2.0252 -0.24522,0.0856 -0.50977,0.0981 -0.76481,0.14728 -0.30042,-0.0231 -0.6058,-0.0126 -0.90175,-0.0693 -0.5485,-0.1049 -1.03032,-0.37175 -1.47536,-0.69867 -0.54955,-0.40369 -0.96806,-0.94787 -1.37873,-1.48208 -0.0307,-0.0423 -0.0612,-0.0849 -0.0909,-0.12764 -0.19893,0.26138 -0.41027,0.51268 -0.64079,0.74724 -0.14512,0.14767 -0.30274,0.28261 -0.45423,0.42375 -0.16909,0.12324 -0.32835,0.26136 -0.50747,0.36949 -0.65342,0.39443 -1.33032,0.64308 -2.15335,0.45578 -0.27013,-0.0615 -0.52893,-0.17221 -0.77257,-0.31264 -0.15195,0.17254 -0.30971,0.34046 -0.4749,0.50178 -0.33718,0.32926 -0.45618,0.41108 -0.81752,0.70176 -0.53718,0.39796 -1.11437,0.76375 -1.76424,0.9462 -0.12761,0.0358 -0.25837,0.0593 -0.38757,0.0889 -0.2995,-0.003 -0.60939,0.0689 -0.89865,-0.009 -0.4021,-0.10805 -0.70606,-0.23285 -0.96739,-0.40618 -0.18372,0.18988 -0.39412,0.35111 -0.62941,0.47181 h 67.08992 V 50.995337 Z M 150.66574,242.20485 c -0.004,0.004 -0.0152,0.0214 -0.0212,0.0274 -0.008,0.0607 -0.0158,0.12161 -0.0233,0.18242 0.0238,-0.0604 0.0398,-0.12336 0.046,-0.20722 2e-5,-2.7e-4 0,-5.3e-4 0,-0.001 v -5.3e-4 -5.3e-4 l -5.3e-4,-5.3e-4 h -5.3e-4 z m 2.89543,0.0217 c -0.89194,0.01 -1.81887,0.23999 -2.68718,0.42788 -0.0967,0.0296 -0.19276,0.0613 -0.2899,0.0894 -0.023,0.22128 -0.0426,0.44284 -0.0615,0.66456 0.0861,0.13841 0.16947,0.30921 0.25011,0.51573 0.0321,0.0821 0.0646,0.16451 0.0951,0.24701 0.14993,0.0155 0.30826,0.0384 0.47594,0.0687 0.55708,0.1007 0.86743,0.72716 1.30122,1.09089 0.12411,0.2677 0.27107,0.52599 0.37258,0.80305 0.18813,0.51348 0.2658,1.07257 0.3607,1.60714 0.006,0.0346 0.0119,0.0692 0.0181,0.10387 0.071,-0.54922 0.15857,-1.09581 0.27234,-1.63711 0.0188,-0.0893 0.0472,-0.17638 0.0708,-0.26458 h 5.3e-4 c 0.40219,-1.50431 1.19075,-2.3321 1.99781,-2.58848 -0.0153,-0.0702 -0.0311,-0.14033 -0.0475,-0.21032 -0.27076,-0.1637 -0.51283,-0.37157 -0.7705,-0.55397 -0.0915,-0.0585 -0.1863,-0.11153 -0.2775,-0.17053 -0.0206,-0.0134 -0.0364,-0.0336 -0.0579,-0.0455 -0.20529,-0.1132 -0.45758,-0.0991 -0.68109,-0.13229 -0.11408,-0.005 -0.22791,-0.0165 -0.3421,-0.0155 z m 7.21868,2.66857 c 0.002,8e-4 0.005,0.002 0.007,0.003 0.007,0.002 0.0174,0.005 0.0289,0.008 -0.0124,-0.004 -0.0232,-0.007 -0.0362,-0.0103 z m -11.98273,8.94777 c -0.0244,0.11609 -0.0489,0.23236 -0.0739,0.3483 -0.0775,0.35657 -0.1568,0.71227 -0.22686,1.07022 0.44086,0.18508 0.79899,0.54052 1.21336,1.02991 0.13447,0.15883 0.17683,0.37444 0.24857,0.57206 0.084,-0.11492 0.16751,-0.22982 0.25373,-0.34261 0.10593,-0.14892 0.2112,-0.298 0.31626,-0.44752 -0.15885,-0.60671 -0.30728,-1.21638 -0.44804,-1.8278 -0.31293,-0.10791 -0.72863,-0.25092 -1.28312,-0.40256 z m -0.27699,4.46226 c -0.031,0.009 -0.0623,0.018 -0.0925,0.0295 -0.0158,0.006 -0.0511,0.0302 -0.0558,0.0377 v 5.3e-4 l -5.3e-4,5.3e-4 v 5.3e-4 5.3e-4 h 5.3e-4 5.3e-4 5.3e-4 c 7.9e-4,-5e-5 0.002,-1.4e-4 0.003,-5.3e-4 0.0506,-0.0147 0.0985,-0.0395 0.14417,-0.0687 z" /></clipPath></defs><g
     inkscape:label="Ebene 1"
     inkscape:groupmode="layer"
     id="layer1"><path
       style="fill:#000000"
       d="m -21.306898,262.28832 c -0.892008,-0.58818 -1.587532,-1.31728 -2.075458,-2.17566 -0.582638,-1.025 -0.66884,-45.77858 -0.09603,-49.85729 0.224804,-1.60073 0.39947,-3.50703 0.388147,-4.23623 -0.01838,-1.18368 0.07994,-1.42325 0.91716,-2.23471 l 0.937749,-0.9089 -0.01743,-3.45383 c -0.0096,-1.89961 -0.183042,-4.52539 -0.385455,-5.83508 -0.376681,-2.43727 -1.138698,-8.84024 -1.739742,-14.61847 l -0.337164,-3.24138 0.765926,-0.79946 0.765927,-0.79945 -0.85279,-4.69041 c -0.469035,-2.57973 -0.851061,-5.07635 -0.848947,-5.54806 0.0026,-0.57399 -0.171179,-0.96696 -0.525323,-1.18813 -0.47529,-0.29682 -0.529167,-0.61701 -0.529167,-3.14484 0,-2.17889 -0.08961,-2.88875 -0.396875,-3.14376 -0.283046,-0.2349 -0.396875,-0.85627 -0.396875,-2.16645 0,-1.0104 -0.122118,-2.06526 -0.271373,-2.34415 -0.149255,-0.27888 -0.385399,-2.14629 -0.524764,-4.14979 -0.139365,-2.0035 -0.381684,-4.47617 -0.538487,-5.49481 -0.475476,-3.08887 -0.720971,-6.59954 -0.480122,-6.86594 0.124985,-0.13825 0.227246,-1.7088 0.227246,-3.49011 0,-1.87377 0.11151,-3.30768 0.264583,-3.40229 0.145521,-0.0899 0.264584,-0.34647 0.264584,-0.57008 0,-0.22361 0.252176,-0.76071 0.560392,-1.19356 0.483736,-0.67934 0.533647,-0.99256 0.364875,-2.2898 -0.107534,-0.82654 -0.210882,-2.25637 -0.229663,-3.1774 -0.03122,-1.53106 -0.106962,-1.73972 -0.883679,-2.43441 -0.467244,-0.4179 -1.316577,-0.88557 -1.887409,-1.03928 -0.570831,-0.15371 -1.188581,-0.46106 -1.372778,-0.68301 -0.262663,-0.31649 -0.297814,-2.18517 -0.162959,-8.6632 0.09457,-4.54282 0.270439,-8.735922 0.39082,-9.318005 0.181841,-0.879263 0.12966,-1.158618 -0.308399,-1.651029 -0.448486,-0.504131 -0.480718,-0.694875 -0.215708,-1.276508 0.300582,-0.659705 0.374413,-0.678885 2.094183,-0.544038 0.980439,0.07688 2.020741,0.205524 2.311783,0.285883 2.021566,0.558169 4.189479,0.926511 5.480795,0.93122 1.256315,0.0046 1.561089,-0.08613 1.802025,-0.536318 0.24983,-0.466812 1.034625,-0.928844 1.977597,-1.164269 0.706944,-0.176498 1.173223,-0.489254 1.043161,-0.699698 -0.07943,-0.128526 0.12961,-0.526303 0.464541,-0.88395 0.468814,-0.500612 0.928638,-0.668797 1.997976,-0.73078 0.763956,-0.04428 1.389034,-0.16981 1.389062,-0.278951 1.5e-4,-0.58223 4.1289937,0.542295 5.9620157,1.623804 1.3776675,0.812844 2.3267908,0.920186 3.0387565,0.343671 0.6984811,-0.565596 0.750321,-0.867575 0.9485908,-5.525765 l 0.1373769,-3.227562 -1.0189122,-0.643211 C -5.028837,83.813505 -6.2123014,81.324154 -6.2620524,78.096 c -0.022533,-1.462077 0.059209,-1.789176 0.5454859,-2.182812 0.3145948,-0.254661 0.6990625,-0.463021 0.8543726,-0.463021 0.2684747,0 0.221082,-0.73126 -0.1543277,-2.38125 -0.2218099,-0.974892 -0.4157248,-3.205611 -0.7211352,-8.295649 -0.04238,-0.706304 -0.2350532,-1.381839 -0.4281639,-1.501188 -0.2883804,-0.178229 -0.2897053,-0.290987 -0.00742,-0.631126 0.1890323,-0.22777 0.4492669,-0.34888 0.5782992,-0.269133 0.1290324,0.07975 0.2364274,-0.189456 0.2386558,-0.598226 0.00223,-0.408771 0.1152674,-0.919094 0.251198,-1.134051 0.1655038,-0.261724 0.1263937,-0.524263 -0.1183928,-0.794749 -0.2094258,-0.231413 -0.3405181,-0.85548 -0.3069523,-1.461251 0.048042,-0.86703 0.1638644,-1.072552 0.643508,-1.141883 0.3217065,-0.0465 0.5849209,-0.202356 0.5849209,-0.346344 0,-0.143988 -0.1108355,-0.193296 -0.2463011,-0.109573 -0.1354656,0.08372 -0.3331481,0.0015 -0.4392944,-0.182823 -0.1061463,-0.184275 -0.095563,-0.246781 0.023519,-0.138903 0.119082,0.107878 0.3762957,0.06353 0.571586,-0.09854 0.1952903,-0.162076 0.3568965,-0.190809 0.3591248,-0.06385 0.00497,0.283319 0.5154009,-0.477791 0.5210637,-0.776968 0.00223,-0.117729 -0.1447767,-0.124639 -0.3266777,-0.01536 -0.2137678,0.128428 -0.1987767,0.03612 0.04239,-0.261009 0.2052155,-0.252838 0.5388212,-0.396119 0.741346,-0.318403 0.2025249,0.07772 0.303851,0.03714 0.2251693,-0.09017 -0.078682,-0.12731 0.08802,-0.291901 0.3704471,-0.365757 0.2824276,-0.07386 0.5546702,-0.01079 0.6049835,0.140152 0.060135,0.180405 0.3033681,0.161037 0.7098895,-0.05653 0.44112145,-0.236081 0.52419383,-0.389193 0.28976859,-0.534075 -0.51576659,-0.318762 -0.0735565,-1.244669 0.86612455,-1.813507 0.59159733,-0.358125 1.50305936,-0.547949 3.02904806,-0.63084 1.2005469,-0.06521 2.1828125,-0.02459 2.1828125,0.09027 0,0.507611 1.7799789,0.52888 2.6666471,0.03186 0.4978753,-0.27908 1.242722,-0.571575 1.6552149,-0.649988 0.6314065,-0.120027 0.7298505,-0.06556 0.6226265,0.344459 -0.1978537,0.756594 0.492541,1.188873 1.250711,0.783113 0.341502,-0.182766 0.856415,-0.257556 1.144251,-0.166201 0.319492,0.101403 0.654623,0.0079 0.860383,-0.240009 0.269639,-0.324896 0.415116,-0.341316 0.727444,-0.08211 0.314407,0.260934 0.454885,0.235818 0.721668,-0.129029 0.51128,-0.699217 0.710099,-0.54001 0.529282,0.42383 -0.198256,1.056794 0.444289,1.860169 0.873853,1.092581 0.286575,-0.512083 1.667907,-0.33401 2.178148,0.280793 0.166216,0.200278 0.491631,0.291454 0.723144,0.202614 0.271223,-0.104078 0.355567,-0.05576 0.237144,0.135851 -0.383518,0.620546 0.164274,1.648591 1.183763,2.221576 1.166967,0.655872 1.20357,0.764098 0.580194,1.715491 -0.432234,0.659671 -0.427098,0.704615 0.132291,1.15758 0.652065,0.52801 0.745979,1.319634 0.251256,2.117896 -0.270023,0.435697 -0.262337,0.576208 0.04187,0.765506 0.297909,0.185379 0.385635,1.355628 0.43763,5.837926 l 0.06503,5.60607 0.714789,0.746079 0.714789,0.746079 -0.190421,3.395942 c -0.156835,2.796997 -0.305368,3.641402 -0.842161,4.787663 -0.358457,0.765445 -0.749199,2.075133 -0.868316,2.910416 -0.119116,0.835284 -0.553497,2.352135 -0.96529,3.37078 -0.411793,1.018646 -0.716188,2.002796 -0.676435,2.186999 0.03975,0.184204 -0.0822,0.303267 -0.271009,0.264584 -0.197692,-0.0405 -0.377427,0.224067 -0.42378,0.623804 l -0.08049,0.694137 1.551459,-0.429553 c 0.853303,-0.236255 1.8676,-0.637913 2.253995,-0.892575 0.842287,-0.555127 1.424107,-0.571797 2.308652,-0.06615 0.363802,0.207968 1.081409,0.382343 1.594681,0.3875 0.676133,0.0068 1.186355,0.243944 1.852083,0.860849 0.505374,0.468311 1.275912,1.033857 1.712308,1.256771 0.436395,0.222913 0.944797,0.724143 1.129782,1.113844 0.184985,0.3897 0.706606,1.020108 1.159157,1.400905 0.766944,0.645341 0.79079,0.715779 0.35115,1.037252 -0.55738,0.407566 -0.33866,0.886674 0.560916,1.228692 0.391593,0.148884 0.635757,0.45424 0.635757,0.795092 0,0.74664 2.260778,3.33173 3.571874,4.08426 0.582084,0.3341 1.705299,0.81632 2.496035,1.07159 0.790735,0.25527 2.576673,1.24061 3.96875,2.18964 4.022051,2.74198 4.428132,2.84464 11.836116,2.99228 2.258574,0.045 3.100446,-0.0349 3.571875,-0.33906 0.339244,-0.21888 1.747901,-0.5443 3.130349,-0.72317 1.382448,-0.17886 3.04156,-0.44378 3.686916,-0.58871 0.645356,-0.14494 1.77645,-0.38114 2.513542,-0.52491 1.40813,-0.27465 7.793211,-0.67351 16.024541,-1.00103 3.170573,-0.12616 5.148335,-0.31894 5.614561,-0.54728 0.574042,-0.28115 0.799724,-0.28616 1.114682,-0.0248 0.316408,0.26259 0.553476,0.24865 1.192554,-0.0702 0.438702,-0.21885 1.032487,-0.3365 1.319523,-0.26144 0.302021,0.079 0.873617,-0.11398 1.356794,-0.45803 l 0.834911,-0.59451 -0.104703,-2.80634 c -0.112437,-3.013618 -0.372988,-3.743623 -1.52625,-4.276216 -0.37067,-0.171181 -0.85254,-0.396151 -1.070822,-0.499933 -0.642086,-0.305278 -1.631739,-3.651867 -1.78599,-6.039462 -0.114494,-1.772205 -0.04887,-2.393604 0.34504,-3.267136 0.484316,-1.074021 0.483679,-1.083871 -0.146843,-2.272417 -0.501701,-0.945716 -0.653435,-1.696144 -0.730341,-3.61203 -0.05339,-1.330071 -0.230258,-2.763399 -0.393039,-3.185175 -0.162782,-0.421775 -0.311935,-1.374275 -0.331451,-2.116666 -0.03049,-1.159712 0.06947,-1.45017 0.70982,-2.062492 0.532661,-0.509351 0.745304,-0.970424 0.745304,-1.616039 0,-0.815023 0.149546,-0.995654 1.529472,-1.847393 0.841209,-0.519224 1.883006,-1.028388 2.315104,-1.131476 0.88774,-0.211793 1.711674,-0.838607 1.711674,-1.302169 0,-0.194887 0.298693,-0.266205 0.804187,-0.192014 0.48474,0.07114 0.983967,-0.03834 1.256771,-0.275617 0.248912,-0.216505 0.970302,-0.459073 1.603062,-0.53904 0.6772,-0.08558 1.42683,-0.399214 1.82223,-0.762395 0.47469,-0.436001 0.7071,-0.517812 0.79226,-0.278881 0.12215,0.342725 1.74567,0.206317 2.32044,-0.194963 0.47058,-0.328537 2.98856,-0.0788 3.61261,0.358305 0.3334,0.233519 0.92985,0.42458 1.32544,0.42458 0.3956,0 0.79285,0.119063 0.88279,0.264583 0.0899,0.145521 0.55952,0.264584 1.04352,0.264584 0.6467,0 0.99489,0.17536 1.3134,0.661458 0.2645,0.403682 0.68271,0.661458 1.07314,0.661458 0.35186,0 0.71333,0.119063 0.80327,0.264584 0.0899,0.14552 0.36485,0.266338 0.61093,0.268483 0.69207,0.006 1.77861,0.66321 1.6984,1.027254 -0.0396,0.179538 0.34739,0.816314 0.85989,1.415056 0.5125,0.598742 0.93182,1.341035 0.93182,1.649539 0,0.308505 0.14288,0.703793 0.3175,0.878417 0.24695,0.246945 0.24695,0.3175 0,0.3175 -0.434,0 -0.39881,0.814036 0.0764,1.766542 0.45103,0.904117 0.42972,3.769112 -0.0324,4.349028 -0.30165,0.378586 -0.7451,2.192583 -1.00379,4.106142 -0.10655,0.788231 -0.0375,1.185137 0.24723,1.42146 0.86545,0.718262 -0.0173,8.122527 -1.11154,9.322791 -0.39548,0.433816 -0.58125,1.082345 -0.67788,2.366516 -0.076,1.010195 -0.37373,2.266004 -0.6941,2.927814 -0.30855,0.63737 -0.561,1.62729 -0.56099,2.19981 0,0.86944 0.15025,1.16082 0.9119,1.76855 0.50154,0.40018 1.08983,0.7276 1.3073,0.7276 0.21746,0 0.47251,0.12477 0.56676,0.27728 0.10427,0.16872 0.61606,0.21059 1.30725,0.10694 0.71572,-0.10733 1.20216,-0.0631 1.31507,0.1196 0.0986,0.15946 0.44005,0.29066 0.75889,0.29156 0.31883,9e-4 0.92072,0.17949 1.33754,0.39687 0.43928,0.2291 1.46151,0.39525 2.43178,0.39525 0.94542,0 1.75327,0.12836 1.85622,0.29494 0.11228,0.18167 0.68185,0.24694 1.48303,0.16996 0.9602,-0.0923 1.4534,-0.008 1.88385,0.32148 0.80518,0.6165 1.46263,0.82586 1.64858,0.52498 0.086,-0.13916 0.77766,-0.25303 1.53702,-0.25303 1.16452,0 1.51666,0.12425 2.24967,0.79375 0.47798,0.43657 1.10765,0.79375 1.39928,0.79375 0.29163,0 0.78309,0.13533 1.09214,0.30073 0.30905,0.1654 1.39891,0.3926 2.42191,0.5049 1.023,0.1123 1.90333,0.33416 1.95629,0.49302 0.0529,0.15887 0.2364,0.28885 0.40767,0.28885 0.17125,0 0.63238,0.29766 1.02473,0.66146 0.39235,0.3638 0.99205,0.66146 1.33267,0.66146 0.37446,0 1.03011,0.42071 1.65838,1.06411 0.60413,0.61869 1.46353,1.17841 2.05307,1.33716 0.55769,0.15017 1.45372,0.66487 1.99118,1.14378 1.47263,1.31221 4.0052,2.87272 5.34282,3.29213 0.65484,0.20532 1.84442,0.38806 2.6435,0.40609 1.43511,0.0324 1.45939,0.0201 1.98438,-1.00573 0.29232,-0.57117 0.91845,-1.38718 1.39139,-1.81334 0.47294,-0.42617 0.85989,-0.91884 0.85989,-1.09482 0,-0.4185 1.44284,-1.79835 1.65676,-1.58443 0.0907,0.0907 0.49914,-0.064 0.9077,-0.34365 0.40856,-0.27967 1.07466,-0.52982 1.48023,-0.55587 0.40556,-0.0261 1.29342,-0.30067 1.973,-0.61026 0.67959,-0.30959 2.07417,-0.72168 3.09907,-0.91576 2.87998,-0.54537 3.84783,-0.94455 3.84783,-1.58699 0,-0.70964 1.05571,-1.70117 1.81129,-1.70117 0.32261,0 0.66359,-0.20073 0.75774,-0.44606 0.0941,-0.24534 0.98337,-1.21226 1.97607,-2.14872 1.68173,-1.58646 1.8049,-1.77964 1.8049,-2.8308 0,-0.91089 -0.12717,-1.21147 -0.66037,-1.56083 -1.10472,-0.72385 -2.23302,-3.315603 -2.42328,-5.566409 -0.0917,-1.084352 -0.29958,-2.022556 -0.46203,-2.084896 -0.18529,-0.0711 -0.32366,-1.174259 -0.37125,-2.959721 -0.0417,-1.565506 -0.25287,-3.609538 -0.46919,-4.542293 -0.21632,-0.932755 -0.3002,-1.839539 -0.18641,-2.015075 0.1138,-0.175537 0.2069,-1.509782 0.2069,-2.96499 0,-1.455209 0.10336,-3.836459 0.22968,-5.291667 0.2057,-2.369671 0.30697,-2.728682 0.97023,-3.439583 0.4073,-0.436563 0.7802,-1.080449 0.82866,-1.43086 0.0588,-0.425146 0.425,-0.811414 1.10073,-1.161028 0.55695,-0.288155 1.11955,-0.805128 1.25022,-1.148828 0.13068,-0.3437 0.42567,-0.624909 0.65553,-0.624909 0.66249,0 2.78215,-1.046312 2.93697,-1.449752 0.0773,-0.201423 0.33927,-0.358984 0.58217,-0.350136 0.24291,0.0088 0.97743,-0.128066 1.63227,-0.304253 0.65484,-0.176187 1.51422,-0.383095 1.90972,-0.459797 0.3955,-0.0767 0.85656,-0.305099 1.02458,-0.507551 0.41044,-0.494551 0.68425,-0.465094 1.57544,0.169495 0.52044,0.370581 0.96571,0.4847 1.4333,0.367341 1.1492,-0.288431 2.97047,0.124735 3.63389,0.82437 0.33524,0.353544 0.80875,0.644865 1.05225,0.647379 0.2435,0.0025 0.78249,0.290466 1.19776,0.639894 0.41527,0.349428 1.03248,0.67685 1.37157,0.727604 0.46351,0.06938 0.71559,0.387777 1.01569,1.282906 0.21955,0.654844 0.47468,1.250156 0.56696,1.322917 0.0923,0.07276 0.29855,0.370416 0.45834,0.661458 0.15981,0.291042 0.54887,0.660259 0.86458,0.820484 0.31572,0.160225 0.65016,0.367443 0.7432,0.460485 0.25029,0.250291 0.64784,2.447842 0.79735,4.407572 0.0722,0.945886 0.22219,1.838855 0.33339,1.984375 0.11119,0.145521 0.10082,1.217084 -0.0231,2.38125 -0.12387,1.164167 -0.15015,3.048228 -0.0584,4.186803 0.24783,3.07516 -0.71867,6.106599 -2.46116,7.719447 -1.67015,1.545891 -2.17885,2.723936 -2.23099,5.166539 -0.0476,2.228019 0.0754,2.638669 0.79,2.638669 0.2582,0 0.55296,0.0835 0.65503,0.18557 0.10206,0.10206 0.66191,0.21005 1.2441,0.23998 0.5822,0.0299 1.22231,0.19032 1.42249,0.35644 0.24991,0.20741 0.41765,0.21512 0.53539,0.0246 0.0943,-0.15259 0.35104,-0.27743 0.57051,-0.27743 0.45662,0 2.46817,1.59563 2.47536,1.96354 0.003,0.13406 0.20489,0.46488 0.44947,0.73514 0.317,0.35028 0.47821,1.12968 0.56137,2.71416 0.10652,2.02948 0.18289,2.28622 0.87822,2.95238 l 0.76155,0.72962 v 3.78994 3.78995 l -1.03666,1.51837 c -0.57017,0.83509 -1.34407,1.807 -1.71979,2.15979 l -0.68313,0.64143 0.006,12.72003 c 0.008,18.13152 -0.53077,56.82574 -0.79898,57.33351 -0.12436,0.23544 -0.25531,4.84211 -0.291,10.23705 -0.0536,8.10776 -4e-4,9.88669 0.307,10.25708 0.59286,0.71436 0.80256,4.29606 0.31341,5.35314 -0.26953,0.58246 -0.3167,0.96369 -0.14098,1.13942 0.32626,0.32626 0.12104,10.30674 -0.21942,10.67201 -0.43097,0.46236 -0.2544,2.07438 0.29078,2.65471 0.46596,0.49599 0.52282,0.91498 0.50498,3.72122 -0.0468,7.35918 0.0135,12.53788 0.16539,14.22297 l 0.16233,1.80026 -12.44969,-0.0468 c -11.26306,-0.0423 -12.51436,-0.004 -13.12812,0.3977 -0.56906,0.37287 -1.31516,0.43618 -4.62832,0.39279 -2.34834,-0.0308 -4.08604,0.0568 -4.28567,0.21597 -0.18467,0.14724 -0.96844,0.32555 -1.74171,0.39624 -1.15426,0.10553 -1.58053,0.29538 -2.38125,1.06051 -0.75815,0.72446 -1.25607,0.96126 -2.23626,1.06352 -0.69353,0.0724 -1.33082,0.0185 -1.41622,-0.11967 -0.0856,-0.13845 -0.64785,-0.17644 -1.25259,-0.0846 -0.72625,0.11025 -0.97387,0.0817 -0.73226,-0.0843 0.25545,-0.17556 0.3115,-0.51787 0.18667,-1.1401 -0.0981,-0.48906 -0.21962,-1.60358 -0.27,-2.47671 -0.0504,-0.87312 -0.20895,-1.88515 -0.35237,-2.24895 -0.14342,-0.36381 -0.34868,-1.43537 -0.45612,-2.38125 -0.10744,-0.94589 -0.29046,-1.90108 -0.40672,-2.12265 -0.11625,-0.22157 -0.28305,-1.21351 -0.37067,-2.20432 -0.28969,-3.27589 -0.93619,-7.08665 -1.17702,-6.93789 -0.0906,0.0559 -0.18002,-5.21494 -0.19878,-11.71307 -0.0188,-6.49813 -0.11229,-12.41009 -0.20783,-13.1377 -0.39287,-2.99184 -0.49706,-3.45888 -0.86505,-3.87758 -0.41597,-0.47331 -1.15364,-2.6891 -1.12337,-3.37436 0.0138,-0.31217 0.0774,-0.2842 0.24599,0.10819 0.16781,0.39052 0.23226,0.17263 0.24598,-0.83159 0.0136,-0.99603 0.13302,-1.40466 0.44549,-1.52457 0.28708,-0.11016 0.37736,-0.35323 0.27566,-0.74214 -0.0832,-0.31808 -0.042,-0.70998 0.0916,-0.87089 0.13354,-0.1609 0.30073,-0.93001 0.37153,-1.70912 0.0708,-0.77911 0.24203,-1.48709 0.38051,-1.57329 0.64242,-0.39991 1.62866,-2.80749 1.6248,-3.96645 -0.003,-0.89144 -0.0737,-1.11111 -0.26421,-0.82049 -0.18516,0.28246 -0.21698,0.1299 -0.11036,-0.52917 0.80382,-4.96886 1.62461,-7.32383 3.427,-9.83263 0.55591,-0.77379 0.85461,-1.43347 0.73472,-1.62261 -0.28262,-0.44585 -0.58458,-5.9188 -0.58596,-10.62057 -8.1e-4,-2.76634 0.18796,-5.26656 0.62928,-8.33437 0.62199,-4.32377 0.62451,-4.42501 0.18795,-7.5517 -0.3636,-2.60412 -0.50166,-3.09945 -0.77435,-2.77812 -0.37646,0.4436 -1.69209,2.32623 -3.16668,4.53141 -1.09007,1.63014 -2.2256,2.3629 -3.3335,2.15111 -0.80402,-0.1537 -2.19874,0.80764 -5.89605,4.06395 -1.40634,1.2386 -2.45391,1.94798 -3.04271,2.06043 -0.49387,0.0943 -3.5446,0.91121 -6.77938,1.81532 l -5.88143,1.64383 -0.0614,7.9375 c -0.0338,4.36562 -0.0525,8.32445 -0.0415,8.79739 0.0137,0.59154 -0.10221,0.8599 -0.37141,0.8599 -0.33456,0 -0.32869,0.0956 0.0405,0.65905 0.65798,1.00421 1.81039,6.10462 1.88365,8.33678 0.0358,1.09141 0.18981,2.46063 0.3422,3.04271 0.1524,0.58208 0.58667,2.66568 0.96506,4.63021 0.37839,1.96453 0.8679,4.40321 1.08782,5.41929 0.35247,1.62858 0.35354,1.88128 0.009,2.13323 -0.32113,0.23482 -0.36957,0.89643 -0.27154,3.70883 0.0656,1.88266 0.23219,4.25646 0.37014,5.2751 0.52425,3.87128 0.72869,11.99751 0.40271,16.0073 -0.0651,0.80036 -0.17558,3.41974 -0.24559,5.82083 -0.12265,4.20645 -0.3036,6.42214 -0.6158,7.54062 -0.0812,0.29105 -0.17906,2.55323 -0.21737,5.02709 -0.0383,2.47385 -0.0123,4.29615 0.0578,4.04956 0.0701,-0.2466 0.28777,-0.38684 0.48371,-0.31165 0.19594,0.0752 0.76504,0.0238 1.26467,-0.11413 0.63372,-0.17498 1.14104,-0.15356 1.6777,0.0708 0.73111,0.30569 1.04776,0.29727 1.9599,-0.0521 0.21828,-0.0836 0.69156,-0.20089 1.05174,-0.26065 0.36017,-0.0598 0.80514,-0.23336 0.98881,-0.38579 0.45923,-0.38113 1.13445,-0.0743 1.13445,0.51559 0,0.26706 -0.41209,0.88497 -0.91575,1.37314 -0.9562,0.92678 -0.99488,1.3329 -0.12697,1.3329 0.28245,0 0.51355,0.10203 0.51355,0.22673 0,0.1247 -1.41205,0.16858 -3.13788,0.0975 -2.17685,-0.0897 -3.19455,-0.0375 -3.32291,0.17014 -0.10176,0.16466 -0.528,0.29938 -0.94719,0.29938 -0.68588,0 -0.77255,-0.0993 -0.86595,-0.99219 l -0.10378,-0.99219 -0.0445,1.06817 c -0.0539,1.29365 -0.71461,1.49582 -1.64655,0.50381 l -0.60104,-0.63977 -31.50834,0.005 -31.508331,0.005 -0.31447,-1.79418 c -0.172958,-0.98681 -0.321786,-2.6574 -0.330729,-3.71242 -0.0089,-1.05503 -0.121544,-1.91823 -0.250226,-1.91823 -0.132132,0 -0.193232,-3.13812 -0.140377,-7.2099 0.173178,-13.34126 0.139983,-17.25261 -0.158116,-18.63094 -0.219201,-1.01352 -0.217197,-1.90269 0.0078,-3.43958 0.166857,-1.13999 0.40374,-2.90614 0.526406,-3.92479 0.122667,-1.01864 0.577344,-3.16177 1.010393,-4.7625 0.43305,-1.60073 0.897392,-3.68432 1.031873,-4.63021 l 0.244511,-1.71979 0.462516,1.05833 c 0.254384,0.58209 0.598178,1.37717 0.763987,1.76686 0.165809,0.38969 0.382599,0.65838 0.481757,0.5971 0.09916,-0.0613 -0.17496,-0.97543 -0.60915,-2.03144 l -0.789436,-1.92001 0.308302,-3.1485 c 0.190189,-1.94228 0.466886,-3.39053 0.722242,-3.78026 0.359799,-0.54912 0.372668,-0.93325 0.09839,-2.93691 -0.173552,-1.26784 -0.436696,-4.2697 -0.584765,-6.67079 -0.148069,-2.4011 -0.370554,-5.91344 -0.494412,-7.80521 -0.123857,-1.89177 -0.353689,-5.46318 -0.510736,-7.93647 -0.157048,-2.47329 -0.341459,-4.85454 -0.409801,-5.29167 -0.06834,-0.43713 -0.194581,-3.65228 -0.280529,-7.14478 -0.15716,-6.38623 -0.444083,-9.85996 -0.878531,-10.63628 -0.128993,-0.2305 -0.176517,-0.64093 -0.105611,-0.91208 0.07091,-0.27115 -0.0093,-0.65957 -0.178282,-0.86315 -0.168961,-0.20359 -0.232898,-0.66622 -0.14208,-1.02806 0.09082,-0.36185 0.04425,-0.73261 -0.103478,-0.82391 -0.148206,-0.0916 -0.201595,-0.57891 -0.119111,-1.0872 0.09687,-0.59692 0.04417,-0.92119 -0.149713,-0.92119 -0.164561,0 -0.299202,-0.17218 -0.299202,-0.38263 0,-0.32026 -0.226402,-0.30291 -1.389062,0.10644 -0.763985,0.26899 -1.854731,0.68891 -2.423881,0.93316 -0.822173,0.35283 -1.249925,0.38949 -2.081622,0.17838 -0.575743,-0.14614 -1.211403,-0.20255 -1.412578,-0.12535 -0.201176,0.0772 -0.365774,0.0238 -0.365774,-0.11871 0,-0.14249 -0.506015,-0.33744 -1.124479,-0.43322 -1.8904,-0.29275 -12.662336,-3.68696 -15.015104,-4.73122 -2.787403,-1.23717 -3.39944,-1.46422 -3.54759,-1.31607 -0.08612,0.0861 -0.156576,0.0106 -0.156576,-0.16772 0,-0.17836 -0.108893,-0.25699 -0.241985,-0.17474 -0.133092,0.0823 -0.28192,0.0449 -0.330729,-0.0829 -0.04881,-0.12787 -0.709825,-0.54531 -1.468924,-0.92764 -1.336992,-0.6734 -1.40873,-0.68154 -2.292662,-0.26002 l -0.912483,0.43513 -2.197098,-1.28807 c -1.208404,-0.70843 -2.3317,-1.30782 -2.496214,-1.33197 -0.164515,-0.0241 -0.523052,0.32989 -0.79675,0.78675 -0.400769,0.66896 -0.506638,1.42291 -0.543897,3.87336 -0.028,1.84146 -0.270134,4.19172 -0.613317,5.95312 -0.549443,2.82004 -0.799693,9.02524 -0.390669,9.68706 0.08967,0.14509 0.322643,1.12048 0.517717,2.16754 0.195074,1.04705 0.842951,3.51108 1.439726,5.47561 0.596776,1.96453 1.204306,4.52437 1.350067,5.68854 0.145761,1.16417 0.485747,2.9501 0.755524,3.96875 0.747463,2.82232 0.925461,4.62132 0.942433,9.525 0.01413,4.08248 0.06944,4.60788 0.598895,5.68854 0.32083,0.65484 0.588454,1.54781 0.594719,1.98438 0.0063,0.43656 0.3147,1.62718 0.685409,2.64583 0.440767,1.21115 0.746891,2.77114 0.884597,4.50785 0.140291,1.76931 0.377097,2.96154 0.709464,3.57187 0.410184,0.75323 0.498885,1.48065 0.498885,4.09126 0,3.0872 0.02481,3.22362 0.895639,4.92501 0.795782,1.55476 0.878092,1.90873 0.738254,3.17485 -0.272736,2.46941 -0.651318,5.25058 -1.346484,9.89166 -0.370547,2.47385 -0.692313,5.62901 -0.715035,7.01146 -0.02272,1.38244 -0.102263,2.21588 -0.176759,1.85208 -0.229353,-1.12005 -0.805337,2.7628 -0.84384,5.68854 -0.01915,1.45521 -0.189952,3.51264 -0.379557,4.57207 -0.189604,1.05942 -0.288523,2.22028 -0.21982,2.57968 0.0687,0.3594 0.01244,0.65346 -0.125022,0.65346 -0.350949,0 -0.895159,6.54611 -0.918336,11.04635 -0.01663,3.22873 -0.07862,3.77032 -0.431551,3.77032 -0.226673,0 -0.662354,0.23507 -0.96818,0.52237 -0.538275,0.50569 -0.99463,0.52304 -14.277454,0.54304 -9.277138,0.014 -13.811595,-0.0695 -13.999859,-0.25779 -0.435719,-0.43572 -2.961888,-0.34636 -3.3476199,0.11842 -0.2857155,0.34426 -2.315452,0.39664 -15.3120841,0.39513 -14.06374,-0.002 -15.027667,-0.0314 -15.715731,-0.4851 z m 180.914268,-4.01107 c 0.0899,-0.14553 0.21603,-0.26459 0.2802,-0.26459 0.0642,0 0.11668,0.11906 0.11668,0.26459 0,0.14552 -0.12609,0.26458 -0.2802,0.26458 -0.15411,0 -0.20661,-0.11906 -0.11668,-0.26458 z m -3.98391,-0.37525 c -0.28224,-0.20638 -0.45383,-0.41474 -0.3813,-0.46302 0.0725,-0.0483 0.37,-0.22552 0.66105,-0.39388 0.29104,-0.16836 0.4994,-0.43625 0.46302,-0.59532 -0.0364,-0.15906 0.11244,-0.2892 0.33073,-0.2892 0.48599,0 0.54483,1.33371 0.0794,1.79917 -0.40522,0.40521 -0.52815,0.39906 -1.15287,-0.0577 z m 6.37742,-0.39868 c -0.17765,-0.28743 0.3757,-1.60732 0.67384,-1.60732 0.11236,0 0.28168,0.24383 0.37627,0.54186 0.25718,0.81033 -0.64319,1.72387 -1.05011,1.06546 z m -3.70792,-2.33018 c -1.07622,-0.99827 -0.35112,-1.12141 1.36011,-0.23097 0.91958,0.4785 1.11658,0.66805 0.70355,0.67692 -0.31552,0.007 -0.73224,0.0731 -0.92605,0.14738 -0.1938,0.0743 -0.70573,-0.19272 -1.13761,-0.59333 z m -4.63871,-1.3782 c 0,-0.409 0.49686,-0.59069 1.09566,-0.40064 0.44157,0.14015 0.48352,0.22785 0.19607,0.4099 -0.48696,0.30841 -1.29173,0.30264 -1.29173,-0.009 z m -5.55625,-1.44251 c 0,-0.25099 0.792,-0.37749 0.93318,-0.14905 0.086,0.13917 -0.0888,0.25303 -0.3884,0.25303 -0.29963,0 -0.54478,-0.0468 -0.54478,-0.10398 z m 3.43958,-0.95435 c -0.30816,-0.19915 -0.23074,-0.25739 0.34634,-0.26053 0.42892,-0.002 0.67407,0.10784 0.5797,0.26053 -0.20303,0.32851 -0.4177,0.32851 -0.92604,0 z m 3.89172,-0.6944 c -0.39311,-0.39311 -0.15781,-0.62852 0.62825,-0.62852 0.53434,0 0.77822,0.11411 0.70688,0.33073 -0.12355,0.37514 -1.05093,0.58199 -1.33513,0.29779 z m 3.88868,-1.19782 c -0.10358,-0.1676 0.0171,-0.45497 0.26828,-0.6386 0.5333,-0.38996 3.85757,-0.48062 3.85757,-0.1052 0,0.2384 -0.89526,0.38243 -1.89224,0.30441 -0.24037,-0.0188 -0.58237,0.14092 -0.76,0.35496 -0.38519,0.46411 -1.20975,0.51136 -1.47361,0.0844 z m -11.23829,-1.2444 -0.6061,-0.49079 0.93815,-0.176 c 1.60983,-0.302 2.38194,0.27965 1.12902,0.85052 -0.84343,0.38429 -0.74417,0.39677 -1.46107,-0.18373 z m -1.32341,-3.10375 c -0.30578,-0.36844 -0.28815,-0.48262 0.12065,-0.78155 0.55164,-0.40336 1.10973,-0.26443 1.33913,0.33337 0.18555,0.48353 0.18423,0.48525 -0.54373,0.70853 -0.36061,0.1106 -0.68461,0.0185 -0.91605,-0.26035 z m 14.96398,-1.23411 c 0.26191,-1.06043 0.50002,-1.42331 1.12856,-1.71993 0.47976,-0.22642 0.78649,-0.24495 0.97266,-0.0588 0.36623,0.36623 -0.0755,1.03907 -1.06256,1.61855 -0.94575,0.55521 -1.14378,0.58575 -1.03866,0.16016 z M 44.931388,238.54374 c 0.0127,-0.30823 0.07539,-0.37092 0.159852,-0.15985 0.07643,0.19099 0.06703,0.4192 -0.02089,0.50711 -0.08792,0.0879 -0.150453,-0.0683 -0.138964,-0.34726 z m 0.02089,-3.02066 c 0,-0.3638 0.06005,-0.51263 0.133452,-0.33073 0.0734,0.1819 0.0734,0.47956 0,0.66146 -0.0734,0.1819 -0.133452,0.0331 -0.133452,-0.33073 z M 40.19958,167.92204 c 0.0054,-0.43656 0.06469,-0.58313 0.131774,-0.32569 0.06708,0.25743 0.06267,0.61461 -0.0098,0.79375 -0.07248,0.17913 -0.127362,-0.0315 -0.12197,-0.46806 z"
       id="path27"
       clip-path="url(#clipPath35)"
       transform="matrix(1.0558959,0,0,1.0558959,-11.240734,29.94158)" /><path
       style="opacity:0.996885;fill:#995138;stroke-width:0.264583"
       d="m 81.014736,211.04547 -0.101225,-0.33742"
       id="path28" /><path
       style="opacity:0.996885;fill:#000000;stroke-width:0.264583"
       id="path29"
       d="m 79.913471,209.32212 c 0.0054,0.0416 -0.0016,0.0813 -0.01834,0.11942 -0.0055,0.0126 -0.01365,0.0241 -0.01839,0.0371 -0.0066,0.018 -0.01733,0.0721 -0.02122,0.0905 -0.004,0.017 -0.02056,0.0865 -0.02389,0.10391 -0.0036,0.0186 -0.0052,0.0375 -0.009,0.056 -0.004,0.0193 -0.01048,0.0381 -0.01458,0.0574 -0.01455,0.0685 -0.01344,0.0803 -0.02053,0.15349 -0.02646,0.084 -0.04219,0.17118 -0.08103,0.25095 -0.01146,0.0235 -0.02661,0.0451 -0.04001,0.0676 -0.03951,0.0664 -0.03438,0.0576 -0.07265,0.12 -0.02847,0.0495 -0.05057,0.10218 -0.07585,0.15326 -0.01614,0.0326 -0.03374,0.0632 -0.04726,0.097 -1.9e-4,5.3e-4 -0.01664,0.0419 -0.01699,0.045 -0.0019,0.0175 0.0064,0.0448 0.0098,0.0607 0.01929,0.0912 -0.0068,-0.0243 0.01728,0.0803 0.0034,0.0169 0.0072,0.0337 0.01029,0.0506 0.0034,0.0186 0.0053,0.0375 0.0091,0.056 0.01323,0.0636 0.02516,0.0894 0.03506,0.15558 0.0041,0.0277 0.0048,0.0557 0.0075,0.0836 0.003,0.0304 0.0064,0.0607 0.0096,0.0911 0.0056,0.0743 -0.01289,0.14552 -0.02585,0.21768 -0.0035,0.0194 -0.0051,0.0391 -0.0087,0.0585 -0.0031,0.0166 -0.009,0.0326 -0.01156,0.0493 -0.0026,0.0168 -0.0024,0.034 -0.0036,0.0509 -0.0011,0.0164 -0.0019,0.0327 -0.0032,0.049 -0.0034,0.0405 -0.0064,0.0491 -0.0074,0.0895 -2.64e-4,0.0154 7.94e-4,0.0309 5.3e-4,0.0463 -5.3e-4,0.0278 -0.0029,0.0572 -0.0049,0.085 -0.0058,0.0671 -0.0067,0.13478 -0.02172,0.20071 -0.01278,0.0213 -0.0035,0.0158 -0.02667,0.0182 1.174287,0.6046 2.344537,1.21709 3.522856,1.81379 0.0131,0.007 -0.01371,-0.026 -0.01931,-0.0396 -0.02854,-0.0691 -0.02212,-0.0576 -0.03423,-0.13301 -0.0046,-0.0289 -0.0091,-0.0579 -0.01365,-0.0868 -0.0033,-0.0312 -0.0053,-0.0626 -0.0098,-0.0936 -0.0054,-0.0365 -0.01545,-0.0722 -0.02008,-0.10875 -0.0049,-0.0391 -0.01423,-0.21535 -0.01691,-0.25055 -0.0038,-0.0504 -0.009,-0.10064 -0.01347,-0.15097 -0.0024,-0.0523 -0.0063,-0.10459 -0.007,-0.15696 -7.94e-4,-0.0509 0.0021,-0.10185 0.0029,-0.15278 0.0016,-0.10224 -7.94e-4,-0.19902 0.0105,-0.30081 0.02814,-0.16654 0.01677,-0.0838 0.03442,-0.24833 -0.0016,-0.11111 0.01677,-0.22044 0.03378,-0.3297 0.0047,-0.0302 0.0083,-0.0607 0.01376,-0.0908 0.0092,-0.0506 0.02175,-0.10055 0.03227,-0.1509 0.01135,-0.0579 0.02931,-0.11375 0.03641,-0.1725 0.0021,-0.0175 0.0027,-0.0352 0.0045,-0.0527 0.0016,-0.0161 0.0063,-0.0319 0.006,-0.048 -2.65e-4,-0.0204 -0.0053,-0.0404 -0.0079,-0.0607 -0.01323,-0.064 -0.01886,-0.0769 -0.02037,-0.14317 -5.29e-4,-0.0232 0.0021,-0.0463 0.0027,-0.0695 5.29e-4,-0.024 -5.29e-4,-0.048 7.94e-4,-0.0719 0.0013,-0.0215 0.0057,-0.0427 0.0077,-0.0642 0.0021,-0.0213 0.0029,-0.0427 0.0043,-0.064 0.0084,-0.0681 0.01691,-0.13612 0.02574,-0.20419 0.0019,-0.014 0.0024,-0.0282 0.0049,-0.0421 0.0024,-0.012 0.0064,-0.0236 0.0096,-0.0354 0.01259,-0.0339 0.0079,-0.0226 0.02109,-0.0533 0.0029,-0.007 0.0052,-0.0138 0.0088,-0.0202 5.29e-4,-0.001 0.0035,-0.003 0.0034,-0.002 -2.65e-4,0.004 -0.0024,0.008 -0.0034,0.0117 -0.0016,0.003 -0.0049,0.005 -0.0044,0.008 0.0013,0.009 0.0024,-0.011 0.01212,-0.0221 0.0019,-0.002 -0.0016,0.005 -0.0024,0.008 0.0041,-0.008 0.0082,-0.016 0.01236,-0.024 0.0013,-0.002 -0.0016,0.007 -0.0011,0.005 0.04613,-0.12589 -0.0177,0.0505 0.02257,-0.0702 0.0044,-0.0133 0.01341,-0.0334 0.0195,-0.0474 0.0182,-0.0364 0.03938,-0.0711 0.05403,-0.1092 0.0039,-0.016 0.0059,-0.0325 0.01,-0.0485 0.0031,-0.0121 0.0088,-0.0236 0.01021,-0.036 -2.65e-4,-0.0611 -0.0021,-0.0322 0.0045,-0.0869 0.01603,-0.0762 -0.0019,5.3e-4 0.02127,-0.0763 0.01209,-0.0403 0.0052,-0.0334 0.02156,-0.0676 0.0089,-0.0187 0.01958,-0.0365 0.02866,-0.0551 0.02654,-0.0664 -0.0079,0.0228 0.01408,-0.0443 0.0026,-0.008 0.007,-0.0152 0.0096,-0.0232 0.0024,-0.008 0.003,-0.0156 0.0054,-0.0232 0.01156,-0.0294 0.0069,-0.0154 0.0145,-0.0416 0.0028,-0.006 0.01273,-0.0265 0.01323,-0.0354 0.0039,-0.0679 -0.01156,0.0206 5.29e-4,-0.0626 0.0037,-0.0254 0.01117,-0.0509 0.01778,-0.0756 0.0062,-0.0321 0.01892,-0.062 0.03131,-0.092 0.0035,-0.008 0.008,-0.0165 0.01035,-0.0254 0.0024,-0.009 0.0026,-0.0193 0.0038,-0.029 0.0037,-0.0112 0.0074,-0.0224 0.01103,-0.0336 0.0047,-0.0101 0.0092,-0.0204 0.01413,-0.0304 0.0046,-0.009 0.0074,-0.0199 0.01445,-0.0274 0.03283,-0.0352 0.08356,0.13171 -0.01042,0.0836 -3.6767,-1.88064 -4.801581,-1.79839 -3.43255,-1.88694 0.007,0.0148 0.01603,0.0287 0.02101,0.0443 0.01421,0.0444 0.01341,0.0746 0.014,0.12076 1.46e-4,0.0113 -7.94e-4,0.13263 -0.0013,0.13883 -0.0024,0.0237 -0.0085,0.0468 -0.01275,0.0702 -0.01458,0.0434 -0.01844,0.0897 -0.03232,0.13329 -0.0063,0.0198 -0.01669,0.0382 -0.02365,0.0578 -0.0069,0.0195 -0.01185,0.0397 -0.01796,0.0595 -0.01955,0.0633 -0.014,0.0458 -0.03635,0.10695 -0.0026,0.019 -0.0051,0.0379 -0.0077,0.0569 -0.0016,0.0223 -0.0021,0.0446 -0.0048,0.0667 -0.0024,0.0208 -0.007,0.0413 -0.01032,0.0619 -0.0034,0.0213 -0.0053,0.0428 -0.01008,0.0637 -0.01066,0.0465 -0.01942,0.0607 -0.03834,0.10243 -0.02021,0.0599 -0.05453,0.11339 -0.07882,0.17149 -0.004,0.016 -0.01574,0.0389 -0.01349,0.0559 5.29e-4,0.004 0.01344,0.0421 0.01365,0.0427 0.0074,0.0295 0.01299,0.0599 0.01487,0.0903 5.29e-4,0.0102 -2.65e-4,0.0204 2.65e-4,0.0306 0.0035,0.0524 0.0048,-0.006 0.0021,0.0504 -0.0084,0.0395 -0.0034,0.01 -0.0066,0.0547 -7.94e-4,0.01 -0.0033,0.0196 -0.0028,0.0295 0.0048,0.10329 0.0082,-0.0217 0.01072,0.0848 2.65e-4,0.0125 -0.0019,0.0249 -0.0027,0.0373 -7.94e-4,0.0121 -0.0019,0.0242 -0.0021,0.0362 -0.0013,0.0493 0.0021,0.0261 -1.45e-4,0.0749 -0.0013,0.0313 -0.0061,0.0624 -0.01003,0.0934 0.0042,0.0558 -1.72e-4,-0.0164 -2.41e-4,0.0449 -1e-5,0.0113 0.0019,0.0226 0.0019,0.0339 -1.8e-5,0.0259 -0.0028,0.049 -0.01008,0.0735 0,0 3.466433,1.81542 3.466433,1.81542 v 0 c -1.93e-4,-0.0519 -0.0011,-0.012 0.003,-0.0693 7.93e-4,-0.01 2.64e-4,-0.0199 0.0016,-0.0298 0.0011,-0.009 0.0044,-0.0186 0.0055,-0.028 0.0029,-0.0234 2.64e-4,-0.0473 0.0061,-0.0704 -0.0038,-0.0339 -0.0085,-0.068 -0.0098,-0.10208 -0.0019,-0.0438 0.0011,-0.0285 5.29e-4,-0.072 -1.19e-4,-0.012 -0.0011,-0.024 -0.0016,-0.0361 -5.29e-4,-0.0123 -0.0024,-0.0247 -0.0016,-0.0369 0.0042,-0.0645 0.0058,-0.004 0.01437,-0.0594 0.0013,-0.009 -2.64e-4,-0.0177 -3.7e-5,-0.0265 0.0019,-0.0535 0.0033,0.003 5.29e-4,-0.0571 0.0032,-0.0469 5.3e-4,-0.0228 0.0083,-0.0722 7.94e-4,-0.0101 -2.64e-4,-0.0203 2.65e-4,-0.0305 0.0016,-0.0259 0.0066,-0.0517 0.0145,-0.0764 0.0046,-0.01 0.01164,-0.0185 0.01333,-0.029 0.0024,-0.014 -0.0095,-0.0349 -0.01246,-0.0483 -0.02159,-0.059 -0.03965,-0.11939 -0.04234,-0.18261 -0.0037,-0.0464 -0.0077,-0.0675 -0.0016,-0.11486 0.0027,-0.0206 0.0087,-0.0407 0.01291,-0.061 0.0042,-0.0202 0.0073,-0.0406 0.01262,-0.0605 0.0096,-0.0362 0.02662,-0.0702 0.03247,-0.10753 7.94e-4,-0.0179 7.94e-4,-0.0359 0.0021,-0.0537 0.0043,-0.0498 0.01098,-0.0709 0.01624,-0.12083 0.0024,-0.0226 0.0016,-0.0455 0.005,-0.068 0.0072,-0.049 0.02516,-0.096 0.02849,-0.1458 0.02559,-0.11626 0.0037,-0.0331 0.04227,-0.14419 0.01429,-0.0412 0.02347,-0.0841 0.03954,-0.12455 0.01677,-0.0422 0.02926,-0.0566 0.05413,-0.0934 0.01852,-0.0214 0.0802,-0.0502 0.0556,-0.0643 -1.150046,-0.65875 -2.311747,-1.29822 -3.49086,-1.90341 -0.02978,-0.0153 -0.02516,0.0624 -0.03239,0.0951 -0.0013,0.006 0.01434,0.0743 0.0033,0.0811 -0.03276,0.11177 0.0218,-0.0681 -0.0249,0.0618 -0.007,0.0196 -0.007,0.0416 -0.01146,0.0617 -0.0027,0.0123 -0.0065,0.0244 -0.01003,0.0366 -0.0033,0.0115 -0.0069,0.023 -0.01035,0.0344 -0.0044,0.0154 -0.01098,0.0425 -0.01908,0.0577 -0.0047,0.009 -0.01117,0.0166 -0.01677,0.0249 -0.0061,0.008 -0.0136,0.0147 -0.01839,0.0235 -0.0077,0.014 -0.0083,0.0294 -0.01027,0.0447 -0.0024,0.009 -0.0049,0.0171 -0.0074,0.0257 -7.94e-4,0.007 -0.0011,0.0145 -0.0028,0.0215 -0.0019,0.008 -0.006,0.0161 -0.0079,0.0244 -0.0019,0.008 -0.0013,0.0159 -0.0032,0.0236 -0.01828,0.0785 -5.29e-4,-0.0234 -0.0132,0.0557 2.51e-4,0.0221 0.0011,0.0359 -0.0021,0.0588 -0.0057,0.0423 -0.0078,0.0348 -0.01662,0.0743 -0.01336,0.0594 0.0028,0.01 -0.02011,0.0711 -0.0052,0.0109 -0.0087,0.0228 -0.01561,0.0327 -0.0047,0.007 -0.01304,0.0103 -0.01865,0.0164 -0.0024,0.003 -0.0032,0.006 -0.0051,0.009 -0.01207,0.019 -0.02511,0.0374 -0.03344,0.0586 -0.0021,0.006 -0.0049,0.012 -0.0061,0.0183 -2.64e-4,0.001 0.0013,0.003 0.0019,0.004 -7.94e-4,0.005 -0.0019,0.009 -0.0027,0.0136 -0.0064,0.0199 -0.01532,0.0392 -0.02323,0.0585 -0.0065,0.0154 -0.01241,0.0373 -0.0208,0.0314 -0.0024,-0.002 -6.4e-5,-0.0106 -0.0026,-0.009 -0.0056,0.004 -0.02326,0.0366 -0.02657,0.0424 0.0047,-0.0126 0.0035,-0.009 -0.01291,0.0226 -0.0071,0.0136 -0.01389,0.027 -0.02021,0.0409 -0.0047,0.0104 -0.0098,0.0207 -0.01466,0.031 -0.003,0.0102 -0.01847,0.0624 -0.01905,0.066 -0.0075,0.0456 0.01738,0.0883 0.0208,0.13312 0.0019,0.0152 0.0047,0.0303 0.0057,0.0456 0.0024,0.0354 -0.0011,0.071 0.0037,0.10626 0.0016,0.0187 0.0045,0.0372 0.0062,0.0558 0.01699,0.19264 -0.01056,-0.0819 0.01045,0.12192 7.94e-4,0.0218 0.0011,0.0437 0.0021,0.0655 0.0013,0.0231 0.0045,0.0461 0.0049,0.0692 5.29e-4,0.0232 -0.0019,0.0464 -0.0026,0.0696 -5.29e-4,0.0235 7.94e-4,0.047 -0.0011,0.0704 -0.0047,0.0597 -0.01124,0.0726 -0.02713,0.12889 -0.0028,0.0171 -0.0078,0.0339 -0.0083,0.0512 -5.29e-4,0.0176 0.0039,0.0351 0.0054,0.0527 0.0016,0.0184 0.0019,0.0369 0.0035,0.0553 0.0062,0.0684 0.0218,0.13514 0.03034,0.20326 0.0083,0.0603 0.0182,0.12042 0.02527,0.18089 0.0041,0.0349 0.0064,0.07 0.0099,0.105 0.0037,0.0366 0.02231,0.20313 0.02453,0.2375 0.0027,0.042 0.0027,0.084 0.004,0.12608 0.0036,0.0442 0.0062,0.0885 0.01072,0.13257 0.0049,0.0481 0.01416,0.0958 0.01757,0.1441 0.0076,0.10697 0.0021,0.19141 -0.0029,0.29821 -0.0024,0.0488 -0.0028,0.0977 -0.0076,0.14629 -0.0046,0.0462 -0.01365,0.0918 -0.02048,0.13772 -0.105796,0.44329 0.04124,-0.17529 -0.05491,0.23688 -0.0079,0.034 -0.01445,0.0684 -0.02476,0.10179 -0.0095,0.0307 -0.02461,0.0594 -0.03458,0.09 -0.05445,0.16673 0.01754,-0.0147 -0.04163,0.12808 -0.02196,0.0446 -0.01511,0.0458 -0.05528,0.0731 -0.0078,0.005 -0.03407,0.007 -0.02572,0.0119 1.169901,0.61796 2.346778,1.22262 3.520165,1.83393 -0.02307,-0.0258 -0.01386,-0.0109 -0.02667,-0.0454 -0.01357,-0.0736 -0.0164,-0.1483 -0.02172,-0.22285 -0.0019,-0.0284 -0.0044,-0.0615 -0.0049,-0.09 -2.41e-4,-0.0153 7.93e-4,-0.0305 5.29e-4,-0.0458 -0.0011,-0.0408 -0.0042,-0.0559 -0.0074,-0.097 -0.0013,-0.0174 -0.0021,-0.0349 -0.0032,-0.0523 -0.0065,-0.0991 0.0016,-0.01 -0.01516,-0.11575 -0.0035,-0.0224 -0.0053,-0.045 -0.0087,-0.0675 -0.0123,-0.081 -0.03024,-0.16156 -0.02596,-0.24423 0.0031,-0.0272 0.0066,-0.0543 0.0095,-0.0815 0.0027,-0.0254 0.003,-0.0511 0.0074,-0.0762 0.01035,-0.0596 0.02045,-0.0654 0.03464,-0.1208 0.004,-0.0155 0.0055,-0.0316 0.0088,-0.0473 0.0029,-0.0136 0.0066,-0.0271 0.0099,-0.0407 0.0059,-0.0205 0.01072,-0.0414 0.01662,-0.0619 0.0021,-0.008 0.01114,-0.0275 0.0099,-0.0376 -0.0016,-0.0131 -0.01283,-0.0239 -0.01365,-0.0372 -0.0093,-0.0289 -0.01955,-0.0576 -0.0249,-0.0876 -0.0081,-0.0458 -0.0081,-0.0924 -0.0048,-0.1386 0.0067,-0.0724 0.01228,-0.14594 0.0321,-0.21627 0.02381,-0.0846 0.06786,-0.15998 0.104264,-0.23927 0.01603,-0.0221 0.03307,-0.0436 0.04812,-0.0664 0.03833,-0.0582 0.02909,-0.0532 0.05988,-0.1131 0.0089,-0.0174 0.01958,-0.0338 0.02847,-0.0511 0.01394,-0.0272 0.02445,-0.0561 0.03906,-0.083 0.01246,-0.0221 0.0272,-0.0431 0.03708,-0.0665 0.0041,-0.01 0.005,-0.0205 0.009,-0.0303 0.01392,-0.0343 0.0314,-0.056 0.06609,-0.0698 z" /><path
       style="opacity:0.996885;fill:#000000;stroke-width:0.264583"
       id="path30"
       d="m 80.185952,207.46612 c 0.0011,0.0105 0.0036,0.021 0.003,0.0315 -0.0013,0.024 -0.01199,0.0506 -0.01812,0.0734 -0.0091,0.0336 -0.0173,0.0677 -0.02551,0.10161 -0.0114,0.0314 -0.02347,0.062 -0.02841,0.0952 -0.0019,0.0122 -0.0024,0.0246 -0.0045,0.0368 -0.01262,0.0711 -0.0042,-0.004 -0.01005,0.0572 -0.0048,0.0247 -0.0083,0.0492 -0.01437,0.0737 -0.0024,0.009 -0.0057,0.018 -0.007,0.0273 -0.0021,0.0159 -7.94e-4,0.0322 -0.0019,0.0482 -0.0073,0.0316 -0.01736,0.0624 -0.02622,0.0936 -0.0084,0.0294 -0.0096,0.018 -0.0056,0.0354 -0.0016,0.008 -0.004,0.0168 -0.0046,0.0253 -0.0032,0.0469 0.0087,-0.005 -0.0021,0.0499 -0.0019,0.009 -0.0049,0.0174 -0.0072,0.0261 -0.01871,0.0726 0.0026,-0.005 -0.01807,0.0688 -0.0077,0.0384 -0.01177,0.0785 -0.02516,0.11557 -0.0127,0.0352 -0.03458,0.0725 -0.05123,0.10644 -0.0061,0.0142 -0.02574,0.0594 -0.0309,0.0732 -0.01384,0.037 -0.0083,0.0413 -0.03663,0.0727 -0.0078,0.009 -0.01699,0.0266 -0.02754,0.0216 -0.01275,-0.006 -0.0083,-0.027 -0.01241,-0.0405 0.609894,-1.33271 0.03415,-0.20392 3.450582,1.82153 0.01259,0.007 -0.02803,0.0146 -0.04235,0.0116 -0.03107,-0.007 -0.05014,-0.0971 -0.05629,-0.11889 -0.0013,-0.0174 -0.0021,-0.0348 -0.0042,-0.0521 -0.0028,-0.0212 -0.0091,-0.042 -0.01074,-0.0633 -0.0034,-0.0436 0.0032,-0.0647 0.0085,-0.1066 0.0089,-0.0695 -5.29e-4,-0.0245 0.01484,-0.0862 0.0021,-0.012 0.0044,-0.024 0.0067,-0.0361 0.0016,-0.0114 0.0024,-0.023 0.0044,-0.0344 0.0016,-0.01 0.0054,-0.019 0.0067,-0.0287 0.0042,-0.0315 0.0011,-0.0651 -0.0011,-0.0966 -0.0016,-0.0609 -0.02402,-0.1187 -0.02519,-0.17964 -5.29e-4,-0.0296 0.0038,-0.0605 0.0071,-0.0898 0.0045,-0.0402 0.02717,-0.0747 0.03893,-0.11246 0.0024,-0.008 0.0016,-0.0163 0.0026,-0.0245 0.0027,-0.0106 0.007,-0.0259 0.0078,-0.0366 1.48e-4,-0.002 -0.0011,-0.004 -0.0016,-0.006 7.94e-4,-0.004 0.0019,-0.008 0.0026,-0.0113 0.0045,-0.0202 0.0098,-0.0229 0.0026,-0.0185 0.0011,-0.003 0.0028,-0.005 0.0031,-0.008 0.0011,-0.01 -0.0051,-0.0171 -0.0021,-0.0265 0.0013,-0.004 0.0093,-0.0206 0.01225,-0.0268 0.01143,-0.0198 0.02323,-0.0395 0.03304,-0.0602 0.01273,-0.0268 -0.0176,0.0277 0.0092,-0.022 0.0013,-0.002 -0.0021,0.005 -0.003,0.008 0.0016,-0.003 0.0019,-0.008 0.0048,-0.008 0.0029,8e-4 0.0016,0.006 2.65e-4,0.009 -0.01328,0.0298 -0.01431,0.10281 -0.04338,0.0879 -1.17561,-0.60435 -2.331156,-1.24752 -3.480951,-1.89966 -0.01347,-0.008 0.03461,-0.0573 0.04738,-0.0711 0.0094,-8e-4 2.31e-4,0.0108 0.0043,0.0127 0.0031,0.001 0.0044,-0.007 0.0078,-0.007 0.0032,5.3e-4 -0.01011,0.0377 -0.01087,0.04 -0.0024,0.0108 -0.0092,0.0373 -0.0087,0.0485 1.67e-4,0.004 0.0042,0.006 0.0048,0.01 0.0042,0.0247 -7.94e-4,0.0524 -0.003,0.077 -0.004,0.0473 -0.0163,0.0909 -0.0136,0.13863 0.0069,0.0265 0.0046,0.0537 0.0065,0.0808 5.29e-4,0.01 0.0026,0.0192 0.0021,0.0288 -5.3e-4,0.0116 -0.0037,0.0229 -0.0049,0.0344 -0.0011,0.009 -0.0011,0.0189 -0.0016,0.0284 7.94e-4,0.018 -0.0066,0.0358 -0.0055,0.0538 5.29e-4,0.009 0.0058,0.0164 0.0069,0.025 0.0013,0.0105 -7.94e-4,0.0211 -9e-5,0.0316 7.94e-4,0.0142 0.004,0.0282 0.0056,0.0424 5.29e-4,0.005 0.0016,0.01 0.0013,0.015 -5.29e-4,0.009 -0.0035,0.0168 -0.0035,0.0253 -5.8e-5,0.006 0.0024,0.0109 0.0031,0.0164 0.0029,0.0246 0.0051,0.0434 0.0043,0.0682 -0.0033,0.007 0.02146,0.0307 0.02265,0.0362 0.0016,0.007 2.64e-4,0.0144 0.0011,0.0215 5.29e-4,0.005 0.0021,0.009 0.003,0.0142 0.0024,0.003 0.0047,0.006 0.007,0.01 0.0053,0.004 0.01175,0.007 0.01582,0.0127 0.01704,0.0224 0.01947,0.0692 0.02275,0.0963 0.0077,0.0642 0.007,0.12887 0.01159,0.19324 -0.0021,0.0755 -0.0016,-0.0122 0.0046,0.074 7.94e-4,0.0126 -7.93e-4,0.0252 2.7e-5,0.0378 7.94e-4,0.0121 0.0042,0.0238 0.0049,0.0359 0.0016,0.0263 -5.3e-4,0.0435 -0.0028,0.069 -7.94e-4,0.0403 -0.0019,0.0807 -0.01429,0.11949 -0.0067,0.0211 -0.01561,0.0414 -0.02244,0.0624 -0.0019,0.0348 -0.01976,0.0632 -0.03335,0.0939 -0.0053,0.0119 -0.0088,0.0245 -0.01431,0.0363 -0.005,0.0106 -0.01992,0.0342 -0.02697,0.0456 0.0032,-0.005 -0.01968,0.0274 -0.02556,0.0186 -0.01056,-0.0157 0.009,-0.069 0.01095,-0.0739 0.0114,-0.0286 0.01217,-0.0978 0.03948,-0.0836 1.158103,0.60234 2.287154,1.25896 3.430728,1.88844 -0.01138,0.0112 -0.04523,0.0514 -0.06838,0.0538 -0.0016,1.6e-4 -0.03896,-0.0352 -0.04267,-0.0397 -0.02477,-0.0245 -0.02903,-0.0599 -0.03179,-0.093 -0.0011,-0.008 -0.0019,-0.0166 -0.0028,-0.0249 -0.0024,-0.0107 -0.0057,-0.0213 -0.007,-0.0322 -0.0011,-0.01 -2.6e-5,-0.0195 -1.9e-4,-0.0292 -5.29e-4,-0.0315 -0.0024,-0.0573 0.0011,-0.0889 -7.94e-4,-0.0642 -0.0054,-0.12818 -0.0067,-0.19241 0.0013,-0.0348 -0.0024,-0.0695 -0.0027,-0.10423 -5.29e-4,-0.0335 0.0019,-0.0673 0.0024,-0.10083 -0.0027,-0.0537 -0.0019,-0.0176 -5.29e-4,-0.0692 2.19e-4,-0.008 -5.3e-4,-0.0158 2.64e-4,-0.0236 0.0024,-0.0221 0.0096,-0.0451 0.01587,-0.0663 0.0062,-0.044 -0.0047,-0.0873 -0.0057,-0.13111 -5.29e-4,-0.0227 0.0011,-0.0454 0.0013,-0.0681 7.4e-5,-0.0113 1.46e-4,-0.0226 2.17e-4,-0.0339 7.94e-4,-0.0105 0.0019,-0.0209 0.0021,-0.0315 5.29e-4,-0.04 -0.0037,-0.0269 1.6e-5,-0.0656 0.0019,-0.0186 0.0056,-0.0323 0.0097,-0.0502 -0.0013,-0.0141 0.0067,-0.0271 0.0071,-0.0409 6e-5,-0.003 -0.0028,-0.005 -0.0032,-0.007 -7.94e-4,-0.005 7.94e-4,-0.01 -2.64e-4,-0.0148 -0.0013,-0.007 -0.006,-0.0132 -0.007,-0.0202 -0.0013,-0.009 2.65e-4,-0.0181 5.29e-4,-0.0272 0.0067,-0.0347 0.01664,-0.0689 0.02929,-0.10178 0.0046,-0.0195 0.01016,-0.0388 0.0149,-0.0584 0.0013,-0.006 0.0045,-0.0112 0.0039,-0.017 -2.31e-4,-0.002 -0.01312,-0.003 -0.01328,-0.003 5.3e-4,-0.006 0.0013,-0.0119 0.0013,-0.0179 6.4e-5,-0.004 -0.0016,-0.009 -0.0011,-0.0132 0.0034,-0.0246 0.01868,-0.0475 0.02244,-0.0742 0.0019,-0.005 0.0041,-0.01 0.0052,-0.0149 5.29e-4,-0.003 -5.29e-4,-0.006 -8e-6,-0.009 0.0038,-0.018 0.0122,-0.0345 0.02005,-0.0511 0.0095,-0.0389 0.0236,-0.0759 0.03427,-0.11464 -7.94e-4,-0.001 -0.0027,-0.002 -0.0028,-0.003 -7.94e-4,-0.0183 0.0046,-0.0157 0.0063,-0.0344 1.08e-4,-0.001 -0.0024,-0.002 -0.0024,-0.003 0.0011,-0.0237 0.0056,-10e-4 0.0013,-0.0179 0.0056,-0.0257 0.02101,-0.0484 0.02725,-0.0738 2.2e-4,-7.9e-4 -0.0013,-0.001 -0.0021,-0.002 0.0011,-0.004 0.0021,-0.007 0.003,-0.0107 -0.01169,0.0122 0.0068,-0.0244 0.0071,-0.0249 0.0011,-0.002 0.0047,-0.005 0.0051,-0.003 0.0011,0.005 5.29e-4,0.0114 -0.0024,0.0161 -0.04399,0.0756 -0.09147,0.14914 -0.137208,0.22371 -1.123688,-0.68915 -2.247379,-1.37831 -3.371067,-2.06746 0.02474,0.008 -0.0164,-0.003 0.02177,-0.005 0.01138,-7.9e-4 -0.0073,0.0219 0.0078,0.0175 0.0081,0.006 -0.01992,0.0564 -0.01799,0.0727 -0.01384,0.0331 -0.02601,0.0668 -0.03487,0.10157 0.01699,5.3e-4 0.0042,0.0239 0.0046,0.0347 1.22e-4,0.003 0.0035,0.005 0.0037,0.008 0.0013,0.0231 -0.0058,0.009 -7.94e-4,0.0179 -0.01114,0.0286 -0.01992,0.0564 -0.02905,0.0855 0.0035,0.0126 5.29e-4,-0.001 -0.0034,0.0251 -2.65e-4,0.002 0.0013,0.004 7.93e-4,0.006 -0.0019,0.01 -0.007,0.0221 -0.01109,0.0309 -0.0026,0.005 -0.01677,0.0348 -0.01826,0.0395 -0.0011,0.004 -6.6e-5,0.008 -7.94e-4,0.0114 -0.0013,0.008 -0.0044,0.0155 -0.0055,0.0235 -0.0063,0.0455 0.01056,-0.0237 -0.0048,0.0332 -0.007,0.025 -0.01542,0.0474 -0.02648,0.0708 -0.0088,0.022 -0.02156,0.0437 -0.02424,0.0677 -1.93e-4,0.002 0.0032,0.002 0.0033,0.004 5.29e-4,0.005 -0.0053,0.0238 -0.0062,0.0273 -0.003,0.0103 -0.0091,0.0287 -0.0091,0.039 3e-6,0.002 0.0038,0.001 0.0041,0.003 0.0019,0.009 -0.0073,0.0406 -0.0096,0.0504 0.0063,0.0163 0.0016,5.3e-4 0.0013,0.0275 -5e-6,5.3e-4 0.0016,5.3e-4 0.0016,0.001 -0.0021,0.0161 -0.01027,0.0291 -0.01058,0.0455 -0.0024,0.0434 -0.01971,0.0779 -0.03512,0.11758 -0.0011,0.007 0.0048,0.0133 0.0049,0.0203 2.64e-4,0.0145 -0.0057,0.0449 -0.0079,0.0587 -0.0099,0.0633 0.0095,-0.0528 -0.0069,0.044 -0.0031,0.0228 -0.01013,0.0449 -0.01445,0.0674 -0.0011,0.005 -5.29e-4,0.0105 -0.0019,0.0156 -0.0021,0.009 -0.0059,0.0174 -0.0086,0.0262 -0.0021,0.006 -0.0042,0.0129 -0.0066,0.0193 -0.0059,0.0157 -0.01397,0.0307 -0.01797,0.047 -0.0045,0.0183 -0.0089,0.024 -0.0038,0.0168 -0.03518,-0.0261 0.0019,0.0218 -0.0053,0.0208 -0.0031,-5.3e-4 -0.0028,-0.0138 0.0026,-0.0265 0.0099,-0.0238 0.01064,-0.0815 0.03361,-0.0697 1.177655,0.60321 2.331341,1.2521 3.497013,1.87815 -0.01542,0.0178 -0.0273,0.0394 -0.04628,0.0533 -0.0047,0.003 -0.01161,-0.004 -0.01558,-0.008 -0.01603,-0.0171 -0.01556,-0.0601 -0.01463,-0.0817 -0.0062,-0.04 0.0011,-0.0791 0.0084,-0.11823 -5.29e-4,-0.006 -0.0013,-0.0123 -0.0016,-0.0185 -0.0019,-0.0111 0.0019,-0.0221 0.0016,-0.0332 -7.94e-4,-0.0226 -0.007,-0.0461 -0.01069,-0.0684 -0.0019,-0.0366 0.0076,-0.0722 0.01355,-0.10794 0.0034,-0.024 0.0062,-0.0482 0.003,-0.0723 -2.17e-4,-0.004 8e-6,-0.009 -5.29e-4,-0.0134 -7.93e-4,-0.006 -0.0031,-0.0118 -0.004,-0.0178 -0.0031,-0.0206 -2.65e-4,-0.0419 0.0016,-0.0624 0.0046,-0.0283 -2.64e-4,-0.0567 -5.29e-4,-0.0851 -5.29e-4,-0.006 -7.94e-4,-0.0111 -0.0013,-0.0167 -0.0019,-0.0198 -0.0024,-0.0159 -0.0016,-0.0353 2.03e-4,-0.005 7.93e-4,-0.0105 0.0011,-0.0158 5.29e-4,-0.005 0.0031,-0.01 0.0016,-0.0147 -7.93e-4,-0.002 -0.0038,0.002 -0.0057,0.003 -5.29e-4,-0.003 5.29e-4,-0.007 -0.0019,-0.01 -0.0013,-0.001 -0.0049,0.003 -0.0054,0.002 -0.0043,-0.0149 0.01333,-0.0452 0.01125,-0.0647 0.0042,-0.0182 0.01278,-0.0349 0.01561,-0.0535 2.65e-4,-0.002 -0.0016,-0.004 -0.0016,-0.006 5.3e-4,-0.006 0.0072,-0.0245 0.0087,-0.0287 -7.93e-4,-2.7e-4 -0.0021,-2e-4 -0.0021,-0.001 0.0019,-0.0148 0.01191,-0.0316 0.01693,-0.0454 0.0088,-0.0242 0.006,-0.016 0.0118,-0.043 -0.0024,-0.0124 0.009,-0.0249 0.0068,-0.0374 -5.29e-4,-0.002 -0.0044,-0.002 -0.0067,-0.002 -8.2e-5,-0.004 -2.64e-4,-0.007 -2.49e-4,-0.0108 5.3e-4,-0.0271 0.0037,-0.0154 -0.0024,-0.0311 5.29e-4,-0.0171 0.01008,-0.0321 0.01357,-0.0484 1.83e-4,-7.9e-4 -0.0019,-0.001 -0.0019,-0.002 5.29e-4,-0.004 0.0081,-0.0239 0.0085,-0.025 0.0021,-0.006 0.0052,-0.0114 0.0063,-0.0175 5.29e-4,-0.003 -0.0079,0.002 -0.0081,-2.7e-4 -2.65e-4,-0.005 0.0031,-0.009 0.0039,-0.0133 0.0076,-0.0424 -0.0063,0.007 0.0087,-0.0405 0.01154,-0.0297 0.01786,-0.0605 0.02752,-0.0905 0.01029,-0.0305 0.02323,-0.0598 0.03235,-0.0908 0.01929,-0.0328 0.03257,-0.0602 0.03789,-0.0983 0.01479,-0.022 0.03017,-0.0441 0.0384,-0.0694 0.0058,-0.0378 0.02418,-0.0696 0.04315,-0.1021 0.01529,-0.022 0.02658,-0.0455 0.03607,-0.0704 0.0021,-0.0124 0.01355,-0.0203 0.0177,-0.0317 0.0016,-0.004 0.0011,-0.009 0.0024,-0.0132 0.004,-0.0121 0.0131,-0.021 0.02177,-0.0298 0.0031,-0.003 0.0067,-0.005 0.0092,-0.008 0.0026,-0.003 0.003,-0.008 0.0055,-0.0116 0.01315,-0.0191 0.03399,-0.0325 0.05052,-0.0484 0.005,-0.004 0.01061,-0.007 0.01508,-0.0121 0.02426,-0.0252 -0.0016,-0.007 0.0278,-0.0333 0.0063,-0.006 0.01389,-0.01 0.02061,-0.0146 0.0086,-0.006 0.01601,-0.0147 0.02532,-0.0201 0.0068,-0.004 0.01484,-0.005 0.02225,-0.007 0.06818,-0.0279 -0.02296,0.0118 0.05498,-0.032 0.0058,-0.003 0.01299,-0.003 0.01926,-0.006 0.0072,-0.003 0.01405,-0.006 0.02106,-0.01 0.0071,-0.004 0.01365,-0.009 0.02125,-0.0126 0.0048,-0.002 0.01019,-0.002 0.01527,-0.003 0.01214,-0.0216 0.03473,-0.0238 0.05151,-0.0389 0.0038,-0.003 0.0059,-0.009 0.01013,-0.0118 0.0028,-0.002 0.0067,-0.002 0.01008,-0.003 0.0053,-0.005 0.01064,-0.0104 0.01595,-0.0156 0.03477,-0.0245 0.07149,-0.0464 0.10778,-0.0687 0.0068,-0.005 0.01294,-0.0102 0.02027,-0.0138 0.02986,-0.0146 0.0026,0.002 0.02672,-1.5e-4 0.02151,-0.002 0.05013,-0.0302 0.06355,-0.0425 0,0 -3.368834,-2.10749 -3.368834,-2.10749 v 0 c 0.0051,-0.005 0.0099,-0.0102 0.01516,-0.0148 2.65e-4,-2.6e-4 5.29e-4,0.001 2.35e-4,0.001 -0.0039,0.003 -0.0088,0.006 -0.01251,0.009 -0.01646,0.0154 -0.02884,0.0355 -0.04954,0.046 -0.03855,0.0263 -0.07847,0.0505 -0.118025,0.0752 -0.03626,0.0151 0.0034,-0.003 -0.0377,0.0248 -0.02609,0.018 -0.01159,0.002 -0.02912,0.0173 -0.0043,0.004 -0.0075,0.009 -0.01236,0.0124 -0.0016,0.001 -0.0039,-2.7e-4 -0.0058,-5.3e-4 -0.01426,0.0156 -0.0295,0.028 -0.04472,0.0425 -0.0072,0.007 -0.01381,0.0146 -0.02138,0.0212 -0.0041,0.004 -0.009,0.006 -0.01344,0.009 -0.0073,0.007 -0.01466,0.0135 -0.02199,0.0203 -0.02709,0.0251 -0.05557,0.0474 -0.08576,0.0687 -0.01998,0.0141 -0.04228,0.0249 -0.06159,0.0399 -0.0071,0.006 -0.01288,0.0126 -0.01931,0.0188 -0.0081,0.008 -0.01675,0.0146 -0.02445,0.0226 -0.01116,0.0116 -0.02016,0.0252 -0.03097,0.0372 -0.01326,0.0147 -0.02935,0.0267 -0.04244,0.0415 -0.0057,0.006 -0.0095,0.0142 -0.01426,0.0213 -0.0149,0.023 -0.02903,0.0471 -0.04559,0.069 -0.0053,0.007 -0.01188,0.013 -0.01677,0.0202 -0.0047,0.007 -0.0097,0.0195 -0.01323,0.028 -0.0223,0.0321 -0.03898,0.0666 -0.05158,0.10358 -0.0021,0.0352 -0.03788,0.0627 -0.05257,0.0936 -0.01749,0.0296 -0.01847,0.0655 -0.03774,0.0949 -0.01082,0.0192 -0.02098,0.0378 -0.02678,0.0592 -7.94e-4,0.003 2.65e-4,0.006 -2.64e-4,0.01 -0.0011,0.005 -0.0031,0.0104 -0.0047,0.0156 -1.4e-4,2.7e-4 -0.01797,0.0386 -0.01953,0.0431 -0.0013,0.004 -0.0013,0.009 -0.0028,0.013 -0.0021,0.006 -0.0059,0.0119 -0.0082,0.0181 -0.01722,0.0479 0.01738,-0.0317 -0.01259,0.0343 -0.01,0.0191 -0.01926,0.0393 -0.02532,0.0601 -0.0013,0.005 -0.0011,0.01 -0.0024,0.0144 -0.0088,0.0299 -0.007,0.008 -0.0077,0.0292 -0.0079,0.0245 0.0021,-0.002 -0.01291,0.0245 -0.0024,0.004 -0.0032,0.009 -0.0053,0.0131 -0.0096,0.019 -0.0181,0.0282 -0.02336,0.049 -5.29e-4,0.002 0.0011,0.004 0.0016,0.007 -5.3e-4,0.0193 -0.0084,0.0337 -0.01188,0.0527 -7.94e-4,0.004 0.0011,0.008 0.0011,0.0123 1.56e-4,0.0155 -0.0016,0.0189 -0.0047,0.0351 -0.0065,0.0186 -0.01082,0.037 -0.01693,0.0555 -0.0029,0.009 -0.008,0.017 -0.01013,0.0261 -5.3e-4,0.002 0.0029,0.013 0.0035,0.0153 0.01693,0.0158 -0.0011,0.042 -0.0061,0.0588 -5.29e-4,0.0219 -0.0066,0.0301 -0.0113,0.0513 -0.0016,0.008 0.0055,0.03 -0.0021,0.0364 -0.0026,0.008 -0.0059,0.016 -0.0078,0.0243 -0.0016,0.007 0.0031,0.0146 -0.0016,0.0213 -0.0021,0.008 -0.01723,0.0464 -0.01741,0.0469 -0.0021,0.007 -0.0037,0.0133 -0.0055,0.0199 -0.0028,0.0105 -0.0068,0.0207 -0.0084,0.0315 -0.0016,0.011 0.0021,0.022 0.0026,0.0331 7.94e-4,0.0199 2.64e-4,0.0142 -0.0016,0.0335 -5.29e-4,0.005 -7.93e-4,0.0102 -0.0013,0.0153 -2.22e-4,0.0282 -0.0051,0.0564 -5.29e-4,0.0846 0.0019,0.0208 0.0052,0.0432 0.0016,0.064 -7.94e-4,0.005 -0.0032,0.009 -0.004,0.0137 -7.93e-4,0.004 -5.29e-4,0.008 -5.29e-4,0.0127 -0.0038,0.025 5.29e-4,0.0504 0.003,0.0754 0.0058,0.0404 0.01476,0.0807 0.01355,0.12167 -0.0037,0.0184 -0.01005,0.0383 -0.01071,0.0572 -5.3e-4,0.0115 0.0032,0.0229 0.0016,0.0345 -2.27e-4,0.006 -0.0011,0.011 -0.0016,0.0166 0.0067,0.0431 0.01429,0.0864 0.0083,0.13015 0.0041,0.0872 -0.02228,0.12395 -0.06715,0.20162 0.968581,0.52176 2.92372,3.08105 3.542263,1.81235 0.01471,-0.0302 0.01003,-0.0322 0.02058,-0.0603 0.0029,-0.008 0.0072,-0.015 0.01032,-0.0227 0.0013,-0.004 0.0021,-0.007 0.0032,-0.011 0.0057,-0.0161 0.01688,-0.0464 0.01942,-0.0641 5.29e-4,-0.004 -0.0016,-0.007 -0.0019,-0.0109 -0.0011,-0.0136 7.94e-4,-0.0165 0.0037,-0.0305 0.02712,-0.0964 -0.0055,0.0248 0.01125,-0.0513 0.0021,-0.009 0.0059,-0.0183 0.0079,-0.0277 0.0016,-0.007 0.0016,-0.0143 0.0027,-0.0214 0.008,-0.0481 0.0042,-0.0111 0.0073,-0.047 0.01061,-0.0475 -0.0039,0.0167 0.01125,-0.0461 0.0011,-0.005 0.0013,-0.01 0.003,-0.0144 0.0043,-0.0126 0.01315,-0.0232 0.01863,-0.0353 0.0031,-0.007 0.0049,-0.0141 0.0074,-0.0212 -0.0096,-0.03 -0.0013,-0.0583 0.01154,-0.0864 0.01775,-0.0439 0.0037,-0.003 0.0091,-0.0326 0.0052,-0.0286 0.01805,-0.056 0.02719,-0.0834 -0.0013,-0.0236 0.0076,-0.0378 0.01352,-0.0604 0.0011,-0.004 -0.0049,-0.009 -0.0021,-0.0134 7.93e-4,-0.022 0.0073,-0.0264 0.01212,-0.0473 2.46e-4,-0.001 -0.0021,5.3e-4 -0.0032,1.8e-4 -0.0036,-7.9e-4 -0.0042,-0.003 -0.0064,-0.005 -7.94e-4,-0.0172 0.0086,-0.0303 0.01381,-0.0465 0.0016,-0.005 0.0016,-0.0106 0.003,-0.0157 0.0094,-0.0344 0.0076,-0.013 0.0083,-0.0368 0.0034,-0.0142 0.0091,-0.0265 0.01466,-0.04 0.0021,-0.005 0.0058,-0.01 0.007,-0.0152 7.93e-4,-0.004 -0.01045,-0.005 -0.003,-0.0105 0.0094,-0.0325 -0.0039,0.0114 0.01434,-0.0375 0.0016,-0.005 0.0021,-0.01 0.0038,-0.0142 0.0066,-0.0178 0.01532,-0.0348 0.0217,-0.0528 -0.0032,-0.0122 0.0083,-0.0339 0.01037,-0.0438 2.65e-4,-0.002 -0.0016,-0.003 -0.0016,-0.004 -5.29e-4,-0.0108 0.0024,-0.0185 0.0052,-0.0292 0.0034,-0.009 0.0069,-0.0186 0.01032,-0.0279 0.0013,-0.006 0.0021,-0.0119 0.0041,-0.0176 0.0028,-0.008 0.0073,-0.0159 0.0099,-0.0242 0.0013,-0.004 5.29e-4,-0.008 0.0016,-0.0121 0.0019,-0.007 0.01503,-0.0358 0.01556,-0.037 -0.0084,-0.0163 -0.01561,-0.0194 -0.0082,-0.0409 0.0026,-0.008 0.0052,-0.0162 0.0079,-0.0243 -0.0024,-0.001 -0.0032,-0.001 -0.0024,-0.005 0.0051,-0.0219 0.01611,-0.0418 0.02201,-0.0634 0.0036,-0.01 0.0078,-0.0196 0.0108,-0.0296 0.01225,-0.0417 -0.0099,0.0118 0.01,-0.0397 0.0047,-0.0122 0.01093,-0.0237 0.01553,-0.0359 0.0027,-0.007 0.0042,-0.0146 0.0063,-0.0219 -1.124636,-0.69642 -2.249271,-1.39284 -3.373906,-2.08926 -0.04681,0.0744 -0.09571,0.14749 -0.140412,0.22315 -0.0045,0.008 -0.0051,0.0171 -0.0067,0.0258 -0.0013,0.007 7.93e-4,0.0139 -5.29e-4,0.0206 -0.0026,0.0112 -0.01257,0.0312 -0.01606,0.0389 -0.0028,0.0125 -0.0089,0.0242 -0.01122,0.0368 -2.65e-4,0.002 0.0021,0.004 0.0028,0.006 0.0038,0.0105 0.0011,0.0205 -0.0027,0.0307 -0.02056,0.0435 -0.0034,0.003 -0.01431,0.0385 -0.0027,0.009 -0.0069,0.017 -0.0092,0.0258 -0.0011,0.004 -1.3e-5,0.008 -5.29e-4,0.0112 -0.0013,0.007 -0.01098,0.0352 -0.01162,0.0372 0.0013,0.003 0.0035,0.006 0.0042,0.01 0.003,0.0164 -0.0059,0.0315 -0.0091,0.0469 -2.17e-4,0.001 0.0019,-0.001 0.0026,-0.002 1.19e-4,0.0187 -0.0079,0.0317 -0.01373,0.0495 -0.0016,0.005 -0.0019,0.0106 -0.0035,0.0157 -0.01273,0.0387 -0.007,0.007 -0.01151,0.0397 -0.0021,0.008 -0.0052,0.0156 -0.0066,0.0237 -5.29e-4,0.003 0.0011,0.006 0.0011,0.009 1.1e-5,0.005 -8.2e-5,0.01 -7.94e-4,0.0147 -0.0034,0.0202 -0.0067,0.0216 -0.01558,0.0419 -0.0024,0.005 -0.0043,0.0108 -0.0065,0.0162 -0.0056,0.0115 -0.02122,0.0418 -0.02418,0.0558 -0.0019,0.009 0.01011,0.0272 0.0071,0.0375 1.3e-5,0.0175 5.29e-4,0.0177 -0.0021,0.0371 -0.0013,0.01 -0.0044,0.0197 -0.0048,0.0297 -2.62e-4,0.007 0.0021,0.0133 0.0028,0.02 0.0024,0.0235 0.0013,0.0232 -1.38e-4,0.0473 -0.02734,0.1016 0.01889,-0.064 -0.02003,0.0521 -0.0026,0.008 -0.0026,0.0163 -0.004,0.0244 -0.0019,0.0108 -0.0055,0.0215 -0.0059,0.0325 -5.29e-4,0.0162 0.0092,0.0317 0.0071,0.048 0.0038,0.0202 0.008,0.0393 0.0098,0.0598 0.0039,0.0441 -5.29e-4,0.0211 -5e-5,0.0648 1.11e-4,0.0109 0.0013,0.0218 0.0019,0.0327 -1.3e-5,0.0109 -2.7e-5,0.0218 -4.3e-5,0.0328 0,0.0215 0.0013,0.0431 7.7e-5,0.0646 -0.0019,0.0327 -0.01429,0.0637 -0.01323,0.0968 0.0033,0.0299 0.0055,0.0604 0.005,0.0905 -2.25e-4,0.0136 -0.0021,0.0272 -0.0024,0.0408 -0.0016,0.10733 0.0051,-0.037 -5.29e-4,0.0686 5.29e-4,0.0343 0.0028,0.069 0.0024,0.10323 -5.29e-4,0.0337 -0.0041,0.0676 -0.0027,0.10139 -0.0013,0.0617 -0.0059,0.12312 -0.007,0.18476 0.0011,0.0101 0.0026,0.0201 0.0029,0.0302 5.29e-4,0.0199 -0.0016,0.0399 -0.0021,0.0598 -1.99e-4,0.01 0.0011,0.0198 -2.65e-4,0.0296 -0.0011,0.009 -0.0046,0.0177 -0.007,0.0265 -7.94e-4,0.008 -0.0019,0.0166 -0.0027,0.0249 -0.003,0.0539 -0.01471,0.10669 -0.0158,0.16078 0.0011,0.0207 2.64e-4,0.0415 0.0019,0.0622 7.94e-4,0.011 0.0076,0.0452 0.0059,0.0567 -0.0013,0.008 -0.03062,0.11398 -0.03135,0.11663 1.998337,1.10222 2.70791,2.98058 3.513016,1.82026 0.01392,-0.02 0.02718,-0.0406 0.03904,-0.0619 0.02267,-0.0408 0.03695,-0.0855 0.05527,-0.12822 0.03128,-0.0754 0.05064,-0.15556 0.08882,-0.22809 0.03842,-0.1192 -0.0069,0.0279 0.02013,-0.0789 0.01566,-0.0618 0.04576,-0.11996 0.05215,-0.1842 0.0024,-0.0295 0.0036,-0.0591 0.0074,-0.0885 0.0019,-0.0148 0.0063,-0.0292 0.0077,-0.044 0.0011,-0.0125 -7.94e-4,-0.0252 6.6e-5,-0.0377 7.94e-4,-0.0117 0.0047,-0.0231 0.0055,-0.0349 7.94e-4,-0.0115 -5.29e-4,-0.023 -7.94e-4,-0.0345 0.0049,-0.0634 0.0042,-0.12716 0.01032,-0.19054 0.0029,-0.0381 0.0033,-0.0778 0.01437,-0.11478 0.003,-0.01 0.0089,-0.0189 0.01151,-0.029 0.0019,-0.007 0.0011,-0.0142 0.0016,-0.0214 -0.0011,-0.005 -0.0013,-0.0103 -0.0031,-0.0151 -0.0011,-0.003 -0.0046,-0.005 -0.0051,-0.008 -0.0013,-0.007 -4.5e-5,-0.0151 -2.64e-4,-0.0226 -7.94e-4,-0.0216 -0.0029,-0.0431 -0.0069,-0.0644 -0.01934,-0.0106 -0.0057,2.1e-4 -0.01646,-0.0233 -0.0016,-0.004 -0.0055,-0.006 -0.007,-0.01 -0.0024,-0.006 -0.0011,-0.0125 -0.004,-0.0179 -0.02228,-0.0411 -0.0013,0.0383 -0.01582,-0.034 -0.0036,-0.0158 -0.0052,-0.0322 -0.01066,-0.0475 -0.0021,-0.006 -0.0074,-0.01 -0.0087,-0.0157 -0.0016,-0.008 0.0024,-0.0157 2.64e-4,-0.0232 -0.0032,-0.0127 -0.02455,-0.0177 -0.01535,-0.0361 -0.0019,-0.007 -0.003,-0.0149 -0.0054,-0.0221 -0.0021,-0.006 -0.0068,-0.0117 -0.0076,-0.0182 -0.0011,-0.009 0.0016,-0.0175 0.0021,-0.0262 0.0019,-0.0235 -7.94e-4,-0.0474 0.0068,-0.07 0.0036,-0.0383 -0.0065,-0.0758 -0.0046,-0.1142 0.0011,-0.0123 0.0013,-0.0223 0.0046,-0.0341 0.0038,-0.0132 0.01117,-0.0251 0.01537,-0.0382 0.0013,-0.004 -2.65e-4,-0.004 -0.0024,-0.006 -0.0045,-0.019 0.01209,-0.0412 0.01834,-0.0571 0.0038,-0.01 0.0021,-0.0211 0.0097,-0.0296 0.0085,-0.0186 0.04858,-0.10624 0.04769,-0.10675 -1.882378,-1.08167 -2.900201,-3.10178 -3.536492,-1.82125 -0.0054,0.0108 -0.0064,0.0234 -0.01148,0.0344 -0.0029,0.007 -0.01876,0.0455 -0.02045,0.0564 -2.43e-4,0.002 0.0027,0.002 0.0033,0.003 0.0024,0.007 -0.0013,0.0145 -0.0031,0.0205 -0.0056,0.0123 -0.0099,0.0253 -0.01606,0.0374 -0.0085,0.0166 -0.0182,0.0325 -0.02696,0.049 -0.0032,0.006 -0.0075,0.0114 -0.0099,0.0177 -0.0024,0.006 -0.0027,0.0121 -0.0041,0.0182 -0.0029,0.01 -0.0063,0.0195 -0.0087,0.0294 -0.0026,0.0108 -0.0021,0.0222 -0.0044,0.0331 -0.0021,0.01 -0.0057,0.0188 -0.0072,0.0285 -0.0019,0.0119 0.0026,0.0242 -8e-5,0.036 -5.29e-4,0.006 -0.0057,0.0557 -0.0056,0.0575 5.29e-4,0.009 0.0048,0.0179 0.0071,0.0269 0.0097,0.0385 0.01839,0.0773 0.02204,0.11689 0.0013,0.0509 0.0021,0.10106 -0.0071,0.15148 -0.01516,0.083 -0.0063,0.003 -0.01799,0.0782 -0.0016,0.0111 -0.0021,0.0223 -0.0033,0.0334 -0.0024,0.0311 -0.0048,0.0635 -0.0013,0.0946 0.0013,0.0119 0.0048,0.0235 0.0066,0.0354 0.0019,0.0128 0.0028,0.0257 0.0042,0.0386 0.0021,0.0142 0.0043,0.0285 0.0064,0.0427 0.01476,0.0773 0.0055,0.0203 0.01423,0.10165 0.0045,0.0415 0.01159,0.0755 0.0083,0.11762 -0.0016,0.0189 -0.008,0.0371 -0.01032,0.0559 -0.0021,0.0178 -0.0021,0.0359 -0.003,0.0538 -0.01212,0.049 -0.02228,0.0978 -0.04234,0.14436 -0.0097,0.0226 -0.05235,0.054 -0.03136,0.0669 3.409532,2.09421 2.712855,3.11946 3.48905,1.85529 0.0057,-0.0235 0.01164,-0.047 0.01725,-0.0705 0.0033,-0.014 0.005,-0.0284 0.0096,-0.042 0.01683,-0.05 0.0214,-0.0411 0.05135,-0.0879 0.01164,-0.0182 0.03237,-0.0602 0.04215,-0.0795 0.0058,-0.014 0.01206,-0.0278 0.01757,-0.042 0.01101,-0.0282 0.01873,-0.0559 0.03139,-0.0836 0.0185,-0.0404 0.04299,-0.078 0.06299,-0.11765 0.01286,-0.0312 0.02609,-0.0626 0.04018,-0.0933 0.0097,-0.0211 0.02172,-0.0415 0.03309,-0.0617 0.0033,-0.007 0.005,-0.0144 0.0075,-0.0216 0.0045,-0.012 0.01032,-0.0235 0.01355,-0.0359 0.0016,-0.006 -1.3e-5,-0.0119 5.3e-4,-0.0178 0.004,-0.0526 7.93e-4,0.0137 0.0085,-0.0512 0.01106,-0.0928 -0.01243,0.049 0.0053,-0.0517 0.006,-0.0201 0.01439,-0.0396 0.01812,-0.0602 0.0013,-0.007 1.46e-4,-0.0151 7.94e-4,-0.0226 0.0021,-0.0296 0.01095,-0.058 0.01151,-0.0878 0.01508,-0.0832 -5.29e-4,0.0139 0.0053,-0.0576 0.0077,-0.0953 0.0011,0.0608 0.0093,-0.0514 5.29e-4,-0.008 -0.0011,-0.0152 -0.0013,-0.0228 -5e-5,-0.008 5.3e-4,-0.0168 0.0011,-0.0252 0.0072,-0.026 0.01569,-0.0512 0.02498,-0.0765 0.0049,-0.0135 0.0056,-0.0223 0.01797,-0.0316 0.0061,-0.005 0.01368,-0.007 0.02053,-0.01 z" /></g></svg>
