<?xml version="1.0" encoding="UTF-8" standalone="no"?>
<!-- Created with Inkscape (http://www.inkscape.org/) -->

<svg
   width="210mm"
   height="297mm"
   viewBox="0 0 210 297"
   version="1.1"
   id="svg1"
   xml:space="preserve"
   inkscape:version="1.4.2 (f4327f4, 2025-05-13)"
   sodipodi:docname="guetiger_Vater.svg"
   xmlns:inkscape="http://www.inkscape.org/namespaces/inkscape"
   xmlns:sodipodi="http://sodipodi.sourceforge.net/DTD/sodipodi-0.dtd"
   xmlns="http://www.w3.org/2000/svg"
   xmlns:svg="http://www.w3.org/2000/svg"><sodipodi:namedview
     id="namedview1"
     pagecolor="#ffffff"
     bordercolor="#000000"
     borderopacity="0.25"
     inkscape:showpageshadow="2"
     inkscape:pageopacity="0.0"
     inkscape:pagecheckerboard="0"
     inkscape:deskcolor="#d1d1d1"
     inkscape:document-units="mm"
     inkscape:zoom="1.0396254"
     inkscape:cx="396.77752"
     inkscape:cy="484.30905"
     inkscape:window-width="2560"
     inkscape:window-height="1369"
     inkscape:window-x="-8"
     inkscape:window-y="-8"
     inkscape:window-maximized="1"
     inkscape:current-layer="layer1" /><defs
     id="defs1" /><g
     inkscape:label="Ebene 1"
     inkscape:groupmode="layer"
     id="layer1"><path
       style="fill:#000000"
       d="m 98.368825,271.49917 c -1.063764,-0.16597 -2.496188,-0.44576 -3.183164,-0.62175 -0.686977,-0.17599 -2.879047,-0.66896 -4.871269,-1.09548 -3.785703,-0.81049 -6.304496,-1.57827 -8.890906,-2.71013 -2.721613,-1.19103 -8.395118,-2.31502 -26.881996,-5.32567 -12.076417,-1.96668 -12.119692,-1.97488 -14.669863,-2.78069 -1.527018,-0.4825 -2.009402,-0.75888 -3.020885,-1.73075 -1.761017,-1.69205 -2.297978,-3.08552 -3.588495,-9.31248 l -0.159238,-0.76835 -0.326766,0.65858 c -0.250137,0.50414 -0.462018,0.64945 -0.903523,0.61964 -0.747508,-0.0505 -0.91182,0.41142 -0.439255,1.23482 0.357397,0.62273 0.355195,0.69139 -0.04606,1.43647 -0.452913,0.84101 -0.377472,1.04396 0.562206,1.51244 0.278207,0.1387 0.739109,0.5965 1.024228,1.01734 0.575701,0.84973 0.551903,1.94819 -0.05678,2.62077 -0.186272,0.20583 -0.338677,0.71598 -0.338677,1.13367 0,0.41768 -0.222272,1.19941 -0.493939,1.73717 -0.990245,1.96016 -2.720265,2.5177 -7.738381,2.49387 -5.870254,-0.0279 -8.354259,-0.86876 -11.112103,-3.76166 -3.5335066,-3.70654 -4.8265237,-8.31058 -3.816512,-13.58943 0.4535858,-2.37068 1.006032,-3.97363 2.879277,-8.35437 1.505079,-3.51975 2.042313,-5.10161 2.055423,-6.05209 0.003,-0.214 -0.403599,-0.83276 -0.903445,-1.37503 l -0.908812,-0.98594 0.12995,-4.11319 c 0.181939,-5.75873 0.95924,-9.18144 2.721008,-11.98146 0.776517,-1.23413 2.899235,-3.2854 3.775402,-3.64832 0.804863,-0.33339 1.332384,-0.16404 5.245617,1.68396 1.122859,0.53027 3.037797,1.31089 4.255418,1.73471 2.49189,0.86737 4.969077,2.04149 6.893645,3.26739 1.814854,1.15602 4.042366,2.95238 4.042366,3.25993 0,0.50361 0.798081,0.79456 1.571275,0.57281 1.180739,-0.33863 2.885416,-0.24271 4.489024,0.25259 1.252412,0.38683 1.694733,0.66549 2.712348,1.70879 1.112819,1.14089 1.384198,1.29626 3.201049,1.8327 3.239822,0.95657 7.560653,2.60784 8.187616,3.12901 0.321274,0.26706 0.831104,0.6082 1.132956,0.7581 0.618489,0.30713 -4.802635,-5.1252 -9.743064,-9.76321 -1.796834,-1.68684 -3.643219,-3.57344 -4.103078,-4.19243 -0.523707,-0.70494 -1.06656,-1.1829 -1.452892,-1.27922 -1.288451,-0.32123 -2.107943,-0.88418 -2.953714,-2.02906 -0.889212,-1.20368 -1.772415,-1.75408 -3.590342,-2.23744 -0.527518,-0.14026 -1.447832,-0.72806 -2.305049,-1.47222 -2.624245,-2.27814 -6.875643,-6.10892 -8.625842,-7.77244 -1.657947,-1.57583 -1.727633,-1.68142 -1.624367,-2.46141 0.08484,-0.64083 -0.02884,-1.03054 -0.532065,-1.82405 -0.351977,-0.55501 -0.938091,-1.59971 -1.302475,-2.32155 -0.426142,-0.84418 -0.857125,-1.38643 -1.20797,-1.51982 -0.299999,-0.11406 -0.650872,-0.48082 -0.779717,-0.81502 -0.609223,-1.58022 -3.169794,-11.60515 -3.940065,-15.42581 -1.958692,-9.71541 -1.715413,-14.57607 1.236841,-24.71176 2.310141,-7.93119 3.33045,-11.99054 3.824322,-15.21527 0.251926,-1.64494 0.611136,-3.97868 0.798244,-5.18609 0.580766,-3.74767 1.28918,-6.31814 3.993077,-14.48888 3.901817,-11.79066 6.344982,-17.444846 10.927081,-25.288413 4.04598,-6.925848 7.428307,-11.400641 12.252716,-16.210254 7.683589,-7.660022 14.318872,-11.513572 24.561292,-14.264373 1.593735,-0.428028 3.717863,-1.071746 4.720285,-1.430483 1.313351,-0.47001 2.222101,-0.65225 3.252478,-0.65225 1.809515,0 2.279095,-0.239034 2.279298,-1.160248 1.34e-4,-0.603871 0.340786,-1.047683 2.359932,-3.074585 1.297877,-1.302863 2.507958,-2.462107 2.689069,-2.576099 0.521637,-0.32832 1.594937,-0.245389 2.221402,0.17164 0.696548,0.463684 2.415239,2.451589 3.224988,3.730147 0.324855,0.512932 0.693147,0.93278 0.818426,0.932996 0.243343,4.19e-4 1.63732,-1.403619 3.136161,-3.158797 0.73538,-0.861147 0.91686,-1.242892 0.91686,-1.928598 0,-0.470212 -0.15637,-1.093588 -0.34749,-1.385279 -0.23176,-0.353709 -0.29054,-0.698443 -0.17649,-1.035037 0.094,-0.277579 0.14508,-0.637851 0.1134,-0.800605 -0.0317,-0.162753 0.10357,-0.474007 0.30056,-0.691673 0.20965,-0.231663 0.26975,-0.450397 0.14493,-0.527535 -0.33547,-0.207335 -0.0328,-0.980548 0.44301,-1.131549 0.40523,-0.128618 0.40798,-0.153106 0.0468,-0.417221 -0.3485,-0.254826 -0.29692,-0.338028 0.56188,-0.906351 l 0.9456,-0.625768 -0.6868,-0.177966 c -1.0416,-0.269908 -0.82324,-0.573668 0.46574,-0.647879 l 1.15252,-0.06636 0.0687,-0.8328 c 0.0609,-0.738668 0.17571,-0.884785 1.01532,-1.292702 0.75569,-0.367143 0.94662,-0.575193 0.94662,-1.031523 0,-0.397623 0.25152,-0.7726 0.8263,-1.231876 0.45447,-0.363141 1.47939,-1.342832 2.27761,-2.177093 1.77391,-1.854004 4.09694,-3.057323 6.63192,-3.435303 0.89362,-0.133245 2.76083,-0.58277 4.14935,-0.998946 3.53052,-1.058191 5.26913,-1.380594 8.66337,-1.606506 1.62246,-0.107987 3.0536,-0.260413 3.18031,-0.338725 0.4588,-0.283551 0.21762,0.277936 -0.26355,0.613585 -0.46778,0.326306 -0.40452,0.345164 1.19445,0.356069 0.92862,0.0063 1.74944,0.110303 1.82407,0.231043 0.0791,0.128078 -0.14408,0.219529 -0.53587,0.219529 -1.1731,0 -0.72666,0.345784 0.95975,0.743355 1.11778,0.263518 2.12741,0.701991 3.20735,1.392932 1.26861,0.811642 1.83902,1.036784 2.92393,1.154076 1.21162,0.13099 1.29239,0.169547 0.79904,0.381447 -0.52395,0.225045 -0.52892,0.244115 -0.10976,0.420791 0.24148,0.101784 0.91062,0.178504 1.48698,0.170489 1.20809,-0.0168 1.10326,0.218614 -0.29228,0.656322 l -0.97517,0.305864 1.11056,0.0217 c 0.6675,0.01305 1.28058,-0.106883 1.5367,-0.300606 0.23438,-0.177271 0.51554,-0.325453 0.62481,-0.329293 0.38455,-0.01351 -0.58575,0.853839 -1.41312,1.263187 l -0.83712,0.414174 1.1883,0.859175 c 1.93718,1.400631 3.94748,4.248319 7.66622,10.859564 1.20391,2.14033 1.78308,2.84203 2.34575,2.84203 0.22043,0 0.40079,0.109596 0.40079,0.243546 0,0.148993 -0.29779,0.208781 -0.76704,0.153999 l -0.76705,-0.08955 0.54752,0.571482 c 0.54827,0.57227 0.74058,1.021982 0.32798,0.766985 -0.12074,-0.07462 -0.21953,-0.02894 -0.21953,0.101515 0,0.130455 0.24295,0.347882 0.53987,0.483172 0.43049,0.196141 0.49714,0.325822 0.32899,0.640027 -0.16586,0.309909 -0.38028,0.366557 -1.00422,0.265306 -0.74802,-0.121387 -0.7795,-0.10288 -0.55103,0.324012 0.13327,0.249014 0.36692,0.496754 0.51923,0.550533 0.4247,0.149959 -0.45505,1.696713 -0.96505,1.696713 -0.22247,0 -0.40449,0.09879 -0.40449,0.219529 0,0.12074 0.25403,0.219528 0.56451,0.219528 0.8401,0 1.25635,0.523152 1.07462,1.350586 l -0.15135,0.68911 0.90257,-0.144328 c 0.94283,-0.150764 1.26659,0.151159 0.40864,0.38108 -0.81505,0.218426 -1.66834,0.155848 -1.85508,-0.136045 -0.45249,-0.707286 -0.85739,-0.832738 -1.55864,-0.482911 -0.42154,0.210293 -0.6359,0.45575 -0.56328,0.644998 0.40475,1.054759 3.08038,1.349793 5.18755,0.572017 0.69599,-0.256895 1.88145,-0.523155 2.63435,-0.591689 1.916,-0.174406 2.17078,-0.295894 1.36891,-0.652752 -0.36223,-0.1612 -0.95495,-0.30747 -1.31718,-0.325045 -0.61067,-0.02963 -0.5947,-0.04722 0.21953,-0.241808 1.15235,-0.275392 2.59067,-0.05072 3.88982,0.607609 1.1351,0.575198 1.2234,0.487323 0.72028,-0.716804 -0.18111,-0.43346 -0.32929,-0.831268 -0.32929,-0.884019 0,-0.271887 0.53288,0.306169 1.21236,1.315143 0.56251,0.835283 0.7634,1.012161 0.7634,0.672172 0,-0.475108 0.76992,-1.618257 1.08991,-1.618257 0.099,0 -0.007,0.366646 -0.23546,0.814768 -0.68185,1.337398 -0.55239,1.631512 0.46272,1.051225 0.61767,-0.353092 2.85387,-0.444498 2.85387,-0.116654 0,0.116951 -0.13783,0.159749 -0.30628,0.09511 -0.16846,-0.06464 -0.73649,0.0011 -1.26229,0.14618 l -0.95601,0.263712 1.33673,0.278773 c 1.31715,0.274692 4.19194,1.560892 3.97457,1.778257 -0.0614,0.06137 -0.4263,-0.05117 -0.81096,-0.25009 -0.9724,-0.502846 -1.06902,-0.263556 -0.12833,0.317821 2.32711,1.438231 4.76064,5.241495 5.97715,9.341435 1.2073,4.068878 0.59908,10.621225 -1.46299,15.760967 -0.48036,1.197301 -0.87338,2.348757 -0.87338,2.558793 0,0.210035 -0.20934,0.570071 -0.46519,0.800081 -0.41582,0.373814 -0.45233,0.581296 -0.34395,1.954899 0.0667,0.845185 0.26215,1.931851 0.43437,2.414814 l 0.31314,0.878114 1.5515,-0.07719 c 0.85332,-0.04246 1.90124,0.03823 2.3287,0.179308 1.26546,0.417639 3.95052,3.732141 4.62479,5.708958 0.19192,0.562672 0.62037,1.015182 1.56502,1.652902 1.93287,1.30485 4.00565,2.92293 5.29891,4.13649 1.47544,1.38453 1.61357,2.02057 0.8205,3.77823 -0.32397,0.71801 -0.72029,1.78519 -0.88071,2.3715 -0.37772,1.38051 -1.1943,2.54153 -2.39302,3.40238 l -0.96006,0.68946 0.30849,1.15305 c 0.31045,1.16038 0.92192,5.20555 1.40213,9.27561 0.22911,1.9419 0.20818,2.52469 -0.18131,5.04916 -0.24218,1.56963 -0.49818,4.11271 -0.56888,5.65128 -0.16168,3.51805 -0.52819,5.44069 -1.56238,8.19576 -0.44977,1.1982 -0.86572,2.59755 -0.92433,3.10968 -0.10249,0.89561 -0.0531,0.98789 1.29384,2.41835 1.66639,1.76968 2.68983,3.60826 3.05708,5.49193 0.32617,1.673 0.17622,3.91516 -0.32851,4.91202 -0.55666,1.0994 -0.69841,4.79393 -0.25095,6.54055 0.43592,1.70158 0.43652,1.68182 -0.0656,2.18396 -0.4344,0.4344 -0.43853,0.46259 -1.24139,8.47557 -0.47513,4.74211 -0.66596,5.62444 -1.45071,6.70776 -0.36749,0.5073 -0.86129,1.6193 -1.09734,2.47111 l -0.42918,1.54875 0.61563,1.33181 c 0.58116,1.25725 0.61405,1.49159 0.58752,4.18569 -0.0312,3.16927 -0.57514,8.38429 -1.07444,10.30123 -0.45245,1.73709 -0.42324,1.9202 0.43982,2.75671 1.08932,1.05581 1.33824,1.94858 0.90105,3.23166 -0.49003,1.43818 -0.44729,1.71044 0.41912,2.66945 1.07672,1.1918 1.42652,2.17218 1.43771,4.02951 0.005,0.88249 0.16016,1.99201 0.34564,2.47675 1.05056,2.74556 1.53696,15.71221 0.66597,17.75374 -0.51579,1.20896 -0.45384,1.72456 0.29319,2.44026 1.06736,1.0226 1.07497,1.80129 0.0384,3.93243 l -0.89292,1.83578 0.41943,0.82269 c 0.54451,1.06802 0.78498,2.65268 0.46166,3.04226 -0.13948,0.16806 -0.48339,0.25124 -0.79358,0.19195 -0.65312,-0.12486 -0.70358,0.20033 -0.22097,1.42391 0.17955,0.45522 0.62878,2.16131 0.9983,3.79131 0.79234,3.49511 1.06821,7.34388 0.66469,9.27337 l -0.26363,1.26058 -1.13732,0.31981 c -1.8973,0.53353 -5.10099,0.79029 -9.25987,0.74214 -3.04082,-0.0352 -4.53335,0.0512 -6.47609,0.37507 -1.95037,0.32512 -3.5981,0.41967 -7.24445,0.41573 -4.99576,-0.005 -6.41804,-0.19298 -9.08968,-1.19881 -1.50387,-0.56618 -3.64297,-2.4663 -3.64297,-3.23598 0,-0.36133 -0.29454,-0.61442 -1.23022,-1.05706 -3.21682,-1.52181 -4.03157,-3.50008 -2.43501,-5.91244 0.97277,-1.46984 1.87889,-1.82719 5.86087,-2.31135 2.43239,-0.29575 3.31328,-0.69281 4.88442,-2.20162 0.63374,-0.60861 1.88642,-1.61912 2.78373,-2.24557 0.89731,-0.62646 1.67786,-1.28264 1.73456,-1.45818 0.0567,-0.17554 -0.31212,0.01 -0.8196,0.41161 -1.3829,1.09528 -2.6562,0.89442 -2.6562,-0.41902 0,-1.35109 1.58803,-2.3483 3.41217,-2.14269 0.87423,0.0985 0.9561,0.0634 1.08926,-0.4671 0.0792,-0.3155 0.25716,-0.71003 0.39551,-0.87673 0.13834,-0.16669 0.22093,-0.59488 0.18352,-0.95153 -0.0374,-0.35664 0.0754,-0.81354 0.25066,-1.01531 0.17528,-0.20178 0.37272,-0.9227 0.43876,-1.60205 0.10953,-1.12671 0.0756,-1.25896 -0.38584,-1.50594 -1.11965,-0.59922 -1.27607,-1.94944 -0.33488,-2.89063 0.81611,-0.81611 0.81829,-0.94445 0.0217,-1.27442 -0.83983,-0.34786 -1.45483,-1.0253 -1.90421,-2.0975 -0.3091,-0.73749 -0.34331,-1.32391 -0.21755,-3.72899 0.0821,-1.56962 0.23655,-3.71959 0.34328,-4.7777 0.10673,-1.05811 0.13584,-2.61816 0.0647,-3.46678 -0.12426,-1.48225 -0.16242,-1.56633 -0.97015,-2.13744 -1.00375,-0.70972 -1.60182,-1.8307 -1.43139,-2.68288 0.10565,-0.52824 0.002,-0.68985 -0.76539,-1.19795 -1.43167,-0.94743 -2.34764,-3.71402 -2.92201,-8.82558 -0.17404,-1.54882 -0.47018,-3.53831 -0.65808,-4.4211 -0.95216,-4.4732 -1.29296,-7.43249 -1.33288,-11.57383 -0.0256,-2.65626 -0.13236,-4.35027 -0.29306,-4.65055 -0.13903,-0.25978 -0.25278,-0.71767 -0.25278,-1.01754 0,-0.29987 -0.24697,-1.03692 -0.54882,-1.63789 -0.48427,-0.96415 -0.54897,-1.37298 -0.55005,-3.47562 -6.7e-4,-1.31061 -0.0922,-2.72869 -0.20346,-3.15128 -0.11123,-0.42259 -0.3127,-1.32405 -0.44771,-2.00324 l -0.24547,-1.2349 -1.53073,-0.15084 c -1.97055,-0.19417 -2.29786,-0.59004 -2.07506,-2.50969 0.19034,-1.63999 -0.20127,-3.23564 -1.40506,-5.72491 -0.90433,-1.87004 -1.06267,-1.95005 -0.67426,-0.34072 0.11656,0.48296 0.21835,1.92293 0.22621,3.19992 0.0199,3.23039 -0.5111,5.77269 -3.04567,14.58247 -4.0595,14.11021 -9.28284,29.42996 -16.05494,47.08829 -3.50705,9.14467 -3.97028,10.26846 -4.63978,11.25613 -0.65673,0.96883 -0.7946,1.91111 -0.42274,2.88917 0.11775,0.30971 0.37775,0.56311 0.57778,0.56311 0.20003,0 0.6874,0.34324 1.08305,0.76275 0.43482,0.46104 1.0529,0.83852 1.56262,0.95432 0.46379,0.10536 1.21996,0.44853 1.68037,0.76258 0.91453,0.62382 1.52693,0.73545 4.98039,0.90781 2.82276,0.14088 4.25236,0.54416 5.38804,1.5199 1.1129,0.95617 2.24476,3.18099 2.42654,4.76968 0.13147,1.14905 0.0981,1.2731 -0.53654,1.99593 -2.08285,2.37224 -8.18446,3.86686 -16.48624,4.03838 l -4.04927,0.0837 -0.39354,1.05496 c -0.47856,1.28288 -3.6327,5.26615 -5.59064,7.06025 -2.24639,2.0584 -4.76604,2.92692 -10.60588,3.65583 -2.98901,0.37308 -4.29556,0.36594 -6.881855,-0.0376 z m -66.03059,-16.2476 c -0.321143,-0.38695 -0.477019,-0.27349 -0.290834,0.2117 0.07586,0.1977 0.231168,0.30183 0.34512,0.2314 0.123528,-0.0763 0.101608,-0.25526 -0.05429,-0.4431 z m 131.957275,-7.87818 c 0.40959,-0.42259 0.62164,-0.76835 0.47122,-0.76835 -0.29481,0 -1.56886,0.61397 -1.56886,0.75604 0,0.0474 -0.06,0.24243 -0.13325,0.43342 -0.2368,0.61706 0.45357,0.38088 1.23089,-0.42111 z m -59.59508,-44.12523 c 0.21166,-1.20741 0.87307,-3.62771 1.46979,-5.37845 0.98094,-2.87801 2.06255,-7.40058 1.82639,-7.63675 -0.25044,-0.25043 -11.146187,6.31215 -11.021111,6.63809 0.106202,0.27676 5.487211,8.20672 6.483681,9.55497 l 0.56396,0.76305 0.14623,-0.87282 c 0.0804,-0.48004 0.3194,-1.86068 0.53106,-3.06809 z m 43.98597,-43.43139 c -0.17545,-2.19559 -0.14977,-3.72128 0.11893,-7.06479 0.18849,-2.34544 0.34271,-5.61098 0.34271,-7.25676 v -2.99231 l -1.72724,1.62486 c -2.09823,1.97386 -3.75244,2.83054 -6.90321,3.57502 -1.73433,0.4098 -2.71848,0.78669 -3.82263,1.46394 -1.94182,1.19104 -4.35733,2.34506 -5.26487,2.51532 -1.34192,0.25174 -0.73443,0.45791 1.74725,0.59296 5.76428,0.31368 10.33466,2.39325 13.24472,6.02648 1.00409,1.25362 2.28642,3.6121 2.28675,4.20583 1e-4,0.17105 0.0454,0.26573 0.10077,0.2104 0.0553,-0.0553 -1e-4,-1.36076 -0.12318,-2.90095 z m -48.2737,-6.62112 c 2.47519,-0.1776 4.68991,-0.32434 4.92162,-0.3261 0.31629,-0.002 0.0428,-0.4014 -1.09765,-1.60116 -0.8354,-0.87888 -2.30617,-2.51753 -3.26838,-3.64144 l -1.74946,-2.04348 -0.314948,0.73269 c -1.33922,3.11554 -2.136459,4.65071 -3.487145,6.71484 -0.393649,0.60159 -0.873301,0.58578 4.995963,0.16465 z m 32.32331,-31.64667 c 0.99424,-0.38165 1.08825,-0.38244 2.11498,-0.0178 1.81304,0.64393 1.9593,0.60142 5.03061,-1.46197 1.00086,-0.67241 2.36879,-1.38217 3.03984,-1.57725 0.67105,-0.19508 1.66571,-0.55181 2.21037,-0.79274 0.94678,-0.41881 1.03249,-0.42192 1.9515,-0.071 0.92171,0.352 0.98616,0.34932 1.56786,-0.0653 0.33365,-0.23782 0.78976,-0.63504 1.01357,-0.8827 0.22382,-0.24767 0.68474,-0.51133 1.02428,-0.5859 0.70591,-0.15505 0.80571,-0.35963 2.41032,-4.94122 1.84377,-5.26446 3.04932,-7.05128 5.28375,-7.83138 0.83908,-0.29294 1.27035,-0.60261 1.63186,-1.17172 0.46437,-0.73107 1.97514,-1.96238 2.42637,-1.97754 0.11425,-0.004 0.3872,-0.14304 0.60655,-0.309326 0.38373,-0.290897 0.38148,-0.336341 -0.0593,-1.200426 -0.252,-0.493945 -0.55889,-0.898083 -0.68198,-0.898083 -0.1231,0 -0.63784,0.211217 -1.14386,0.46937 -1.46962,0.749744 -3.8955,1.506387 -4.82965,1.506387 -1.08997,0 -1.94273,-0.597741 -2.44648,-1.714863 -0.28457,-0.631066 -0.63396,-0.973412 -1.30147,-1.27524 -0.57635,-0.260604 -0.93616,-0.578122 -0.97678,-0.861958 -0.0371,-0.258921 -0.32924,-0.549368 -0.68942,-0.68532 -0.50012,-0.188774 -0.65529,-0.414627 -0.77608,-1.129576 -0.17967,-1.063464 -0.38579,-1.254496 -1.54359,-1.430582 -1.06656,-0.16221 -1.73297,-0.87444 -1.56756,-1.675358 0.0633,-0.306386 0.29191,-1.175828 0.50807,-1.932093 0.3192,-1.116712 0.34223,-1.456391 0.12256,-1.808132 -0.14876,-0.238207 -0.27048,-0.566093 -0.27048,-0.728635 0,-0.162541 -0.38852,-0.607754 -0.86338,-0.989362 -0.47486,-0.381607 -1.14168,-1.202889 -1.48182,-1.825071 -0.4706,-0.860829 -0.7984,-1.189161 -1.37133,-1.373548 -0.55684,-0.179212 -0.88871,-0.499553 -1.27446,-1.230188 l -0.52158,-0.987878 0.0897,1.152525 c 0.0493,0.633888 0.002,1.152524 -0.10539,1.152524 -0.26976,0 -1.05761,-1.894195 -1.05761,-2.542778 0,-0.291841 -0.0988,-0.530621 -0.21953,-0.530621 -0.12074,0 -0.21953,0.197576 -0.21953,0.439057 0,0.241481 -0.11343,0.439057 -0.25207,0.439057 -0.18001,0 -0.21335,-0.501995 -0.11663,-1.756228 0.14357,-1.861796 0.0521,-2.172944 -0.32278,-1.097643 -0.12627,0.362222 -0.31181,0.658586 -0.41231,0.658586 -0.20551,0 -0.0106,-0.752805 0.55664,-2.149511 0.45137,-1.111486 0.2958,-1.484605 -0.21065,-0.505233 -0.19312,0.373443 -0.49432,0.678987 -0.66934,0.678987 -0.3388,0 -0.23651,-0.431774 0.40342,-1.702836 0.16676,-0.331218 0.36406,-0.997365 0.43844,-1.480328 0.0965,-0.62683 0.34099,-1.049182 0.8542,-1.475912 0.65765,-0.546822 0.67772,-0.598302 0.23535,-0.603704 -0.78341,-0.0096 -1.58399,0.460536 -2.01687,1.184314 -0.22229,0.371675 -0.76957,1.861228 -1.21617,3.310116 -1.4987,4.862161 -1.46422,4.786743 -2.39671,5.242127 -0.72785,0.355448 -0.96505,0.376435 -1.715,0.151745 -0.47867,-0.143414 -1.2466,-0.600706 -1.70651,-1.016202 -0.4599,-0.415497 -0.90254,-0.755449 -0.98363,-0.755449 -0.0811,0 -0.62213,0.44401 -1.2023,0.986689 -1.27482,1.192447 -2.15705,1.444722 -2.75227,0.787013 -0.58278,-0.64396 -0.79976,-0.566772 -0.53574,0.190584 0.43821,1.257046 -0.30559,2.076892 -2.4418,2.691454 -0.83204,0.239366 -1.0661,0.437888 -1.49916,1.27153 -0.70585,1.358761 -1.26105,1.902943 -2.3758,2.32867 -1.37601,0.525505 -2.4554,0.30119 -4.51533,-0.938361 -1.41589,-0.852008 -2.80928,-2.131952 -3.38236,-3.106969 -0.0227,-0.03861 -0.44676,0.136676 -0.94238,0.389521 l -0.90112,0.459718 0.46587,0.92765 c 0.25622,0.510207 0.68638,1.224013 0.95589,1.586235 0.9418,1.265756 1.87371,3.289304 1.87035,4.061278 -0.002,0.422593 -0.1482,1.45219 -0.32527,2.287993 -0.30274,1.429082 -0.29294,1.651486 0.16441,3.731986 0.3906,1.776811 0.48812,2.930758 0.49539,5.861648 l 0.009,3.64931 0.73831,0.62125 c 1.06237,0.89392 1.41319,1.84933 1.1026,3.00277 -0.24098,0.89495 -0.22872,0.93377 0.48764,1.5435 1.69729,1.44464 2.18584,2.0513 2.49773,3.10154 0.17745,0.59753 0.32263,1.30336 0.32263,1.56851 0,0.76735 0.48839,1.01262 1.69707,0.85228 0.9407,-0.12479 1.1576,-0.0751 1.69634,0.38826 0.54778,0.47118 0.61455,0.66899 0.5897,1.74692 -0.0213,0.92529 0.0682,1.30268 0.37506,1.58036 0.36624,0.33143 0.47579,0.3344 1.19857,0.0324 0.43752,-0.1828 1.32717,-0.33237 1.97701,-0.33237 0.97997,0 1.34629,0.11939 2.14745,0.69991 1.96042,1.42051 2.04648,1.43548 3.98218,0.69246 z m 11.36287,-39.458167 c 0,-0.04805 -0.24578,-0.517288 -0.54617,-1.042761 -0.43843,-0.76692 -0.5467,-0.856435 -0.54882,-0.453741 -0.003,0.545439 0.58765,1.583858 0.90071,1.583858 0.10686,0 0.19428,-0.03931 0.19428,-0.08736 z m -3.5634,-9.352371 c 0.15189,-0.243211 0.17889,-0.439057 0.0605,-0.439057 -0.11751,0 -0.3194,0.197575 -0.44864,0.439057 -0.12924,0.241481 -0.15648,0.439057 -0.0605,0.439057 0.0959,0 0.29783,-0.197576 0.44864,-0.439057 z m 6.99103,-8.684767 c 0.99376,-0.80716 4.86027,-3.42286 6.84024,-4.627444 l 0.71838,-0.43705 -1.28688,0.09308 c -1.33441,0.09652 -2.28432,-0.215538 -3.22327,-1.058893 -0.94844,-0.851876 -1.17375,-0.68061 -1.88596,1.433592 -0.59134,1.755399 -1.56261,3.764615 -2.59589,5.369959 -0.43414,0.674499 -0.18082,0.537845 1.43338,-0.773249 z"
       id="path1" /></g></svg>
