<?xml version="1.0" encoding="UTF-8" standalone="no"?>
<!-- Created with Inkscape (http://www.inkscape.org/) -->

<svg
   width="210mm"
   height="297mm"
   viewBox="0 0 210 297"
   version="1.1"
   id="svg1"
   xml:space="preserve"
   inkscape:version="1.4.2 (f4327f4, 2025-05-13)"
   sodipodi:docname="Vater_Tochter_Mission_dark_leather.svg"
   xmlns:inkscape="http://www.inkscape.org/namespaces/inkscape"
   xmlns:sodipodi="http://sodipodi.sourceforge.net/DTD/sodipodi-0.dtd"
   xmlns="http://www.w3.org/2000/svg"
   xmlns:svg="http://www.w3.org/2000/svg"><sodipodi:namedview
     id="namedview1"
     pagecolor="#ffffff"
     bordercolor="#000000"
     borderopacity="0.25"
     inkscape:showpageshadow="2"
     inkscape:pageopacity="0.0"
     inkscape:pagecheckerboard="0"
     inkscape:deskcolor="#d1d1d1"
     inkscape:document-units="mm"
     inkscape:zoom="0.51981271"
     inkscape:cx="378.02077"
     inkscape:cy="540.57932"
     inkscape:window-width="1440"
     inkscape:window-height="830"
     inkscape:window-x="-6"
     inkscape:window-y="-6"
     inkscape:window-maximized="1"
     inkscape:current-layer="layer1"
     showgrid="false" /><defs
     id="defs1" /><g
     inkscape:label="Ebene 1"
     inkscape:groupmode="layer"
     id="layer1"><path
       style="fill:#502f20;fill-opacity:1"
       d="m 77.894483,283.84139 c -1.918951,-0.30273 -2.531243,-1.12979 -1.956126,-2.64227 l 0.20719,-0.54488 -4.031767,-7.9e-4 c -3.249958,-6.3e-4 -4.313933,-0.0857 -5.486889,-0.43843 -2.321693,-0.69829 -2.485789,-0.95004 -2.390608,-3.66767 0.09073,-2.59064 0.524712,-3.53102 2.12084,-4.5956 0.965359,-0.64388 1.209872,-1.44827 1.480654,-4.87102 0.132571,-1.67573 0.108314,-1.81654 -0.337287,-1.95797 -1.30023,-0.41268 -2.499676,-2.0158 -3.057128,-4.08602 -0.333785,-1.23959 -0.09323,-2.08053 0.927777,-3.2434 0.390679,-0.44496 0.710326,-1.01927 0.710326,-1.27624 0,-0.25698 -0.464338,-1.39184 -1.031863,-2.52192 -1.950671,-3.88425 -4.360059,-14.89521 -6.155975,-28.13295 -0.460075,-3.39122 -1.04334,-7.1141 -1.296144,-8.27307 -0.650863,-2.98384 -0.607966,-3.62673 0.335549,-5.02879 l 0.795194,-1.18165 -0.932934,-1.3721 c -1.120022,-1.64726 -1.10262,-2.53791 0.07329,-3.75114 l 0.747721,-0.77145 -0.976732,-1.1666 c -1.647056,-1.96723 -1.707077,-2.25359 -1.652023,-7.88177 0.0436,-4.45699 -0.01635,-5.35457 -0.568524,-8.5127 -0.339494,-1.94171 -1.042217,-6.70772 -1.561608,-10.59114 -0.557973,-4.17189 -1.386595,-9.08296 -2.025261,-12.00329 -1.077884,-4.92867 -1.081552,-4.96098 -1.308094,-11.52192 l -0.227178,-6.57939 -0.730086,-0.60951 c -0.715165,-0.59704 -0.727004,-0.64055 -0.57933,-2.12887 0.08291,-0.83566 0.250837,-2.89622 0.373159,-4.57904 0.122323,-1.68281 0.331039,-3.4833 0.463814,-4.00109 0.132776,-0.51779 0.243937,-1.6934 0.247025,-2.61247 0.0051,-1.51649 0.07636,-1.76462 0.77053,-2.6829 0.420704,-0.55653 0.867409,-1.15037 0.992679,-1.31965 0.159309,-0.21529 -0.04485,-0.83773 -0.679286,-2.071 l -0.90705,-1.7632 0.156547,-2.30687 c 0.0861,-1.26877 0.202916,-2.83642 0.259588,-3.48365 0.08587,-0.98073 -0.05621,-0.68663 -0.852754,1.76519 -1.768965,5.44496 -3.786104,11.16866 -4.470835,12.68613 -0.373904,0.82863 -0.904234,2.46246 -1.178512,3.63074 -0.643903,2.74267 -0.981742,3.52236 -1.818327,4.19649 -0.606933,0.48907 -0.727492,0.81663 -1.069136,2.90482 -0.504567,3.084 -0.340984,4.30813 0.817909,6.12056 1.460547,2.2842 1.690659,3.15608 1.66346,6.30276 -0.01418,1.64045 0.118237,3.44967 0.324111,4.42836 0.191446,0.91011 0.348084,2.17493 0.348084,2.81072 0,0.97406 -0.09282,1.2168 -0.589785,1.54242 -0.483365,0.31671 -0.708844,0.33713 -1.249619,0.11313 -1.092136,-0.45238 -1.307498,-0.99953 -2.291916,-5.82291 -0.09375,-0.45937 -0.171869,-0.4837 -0.796283,-0.24801 -0.497552,0.18781 -0.801417,0.54697 -1.080069,1.27661 -0.33942,0.88876 -0.35225,1.27496 -0.102957,3.09919 0.249018,1.82223 0.377188,2.1785 1.020638,2.83707 0.404722,0.41424 1.063015,0.94625 1.462875,1.18225 0.399859,0.236 1.016957,0.92383 1.371329,1.52852 0.61321,1.04637 0.625769,1.12774 0.260162,1.68572 -0.294781,0.4499 -0.5043,0.5478 -0.900612,0.42085 -0.284054,-0.091 -0.849562,-0.1925 -1.256685,-0.22557 -0.963414,-0.0782 -1.3989,-0.31598 -4.139083,-2.25947 -2.23867,-1.58779 -2.298701,-1.65482 -2.659844,-2.97023 -0.203214,-0.74018 -0.703223,-2.44316 -1.11113,-3.78442 l -0.741649,-2.43863 0.424543,-2.03318 c 1.027289,-4.91978 1.069706,-5.38896 0.69333,-7.66902 -0.38102,-2.30818 -0.297586,-4.19377 0.317712,-7.18022 0.498234,-2.41826 0.29979,-3.94537 -0.613109,-4.71815 -0.672351,-0.56915 -0.696556,-0.66154 -0.739899,-2.8243 -0.06339,-3.16294 -0.04914,-3.25955 0.565687,-3.83582 0.508493,-0.4766 0.566104,-0.77404 0.715809,-3.69566 0.224298,-4.37733 2.085571,-16.49663 4.971596,-32.37151 3.322555,-18.27606 5.168211,-25.322842 7.213614,-27.541842 0.49657,-0.538715 0.902856,-1.087704 0.902856,-1.219974 0,-0.418432 1.900276,-1.976944 3.007818,-2.466862 0.585688,-0.259078 1.745825,-0.665781 2.578082,-0.903785 0.832257,-0.238004 1.954692,-0.690036 2.4943,-1.004514 0.539608,-0.314479 2.549344,-1.23203 4.466079,-2.039004 4.202178,-1.769178 5.303827,-2.589985 7.064711,-5.263708 1.39283,-2.114873 2.032496,-2.618919 3.652271,-2.877931 1.215396,-0.19435 1.373909,-0.772201 0.871905,-3.178492 -0.19996,-0.958482 -0.36365,-1.820706 -0.363756,-1.916055 -1.06e-4,-0.09535 -0.369393,-0.327622 -0.820638,-0.516164 -1.484421,-0.620231 -3.02927,-3.762633 -3.040485,-6.1847 -0.0045,-0.973002 0.110198,-1.348959 0.556503,-1.824029 0.309197,-0.329126 0.7046,-0.598411 0.878673,-0.598411 0.232242,0 0.268311,-0.1723 0.135493,-0.647236 -0.202615,-0.724516 -0.207399,-4.227659 -0.0093,-6.828972 0.117715,-1.545956 0.223989,-1.834145 1.108284,-3.005385 0.537946,-0.712505 0.921313,-1.387321 0.851926,-1.499591 -0.250002,-0.404511 0.573274,-0.790007 1.400482,-0.655769 0.665964,0.108071 0.822447,0.05807 0.825368,-0.263727 0.002,-0.218394 0.101427,-0.551736 0.22099,-0.74076 0.187091,-0.295784 0.280934,-0.286169 0.673392,0.069 0.41525,0.375796 0.469122,0.378498 0.602765,0.03023 0.08072,-0.210347 0.146759,-0.562043 0.146759,-0.781548 0,-0.524263 0.724547,-1.550458 0.91273,-1.292722 0.08051,0.110269 0.382277,0.332273 0.670592,0.493342 0.475344,0.265554 0.559099,0.225382 0.898503,-0.430954 0.25596,-0.49497 0.491016,-0.679016 0.743483,-0.582135 0.203054,0.07792 0.937275,-0.07088 1.631602,-0.330659 l 1.262413,-0.472329 0,0.492595 c 0,0.378359 0.09552,0.452339 0.411878,0.31901 1.08832,-0.458668 2.771869,-0.368642 4.177615,0.223393 0.776683,0.327103 1.279762,0.597247 1.117953,0.600319 -0.161809,0.0031 -0.294198,0.111498 -0.294198,0.240945 0,0.129447 0.397168,0.235586 0.882595,0.235864 0.530443,3.03e-4 1.446037,0.294515 2.294746,0.737381 1.715143,0.894981 1.708333,0.889203 1.326188,1.125381 -0.22354,0.138155 -0.01248,0.432069 0.771731,1.074669 0.593682,0.486478 1.079422,0.983909 1.079422,1.105402 0,0.121493 -0.105911,0.15544 -0.235359,0.07544 -0.129447,-0.08 -0.235358,-0.01042 -0.235358,0.154627 0,0.165047 0.794335,1.07912 1.765189,2.031272 0.970855,0.952153 1.76519,1.776567 1.76519,1.832032 0,0.05546 -0.162594,0.100845 -0.361319,0.100845 -0.286983,0 -0.310087,0.09573 -0.1123,0.465296 0.299698,0.55999 -0.140613,1.438043 -0.627444,1.251228 -0.228078,-0.08752 -0.312587,0.154255 -0.316704,0.906079 -0.0031,0.564 -0.111077,1.4491 -0.239974,1.966889 -0.128898,0.517789 -0.330938,2.129906 -0.448978,3.582481 -0.396153,4.87499 -1.574504,9.402081 -3.584065,13.769571 l -0.728379,1.583025 0.636308,0.834243 c 0.34997,0.458833 0.90632,1.011161 1.236333,1.227394 0.775447,0.508092 6.591261,3.148161 11.871965,5.389237 6.5271,2.770033 6.71922,2.943252 8.5598,7.717464 1.29819,3.36734 2.41539,7.53576 3.50902,13.092629 0.90958,4.621727 1.34968,6.426643 3.69125,15.138487 5.10778,19.003588 6.56143,26.316318 6.56766,33.039428 0.001,1.19457 0.22325,3.52462 0.49366,5.17789 0.61286,3.74699 0.52101,4.8763 -0.46851,5.76044 -0.62291,0.55657 -0.72896,0.81502 -0.72744,1.77283 9.8e-4,0.6167 0.11971,1.80969 0.26384,2.6511 0.14413,0.84141 0.27918,3.33032 0.3001,5.53093 0.0303,3.19064 0.15084,4.54131 0.59489,6.66804 l 0.55684,2.66695 -0.76364,1.8496 c -0.78646,1.90484 -0.78637,2.34853 4.4e-4,2.34853 0.26012,0 1.32121,0.87327 2.47188,2.03436 1.6479,1.6628 2.16392,2.04762 2.82538,2.10697 0.49199,0.0442 0.80925,-0.0327 0.80925,-0.19611 0,-0.1478 0.51647,-0.75173 1.1477,-1.34206 0.88387,-0.8266 1.62233,-1.97531 3.2125,-4.99718 2.75839,-5.24192 4.424,-7.68023 5.74472,-8.4098 0.56326,-0.31114 2.09041,-0.87703 3.39366,-1.25753 1.30326,-0.3805 2.63421,-0.89999 2.95767,-1.15442 0.36444,-0.28667 0.86939,-0.43837 1.3277,-0.39889 0.40678,0.0351 1.02007,-0.12006 1.36288,-0.34467 0.53365,-0.34966 0.62329,-0.5741 0.62329,-1.56057 0,-1.05666 -0.0664,-1.19321 -0.80101,-1.64722 -1.16778,-0.72174 -2.37877,-2.15321 -3.08569,-3.64752 -0.34061,-0.71999 -0.70276,-1.30907 -0.80478,-1.30907 -0.10201,0 -0.25065,0.55029 -0.33031,1.22287 -0.12214,1.03128 -0.053,1.3872 0.44137,2.2717 0.72493,1.29705 0.60187,1.56761 -0.15573,0.34239 -1.43596,-2.32231 -1.92884,-3.67549 -1.91192,-5.24911 0.023,-2.13503 0.29736,-4.089 0.60093,-4.27903 0.18208,-0.11398 0.16116,-0.62368 -0.0725,-1.76519 -0.18064,-0.88272 -0.32431,-2.20975 -0.31926,-2.94896 0.005,-0.73922 -0.0799,-1.289 -0.18869,-1.22175 -0.10882,0.0673 -0.19786,0.53968 -0.19786,1.04983 0,0.51015 -0.10591,0.92755 -0.23535,0.92755 -0.7114,0 -0.0192,-2.41114 1.47188,-5.12668 1.49959,-2.73112 3.03804,-4.30189 5.22474,-5.33448 5.25177,-2.47997 10.45101,-1.86225 13.7582,1.63462 0.63268,0.66896 1.43418,1.77645 1.7811,2.46108 0.4661,0.9198 0.6997,1.17587 0.89475,0.98082 0.40043,-0.40043 0.99016,-0.31717 1.4643,0.20675 0.28645,0.31653 0.7249,0.47071 1.33851,0.47071 1.17451,0 2.23979,0.45256 3.3408,1.41927 1.9446,1.70738 2.41093,3.8105 2.02326,9.12483 -0.33294,4.56401 -0.22868,5.37667 0.82024,6.39333 0.64295,0.62317 0.94,0.75211 1.5324,0.66516 0.6397,-0.0939 0.69094,-0.064 0.39581,0.23118 -0.29513,0.29513 -0.29181,0.42129 0.0256,0.9744 0.25972,0.45254 0.30794,0.83474 0.16756,1.32822 -0.19417,0.68257 -0.19831,0.68412 -0.27937,0.10445 -0.21265,-1.52074 -0.31159,-1.65691 -1.66273,-2.28843 -0.74109,-0.34638 -1.42686,-0.67044 -1.52395,-0.72012 -0.22799,-0.11668 -0.2246,3.28197 0.004,3.61059 0.0951,0.13695 0.43478,0.42821 0.75484,0.64724 0.4939,0.338 0.51544,0.39823 0.14238,0.39823 -0.33463,0 -0.1505,0.30563 0.77138,1.28039 1.02487,1.08364 1.21038,1.41816 1.20733,2.17706 -0.002,0.49318 -0.10627,1.05555 -0.23175,1.24973 -0.17035,0.26359 -0.22907,0.13568 -0.23176,-0.50486 -0.005,-1.19457 -0.71624,-1.7922 -3.02601,-2.5427 -1.05607,-0.34315 -1.92012,-0.59005 -1.92012,-0.54868 0,0.27382 1.26099,1.99581 1.53988,2.10283 0.44306,0.17002 0.43833,0.46502 -0.0102,0.63714 -0.50508,0.19382 -1.92754,-1.13644 -2.58513,-2.41757 -0.30498,-0.59416 -0.72665,-1.29212 -0.93704,-1.55102 -0.36348,-0.44726 -0.37511,-0.42088 -0.23345,0.52956 0.0951,0.63775 0.0593,1.00028 -0.0987,1.00028 -0.31794,0 -0.73504,-0.7767 -0.73504,-1.36875 0,-0.25204 -0.37081,-0.74108 -0.82401,-1.08675 -1.59619,-1.21748 -2.06391,-3.06712 -1.40259,-5.5467 0.22441,-0.8414 0.43384,-1.84756 0.46541,-2.2359 0.0316,-0.38835 0.43635,-1.55337 0.89954,-2.58895 1.16006,-2.5936 1.64339,-4.59584 1.44958,-6.00497 -0.21691,-1.57716 -0.51903,-1.92863 -1.49078,-1.73428 l -0.78316,0.15664 0.14623,1.32004 c 0.0941,0.849 0.0252,1.77653 -0.19295,2.5993 -0.29927,1.12874 -0.29726,1.34324 0.0171,1.82299 0.46417,0.70841 0.28307,1.64044 -0.72916,3.7526 -0.70744,1.47617 -1.55555,2.4808 -2.30529,2.73071 -0.16708,0.0557 -0.12255,0.34034 0.12949,0.82774 0.48021,0.92862 0.4944,2.02925 0.0311,2.41374 -0.22262,0.18477 -0.35303,0.20054 -0.35303,0.0427 0,-0.13765 0.10591,-0.31574 0.23535,-0.39574 0.39574,-0.24458 0.26253,-1.21108 -0.24779,-1.79796 l -0.48316,-0.55563 0.16407,0.58655 c 0.14195,0.50749 0.11554,0.54628 -0.1959,0.28781 -0.83839,-0.6958 -1.85227,2.57612 -1.36222,4.39604 0.35343,1.31254 1.7266,2.45156 2.76333,2.29214 0.53507,-0.0823 0.98215,0.0368 1.52983,0.40749 0.42561,0.28806 2.19121,1.20537 3.92358,2.03848 2.57019,1.23603 3.24522,1.66717 3.66862,2.34316 0.95453,1.52397 2.42759,5.49793 3.53504,9.53668 0.9707,3.54004 1.91562,6.82465 4.40106,15.29831 1.65292,5.63531 4.20903,16.30183 4.25826,17.76948 0.0512,1.52754 0.0502,1.53032 -0.76134,1.93543 -0.77403,0.3864 -0.80967,0.45913 -0.74973,1.52992 0.0346,0.61833 0.41983,2.18335 0.85604,3.47782 0.83795,2.48664 1.05624,4.84203 0.59711,6.44293 -0.32013,1.11622 -1.70928,2.71175 -2.97872,3.42126 -1.28329,0.71724 -1.64576,0.75427 -1.93217,0.19739 -0.2838,-0.55179 -0.12029,-0.95191 0.81779,-2.00122 0.80836,-0.90422 0.87142,-1.10553 0.79081,-2.5244 -0.0514,-0.90559 -0.82129,-2.59398 -1.18275,-2.59398 -0.12796,0 -0.23058,0.71325 -0.23058,1.60253 0,1.83425 -0.32694,2.484 -1.18856,2.36208 -0.63196,-0.0894 -0.61412,-0.0159 -1.16274,-4.78836 -0.22404,-1.94883 -0.21188,-2.57019 0.0707,-3.61311 0.39921,-1.47356 0.28835,-2.15318 -0.35122,-2.15318 -1.24475,0 -1.83724,-1.07285 -2.40456,-4.35413 -0.17905,-1.03558 -0.85316,-3.31267 -1.49803,-5.06021 -0.64486,-1.74754 -1.302,-3.60099 -1.46031,-4.11878 -0.1583,-0.51778 -0.69235,-1.94759 -1.18677,-3.17734 -0.49442,-1.22975 -0.96576,-2.65955 -1.04744,-3.17734 -0.46265,-2.93315 -0.67214,-3.88341 -0.85609,-3.88341 -0.1129,0 -0.16215,1.40332 -0.10945,3.1185 0.0733,2.38666 0.21253,3.44989 0.59309,4.53065 1.13002,3.20911 2.52052,9.41817 5.56066,24.83033 0.44685,2.26533 1.07745,5.23085 1.40134,6.59004 0.32388,1.3592 0.63035,2.65848 0.68105,2.88729 0.0507,0.2288 -0.047,0.55517 -0.21706,0.72525 -0.44936,0.44936 -4.6744,1.52374 -6.57041,1.67078 -0.89429,0.0694 -1.66525,0.16537 -1.71325,0.21337 -0.048,0.048 -0.19074,1.02854 -0.3172,2.17898 -0.12647,1.15044 -0.35016,2.57511 -0.4971,3.16592 -0.16835,0.67688 -0.19643,1.5039 -0.0759,2.23591 0.1052,0.63893 0.16219,1.26761 0.12665,1.39706 -0.0355,0.12944 -0.0524,0.44718 -0.0375,0.70607 0.13374,2.32095 0.2208,3.61145 0.37314,5.53093 0.20307,2.55877 -0.0129,4.3017 -1.08723,8.77361 -0.69434,2.89022 -0.70783,3.04391 -0.34647,3.94701 0.47219,1.18014 0.47253,1.80616 0.002,3.19285 -0.3425,1.00879 -0.34224,1.2042 0.003,2.30297 0.2075,0.66035 0.41956,2.04793 0.47125,3.08351 0.0577,1.15523 0.29626,2.4286 0.61742,3.29502 0.61844,1.66843 0.76128,5.32816 0.26364,6.7548 -0.61551,1.76458 -2.42927,2.77333 -4.99116,2.77591 -3.51008,0.004 -5.44579,-2.79153 -5.03186,-7.26574 0.22218,-2.40158 0.16463,-3.64984 -0.25633,-5.55999 -0.17116,-0.77668 -0.38382,-3.17092 -0.47257,-5.32053 -0.14362,-3.47877 -0.11558,-3.99619 0.2551,-4.70718 0.48124,-0.92303 0.47295,-1.88452 -0.0403,-4.6822 -0.22664,-1.23525 -0.34359,-2.99094 -0.30573,-4.58949 0.0488,-2.06054 -0.026,-2.80511 -0.36629,-3.64806 -0.23519,-0.58251 -0.55648,-1.64163 -0.71398,-2.35359 -0.2311,-1.04465 -0.31103,-1.18091 -0.41419,-0.70607 -0.50245,2.31272 -0.68675,3.288 -0.76541,4.05027 -0.0495,0.48011 -0.20204,1.08213 -0.33888,1.33784 -0.31355,0.58585 -0.31917,2.77216 -0.0129,5.00947 0.33074,2.41604 0.36538,4.49317 0.17296,10.37281 -0.13488,4.12165 -0.10809,5.11905 0.13753,5.11905 0.16778,0 0.50354,0.14514 0.74615,0.32254 0.40029,0.2927 0.44594,0.72698 0.49347,4.69444 0.0288,2.40455 -0.0282,5.2514 -0.12677,6.32634 -0.0985,1.07495 -0.0885,2.05506 0.0222,2.17803 0.11075,0.12298 0.19785,0.75845 0.19354,1.41216 -0.0152,2.3047 -0.90121,2.70249 -5.99381,2.69095 -3.42721,-0.008 -5.40636,-0.22457 -5.81926,-0.63747 -0.66449,-0.66449 -0.11125,-3.55429 0.95908,-5.00972 0.507,-0.68941 0.7414,-1.2755 0.7414,-1.85377 0,-0.46509 0.15887,-1.45555 0.35304,-2.20102 0.47227,-1.81314 0.44675,-2.26147 -0.16585,-2.91354 -0.39189,-0.41716 -0.54212,-0.91725 -0.61383,-2.0434 -0.085,-1.33439 -0.0396,-1.52982 0.43159,-1.85986 0.37611,-0.26344 0.49066,-0.52449 0.40096,-0.91376 -0.0691,-0.29972 -0.45605,-1.96739 -0.85998,-3.70592 -1.7999,-7.74683 -2.26328,-12.708 -1.66941,-17.87342 0.15781,-1.3726 0.14924,-2.11476 -0.0283,-2.44639 -0.18693,-0.34929 -0.17508,-0.71752 0.0445,-1.38283 0.26155,-0.79253 0.24552,-1.00654 -0.12731,-1.69885 -0.36362,-0.67518 -0.38788,-0.94574 -0.16443,-1.83317 0.26018,-1.03323 0.0786,-2.34689 -0.91046,-6.58545 l -0.2542,-1.08943 -1.3758,-0.15566 c -0.75669,-0.0856 -1.62298,-0.34212 -1.92508,-0.57003 -0.32451,-0.24482 -1.79528,-0.6375 -3.59431,-0.95964 -3.44022,-0.61601 -4.28025,-0.86123 -4.44803,-1.29847 -0.0644,-0.1677 0.1384,-1.45771 0.45056,-2.86669 0.31215,-1.40898 1.20349,-5.5273 1.98074,-9.15182 1.75777,-8.19693 3.92474,-16.9288 5.19835,-20.94692 l 0.96981,-3.05966 0.10134,-5.23673 c 0.0557,-2.8802 0.0186,-5.23489 -0.0825,-5.23266 -0.10111,0.002 -0.41944,0.34117 -0.70741,0.75319 -1.1023,1.57714 -5.49243,5.79788 -6.59568,6.34118 -1.45786,0.71794 -3.21517,0.70281 -4.41384,-0.038 -2.4527,-1.51585 -9.08877,-7.61414 -9.79764,-9.00365 -0.32632,-0.63964 -0.43889,-1.18047 -0.34422,-1.65381 0.11812,-0.59059 -0.008,-0.86428 -0.78455,-1.7071 -0.50888,-0.55206 -1.14306,-1.43074 -1.4093,-1.95262 -0.61467,-1.20485 -0.80746,-1.31435 -2.18536,-1.24122 -1.32089,0.0701 -1.5518,-0.22592 -1.14283,-1.46511 0.22185,-0.67223 0.18779,-0.99986 -0.20847,-2.00518 -0.4938,-1.25279 -0.4818,-1.40015 0.24702,-3.03328 0.29492,-0.66084 0.44525,-1.53664 0.44525,-2.59387 0,-1.46679 0.0858,-1.74279 1.05912,-3.40544 1.25175,-2.13837 1.33159,-2.97714 0.49495,-5.19989 -0.31029,-0.82436 -0.68979,-2.104 -0.84334,-2.84364 -0.21817,-1.05091 -0.40473,-1.40202 -0.85364,-1.60655 -0.59425,-0.27076 -0.67353,-0.47458 -0.91809,-2.36021 -0.18666,-1.43921 -0.89706,-3.48514 -2.63485,-7.58821 -0.84834,-2.00301 -1.65419,-4.40246 -2.05516,-6.11933 -0.36278,-1.55336 -1.1685,-4.09524 -1.79048,-5.6486 -0.67776,-1.69266 -1.37523,-4.00311 -1.7407,-5.76629 -0.63548,-3.06575 -1.47212,-6.11932 -1.67663,-6.11932 -0.16713,0 0.12307,6.59652 0.37957,8.62785 0.13721,1.0867 0.63238,2.7236 1.3949,4.61117 0.95847,2.37267 1.18172,3.18951 1.17986,4.31687 -0.002,1.37054 -0.59252,3.05034 -1.47933,4.21 -0.32321,0.42266 -0.31012,0.53079 0.14095,1.16427 0.368,0.5168 0.51623,1.12988 0.57023,2.35837 0.0401,0.91301 0.17694,2.23551 0.30403,2.93889 0.12708,0.70337 0.23106,2.04717 0.23106,2.98621 0,0.93905 0.1661,2.42357 0.36911,3.29893 0.43241,1.8645 0.18956,3.34714 -0.70784,4.32161 -0.48996,0.53203 -0.52536,0.72366 -0.36952,2.00054 0.42508,3.48294 0.43771,13.89932 0.0237,19.53477 -0.43256,5.88775 -1.69396,17.46222 -2.15839,19.80524 -0.15852,0.79972 -0.71786,1.95682 -1.6445,3.40199 -2.096519,3.26966 -2.172627,3.87288 -0.82435,6.53358 1.04386,2.05997 0.85878,2.86638 -0.898669,3.91547 -0.357337,0.21331 -0.335372,0.32142 0.234451,1.15399 0.345799,0.50524 0.678688,1.36184 0.739738,1.90355 0.0967,0.85754 0.0117,1.09803 -0.656798,1.85942 l -0.767817,0.8745 0.555116,1.10536 c 0.335902,0.66886 0.591552,1.66302 0.647384,2.51752 0.117285,1.79493 -0.703651,8.21081 -1.731602,13.53312 -0.437525,2.26533 -1.014624,6.3417 -1.282441,9.05862 -0.558048,5.66119 -0.797888,6.8441 -2.245285,11.07395 -1.317686,3.85079 -1.36696,5.05461 -0.317347,7.75309 0.669866,1.72217 0.722143,2.05519 0.628084,4.00109 -0.08335,1.72437 -0.235258,2.40956 -0.809741,3.6524 -0.821853,1.77799 -1.264558,2.2167 -2.07967,2.06088 -0.51279,-0.098 -0.589749,-0.029 -0.589749,0.52896 0,0.35293 -0.217153,0.91776 -0.482562,1.25518 -0.550619,0.69999 -0.428301,1.09974 0.752436,2.45901 0.612019,0.70456 0.779288,1.20044 0.727171,2.15574 -0.04061,0.74434 0.953745,2.16707 2.123054,3.03769 0.678719,0.50535 1.474392,1.17912 1.768162,1.49727 0.632866,0.68539 1.287691,3.50856 1.18352,5.10255 -0.08972,1.37284 -0.614292,1.66392 -3.01212,1.67142 -0.970854,0.003 -3.036126,0.15459 -4.589492,0.3368 -3.592922,0.42144 -10.447328,0.63742 -12.07588,0.3805 z m 78.564687,-55.68937 c 0,-2.69177 -0.0372,-2.95204 -0.41188,-2.87957 -0.31415,0.0608 -0.39657,0.27428 -0.34734,0.89986 0.11674,1.48352 0.58896,4.93895 0.67496,4.93895 0.0463,0 0.0843,-1.33166 0.0843,-2.95924 z m -77.7021,-3.40334 c 0.382665,-1.74319 0.825555,-3.96378 0.9842,-4.93463 0.158646,-0.97086 0.657869,-2.60558 1.109385,-3.63272 1.195029,-2.71853 1.214555,-3.24628 0.202994,-5.48666 -0.467867,-1.03622 -0.850668,-2.12298 -0.850668,-2.41503 0,-0.30195 0.355315,-0.86608 0.823755,-1.30788 0.453065,-0.4273 0.822814,-0.86345 0.821664,-0.96922 -0.0011,-0.10578 -0.535059,-0.81499 -1.186464,-1.57603 -2.106933,-2.46153 -2.232162,-3.04167 -1.254685,-5.81255 l 0.616422,-1.74738 -0.276235,-6.00164 c -0.151929,-3.3009 -0.432624,-7.32554 -0.623767,-8.94363 -0.320732,-2.71511 -1.374406,-8.41613 -1.596541,-8.63826 -0.248004,-0.24801 -0.425248,10.62976 -0.349757,21.46531 0.07538,10.81961 0.04316,12.16073 -0.326709,13.59991 -0.225684,0.87814 -0.611876,1.98947 -0.858205,2.46961 -0.437728,0.85322 -0.43794,0.89245 -0.0094,1.73254 0.241182,0.47276 0.558589,1.85035 0.705349,3.06132 0.146759,1.21097 0.320519,2.28949 0.386132,2.39671 0.06561,0.10722 0.206441,1.96067 0.31295,4.11877 0.180426,3.65584 0.424035,6.04066 0.599164,5.86553 0.04104,-0.041 0.387708,-1.50087 0.770372,-3.24407 z m 89.17961,-74.42426 c -0.28253,-0.78845 -0.88933,-2.72522 -1.05079,-3.35386 -0.15508,-0.60383 -0.19214,-0.50844 -0.25591,0.65874 -0.0586,1.07181 0.0332,1.53919 0.42743,2.17707 0.47776,0.77302 1.10254,1.14114 0.87927,0.51805 z m -23.10474,-7.76528 c -0.0812,-0.42155 -0.25198,-0.92533 -0.37953,-1.1195 -0.20612,-0.31382 -0.25764,-0.31382 -0.46365,0 -0.36763,0.56002 -0.27647,2.48712 0.16955,3.58445 l 0.40851,1.00504 0.20637,-1.35176 c 0.11351,-0.74346 0.13994,-1.69667 0.0588,-2.11823 z"
       id="path1" /></g></svg>
